<svg width="150" height="110" viewBox="0 0 150 110" fill="none" xmlns="http://www.w3.org/2000/svg">
<path d="M0.110997 52.1321L0 45.4C0 45.2112 0.158568 45.0539 0.348849 45.0382L7.13555 44.9281C7.32583 44.9281 7.4844 45.0854 7.50025 45.2741L7.61125 52.0063C7.61125 52.195 7.45268 52.3523 7.2624 52.3681L0.459846 52.4624C0.269565 52.4782 0.110997 52.3209 0.110997 52.1321Z" fill="#E417B7"/>
<path d="M104.337 54.0509L101.879 47.1458C101.752 46.7997 101.943 46.4222 102.292 46.3121C111.79 43.0404 121.193 41.2001 130.215 40.8226C136.717 40.5552 143.186 41.0271 149.465 42.2539C149.83 42.3169 150.052 42.6786 149.989 43.0247L148.498 50.1972C148.419 50.5433 148.086 50.7635 147.737 50.7006C142.14 49.6153 136.368 49.1906 130.58 49.4265C122.414 49.7726 113.867 51.4556 105.162 54.4442C104.829 54.5543 104.464 54.3812 104.337 54.0509Z" fill="#E417B7"/>
<path d="M56.719 67.9241C56.7032 68.2858 56.4019 68.569 56.0372 68.569C50.9155 68.3959 45.9364 67.7353 41.2111 66.5713C33.3779 64.6524 26.1313 61.4121 19.1385 58.2663C18.2505 57.873 17.3784 57.4798 16.5063 57.0866C16.1733 56.945 16.0306 56.5675 16.1733 56.2372L19.1861 49.5522C19.3288 49.2219 19.7252 49.0803 20.0423 49.2219C20.9303 49.6151 21.8183 50.0084 22.7063 50.4173C29.3502 53.3902 36.2162 56.4731 43.2884 58.2033C47.4111 59.21 51.7717 59.792 56.2592 59.9493C56.6239 59.965 56.8935 60.2482 56.8935 60.6099L56.719 67.9241Z" fill="#E417B7"/>
<path d="M49.3141 67.4678C49.3141 67.4835 49.441 67.3892 49.4727 67.3735C49.4251 67.3735 49.2824 67.4992 49.3141 67.4678Z" fill="#45A17B"/>
<path d="M48.8705 67.515L48.934 67.4836L48.7754 67.5465L48.8705 67.515Z" fill="#45A17B"/>
<path d="M48.7597 67.342C48.5219 67.5148 48.839 67.3734 48.7756 67.4677L48.728 67.5148L48.9341 67.4048C48.8707 67.3891 48.7122 67.4206 48.7597 67.342Z" fill="#45A17B"/>
<path d="M49.2512 66.9331C49.1561 66.9959 49.1561 66.9645 49.2354 66.9645C49.2512 66.9488 49.2512 66.9488 49.2512 66.9488V66.9331Z" fill="#45A17B"/>
<path d="M49.251 66.9489C49.2668 66.9647 49.3303 66.8858 49.251 66.9489V66.9489Z" fill="#45A17B"/>
<path d="M49.1553 66.9012L49.2504 66.8698C49.298 66.8227 49.3138 66.807 49.3614 66.7913C49.298 66.7913 49.2346 66.8227 49.1553 66.9012Z" fill="#45A17B"/>
<path d="M48.9492 66.9802L48.9968 66.9645C49.0126 66.9645 49.0285 66.9488 48.9492 66.9802Z" fill="#45A17B"/>
<path d="M49.0929 66.9487L48.9978 66.9644C48.966 66.9958 48.8709 67.0429 49.0295 66.9644C48.9502 67.0115 49.0295 66.9801 49.0929 66.9487Z" fill="#45A17B"/>
<path d="M49.0602 66.9957C49.0126 67.0428 48.9967 67.0742 48.8857 67.1056C48.9492 67.1371 49.1236 67.0114 49.0602 66.9957Z" fill="#45A17B"/>
<path d="M48.5058 67.4992L48.4424 67.562L48.5375 67.5306C48.49 67.5463 48.5851 67.4521 48.5058 67.4992Z" fill="#45A17B"/>
<path d="M49.2042 66.6813C49.1566 66.7127 49.0615 66.7755 48.998 66.8069L49.0773 66.7912C49.0932 66.7598 49.1249 66.7284 49.2042 66.6813Z" fill="#45A17B"/>
<path d="M48.9811 66.8071L48.8701 66.8385C48.886 66.8699 48.9335 66.8542 48.9811 66.8071Z" fill="#45A17B"/>
<path d="M48.6641 67.153L48.8861 67.0745L48.6641 67.1373V67.153Z" fill="#45A17B"/>
<path d="M49.1555 66.587L49.2823 66.5242L49.0762 66.6027L49.1555 66.587Z" fill="#45A17B"/>
<path d="M49.0918 66.5396C49.2028 66.4925 49.2662 66.4296 49.3296 66.4139C49.2979 66.4139 49.2028 66.4453 49.1077 66.461C49.1711 66.4453 49.1711 66.461 49.0918 66.5396Z" fill="#45A17B"/>
<path d="M48.9814 66.4926C49.0132 66.4926 49.0607 66.4769 49.1083 66.4612C49.0924 66.4612 49.0449 66.4769 48.9814 66.4926Z" fill="#45A17B"/>
<path d="M48.8857 66.7754C48.9175 66.7597 48.9967 66.6969 49.0285 66.6655L48.8857 66.7754Z" fill="#45A17B"/>
<path d="M48.8859 66.7756C48.8705 66.791 48.8551 66.791 48.8859 66.7756V66.7756Z" fill="#45A17B"/>
<path d="M48.7595 66.9957C48.6644 67.0271 48.5534 67.0428 48.4424 67.1528C48.5534 67.1056 48.6168 67.0428 48.7595 66.9957Z" fill="#45A17B"/>
<path d="M48.6955 66.9014L48.6797 66.9485C48.7273 66.9328 48.7748 66.8857 48.8224 66.87L48.6955 66.9014Z" fill="#45A17B"/>
<path d="M48.6484 66.9171L48.696 66.9014L48.7119 66.8857L48.6484 66.9171Z" fill="#45A17B"/>
<path d="M48.8707 66.6184C48.7914 66.6341 48.7914 66.6341 48.7597 66.6184C48.7439 66.6498 48.728 66.6812 48.7439 66.6969C48.7914 66.6655 48.8866 66.6341 48.8707 66.6184Z" fill="#45A17B"/>
<path d="M48.8537 66.6971C48.8383 66.7125 48.8229 66.7125 48.8537 66.6971V66.6971Z" fill="#45A17B"/>
<path d="M48.6792 66.4612C48.6638 66.4612 48.6638 66.4765 48.6484 66.4765L48.6792 66.4612Z" fill="#45A17B"/>
<path d="M48.7116 66.7128C48.6958 66.7443 48.7275 66.7285 48.7751 66.7128C48.7592 66.7128 48.7434 66.7128 48.7275 66.6971C48.7116 66.7128 48.6958 66.7128 48.7116 66.7128Z" fill="#45A17B"/>
<path d="M48.8859 66.4924C48.8542 66.5081 48.8384 66.5395 48.8066 66.5552C48.8701 66.5238 48.9335 66.4767 48.8859 66.4924Z" fill="#45A17B"/>
<path d="M48.8857 66.6808C48.9165 66.6501 48.9011 66.6655 48.8857 66.6808V66.6808Z" fill="#45A17B"/>
<path d="M48.8864 66.6813C48.8547 66.6813 48.823 66.697 48.7754 66.7127C48.7912 66.7127 48.8071 66.7127 48.8388 66.697C48.8547 66.697 48.8705 66.6813 48.8864 66.6813Z" fill="#45A17B"/>
<path d="M47.6494 66.9166C47.7921 66.8538 47.9507 66.8224 47.808 66.9323C47.9348 66.9166 48.3947 66.6497 48.6642 66.4927C48.6008 66.5241 48.5374 66.5555 48.4423 66.5712C48.363 66.6183 48.2837 66.7282 48.141 66.7753C48.0458 66.7753 48.1727 66.7125 48.2361 66.6654C48.0617 66.7753 47.9507 66.7439 47.6811 66.8852L47.7921 66.8695C47.7604 66.8695 47.6811 66.8852 47.6494 66.9166Z" fill="#45A17B"/>
<path d="M48.6641 66.5396H48.6958C48.7116 66.5082 48.7751 66.4768 48.8702 66.3983C48.7909 66.414 48.7275 66.4297 48.6799 66.4611L48.6958 66.5239L48.6641 66.5396Z" fill="#45A17B"/>
<path d="M48.7277 66.6025C48.5691 66.681 48.4899 66.681 48.3154 66.7909C48.3471 66.8223 48.4581 66.7438 48.5374 66.7281C48.474 66.6967 48.6326 66.6967 48.696 66.6182C48.7277 66.6182 48.7436 66.6182 48.7594 66.6339C48.7753 66.6182 48.7911 66.5868 48.8228 66.5711C48.8228 66.5711 48.8228 66.5711 48.807 66.5711C48.7911 66.5868 48.7753 66.5868 48.7911 66.5868C48.7594 66.5868 48.7436 66.5868 48.7277 66.6025C48.7594 66.5711 48.7753 66.5711 48.7911 66.5711C48.807 66.5711 48.807 66.5711 48.8228 66.5554L48.7118 66.5397C48.6801 66.5711 48.696 66.5868 48.7277 66.6025Z" fill="#45A17B"/>
<path d="M48.0938 67.3099C48.1092 67.2946 48.1091 67.2946 48.1245 67.2946C48.1091 67.2946 48.0938 67.3099 48.0938 67.3099Z" fill="#45A17B"/>
<path d="M48.1726 67.2313C48.2043 67.2313 48.2677 67.1999 48.2519 67.2156C48.2201 67.247 48.1726 67.2627 48.125 67.2941C48.1726 67.2784 48.2519 67.2627 48.3153 67.1842H48.2994C48.3311 67.1371 48.5214 66.9958 48.5373 66.9801C48.3946 67.09 48.2994 67.1371 48.1726 67.2313Z" fill="#45A17B"/>
<path d="M48.3948 66.9331C48.3631 66.9331 48.3314 66.9331 48.2997 66.9331L48.1729 67.0273L48.2521 66.9802C48.2363 67.0273 48.3314 66.9645 48.3948 66.9331Z" fill="#45A17B"/>
<path d="M48.759 66.4293L48.9334 66.3508L48.6797 66.4293H48.759Z" fill="#45A17B"/>
<path d="M48.7119 66.3666L48.8546 66.3038L48.7595 66.3352L48.7119 66.3666Z" fill="#45A17B"/>
<path d="M45.572 62.9377L45.5244 62.9219C45.5403 62.9377 45.5561 62.9377 45.572 62.9377Z" fill="#45A17B"/>
<path d="M45.5879 63.0636L45.6672 63.0479C45.6196 63.0479 45.5879 63.0636 45.5879 63.0636Z" fill="#45A17B"/>
<path d="M48.0781 64.8093C48.2208 64.7465 48.427 64.6523 48.2526 64.6994L48.0781 64.7622C48.1257 64.7622 48.1098 64.7779 48.0781 64.8093Z" fill="#45A17B"/>
<path d="M46.7292 63.8815C46.7134 63.8815 46.6975 63.8972 46.6816 63.8972C46.7451 63.8972 46.7926 63.8815 46.8561 63.8815C46.8085 63.8815 46.7609 63.8815 46.7292 63.8815Z" fill="#45A17B"/>
<path d="M46 64.023L46.111 63.9602C46.0634 63.9916 46.0317 64.0073 46 64.023Z" fill="#45A17B"/>
<path d="M45.2704 62.277H45.0801C45.0959 62.3241 45.1752 62.2927 45.2704 62.277Z" fill="#45A17B"/>
<path d="M48.3626 65.7528C48.426 65.7057 48.4419 65.69 48.4419 65.6743C48.3626 65.7371 48.2199 65.8156 48.3626 65.7528Z" fill="#45A17B"/>
<path d="M47.444 62.6389C47.4123 62.6389 47.3806 62.6389 47.333 62.6389C47.3647 62.6546 47.4123 62.6546 47.444 62.6389Z" fill="#45A17B"/>
<path d="M48.4262 65.6273C48.4104 65.643 48.4104 65.643 48.3945 65.6587C48.4262 65.6587 48.458 65.6587 48.458 65.6901C48.5055 65.6273 48.5531 65.5959 48.4262 65.6273Z" fill="#45A17B"/>
<path d="M45.0961 59.7757C45.0961 59.7757 45.1115 59.7757 45.1115 59.7604C45.0807 59.7757 45.0807 59.7757 45.0961 59.7757Z" fill="#45A17B"/>
<path d="M46.8087 58.8793C46.824 58.8793 46.824 58.8944 46.824 58.9096C46.8393 58.8944 46.8393 58.8944 46.8087 58.8793Z" fill="#45A17B"/>
<path d="M48.6641 66.0997C48.6805 66.0997 48.6805 66.0831 48.6641 66.0997V66.0997Z" fill="#45A17B"/>
<path d="M48.0461 66.4452C48.0302 66.4452 47.9985 66.4609 47.9668 66.4766C48.0144 66.4609 48.0302 66.4609 48.0461 66.4452Z" fill="#45A17B"/>
<path d="M47.3317 65.8793C47.3009 65.8946 47.3009 65.8793 47.3317 65.8793V65.8793Z" fill="#45A17B"/>
<path d="M48.6006 66.1461C48.6163 66.1305 48.6321 66.1149 48.6479 66.1149C48.6321 66.1149 48.6163 66.1305 48.6006 66.1461Z" fill="#45A17B"/>
<path d="M48.6795 66.1149C48.6795 66.1149 48.6795 66.1302 48.6641 66.1302C48.6949 66.1149 48.7103 66.1149 48.6795 66.1149Z" fill="#45A17B"/>
<path d="M48.6484 66.0837C48.6484 66.0837 48.6484 66.0991 48.6484 66.1144C48.6638 66.1144 48.6638 66.0991 48.6792 66.0991C48.6638 66.0991 48.6484 66.0837 48.6484 66.0837Z" fill="#45A17B"/>
<path d="M46.0322 64.9038C46.2542 64.8724 46.2384 64.8881 46.1908 64.9195L46.6824 64.7625L46.0322 64.9038Z" fill="#45A17B"/>
<path d="M45.4612 62.6388L45.3027 62.7017C45.0331 62.7017 45.1124 62.6388 44.9062 62.7174C45.4612 62.623 44.9855 62.8747 45.5405 62.7803L45.4454 62.8432C45.4454 62.8275 45.4137 62.8432 45.4137 62.8275C45.16 62.9219 45.8259 62.7961 45.7467 62.8747C45.7149 62.9062 45.6357 62.9376 45.5564 62.9376L45.6991 62.9691C45.6991 62.9848 45.5881 63.0005 45.6039 62.9848L45.6674 63.0635H45.6515C45.7467 63.0635 45.8735 63.0635 45.9369 63.0635C45.8577 63.0949 45.8735 63.0635 45.8101 63.0792L45.9528 63.0949C45.8101 63.1421 45.6674 63.1264 45.6832 63.0949C45.1441 63.2365 45.8259 63.1106 45.5247 63.2522L45.4454 63.2207C45.1441 63.3151 45.2551 63.3151 45.0807 63.4095C45.1758 63.378 45.5564 63.2207 45.6991 63.2365C45.6674 63.2522 45.6515 63.2837 45.7625 63.2837C45.5722 63.3151 45.6198 63.3308 45.6357 63.3623L45.382 63.4095C45.4612 63.4252 45.5881 63.3938 45.7149 63.3938C45.6991 63.441 45.4929 63.4881 45.3344 63.5353C45.3027 63.5982 45.6515 63.4252 45.7149 63.4881C45.6198 63.5668 45.7467 63.5668 45.9052 63.5982C45.8259 63.6454 45.7467 63.6297 45.6674 63.6454L45.8735 63.6297C45.8735 63.6454 45.8101 63.6454 45.7784 63.6612C45.8577 63.6769 46.0321 63.614 46.1114 63.6297C46.3968 63.5825 45.7149 63.8027 46.0479 63.787C45.9845 63.8185 45.8894 63.8185 45.7942 63.8342C46.0162 63.8656 45.9687 63.8656 46.2541 63.8499L46.0955 63.9443C46.2858 63.8656 46.5236 63.8656 46.7139 63.8499C46.8091 63.8185 46.8883 63.787 46.9201 63.7713L47.0786 63.8027C47.0311 63.8185 46.9518 63.8342 46.8408 63.8499C46.8566 63.8499 46.8883 63.8499 46.9042 63.8499C46.8091 63.8971 46.6663 63.9128 46.5236 63.9286C46.5712 63.9128 46.6188 63.8971 46.6822 63.8656C46.5236 63.8814 46.3492 63.9128 46.1906 63.9443C46.2224 63.9443 46.2541 63.9443 46.2699 63.9443C46.2224 63.9443 46.1906 63.96 46.1589 63.96C46.1272 63.9758 46.1906 63.96 46.2541 63.96L45.9687 64.0387L46.0797 64.0229L45.9211 64.1488C46.2224 64.1488 46.6664 64.0859 46.7932 64.1488C46.5712 64.1802 46.4444 64.2274 46.2065 64.2903C46.4602 64.196 46.0797 64.2432 46.1114 64.1802C46.0955 64.2117 45.9687 64.2432 45.9211 64.2432L46.1748 64.2746C45.9687 64.3218 46.0321 64.3375 45.9528 64.369C46.3492 64.2589 46.2382 64.369 46.3651 64.369C46.2382 64.4004 46.0955 64.4319 46.1114 64.3847C45.8259 64.5105 46.6029 64.3218 46.3492 64.4476C46.3492 64.4319 46.3651 64.4319 46.2858 64.4476C46.4126 64.4476 46.3334 64.5263 46.2065 64.542V64.5263C46.1748 64.6049 46.2699 64.7465 46.6029 64.6678C46.5554 64.6836 46.1906 64.7622 46.1272 64.7779C46.5236 64.715 46.9042 64.6521 47.3006 64.5892C47.0152 64.6521 46.3334 64.8881 46.1431 64.8881C46.1114 64.9195 46.0638 64.951 46.1748 64.951C46.2065 64.9352 46.5871 64.8094 46.6188 64.8094C46.3016 64.951 46.4602 64.8881 46.1906 65.0139C46.2541 64.9824 46.7139 64.8723 46.6981 64.9038C46.6346 64.9195 46.2541 65.0296 46.2065 65.0453L46.6664 64.9824C46.5871 64.9824 46.2858 65.0925 46.1748 65.1397C46.2541 65.1083 46.1906 65.2026 46.2382 65.2026L46.3334 65.1397C46.2858 65.2341 46.9835 65.0296 46.9835 65.1083C46.8883 65.124 46.4126 65.2656 46.3651 65.3127C46.6029 65.2656 47.475 65.0453 47.6653 65.0611L47.5385 65.1083H47.697C47.3482 65.1869 46.6029 65.3285 46.3175 65.3757C46.2224 65.4386 46.1748 65.4386 46.1906 65.47C46.0797 65.5172 46.0004 65.5015 45.9845 65.4858L45.9369 65.6116C46.2065 65.5172 46.2224 65.6116 46.4444 65.533L46.1431 65.5172C46.4126 65.4229 46.9042 65.3442 46.8883 65.4228C46.7932 65.47 46.4126 65.5644 46.3334 65.5959C46.4285 65.5801 46.5236 65.6116 46.4602 65.6273L46.3175 65.6431C46.2382 65.7217 46.6822 65.5959 46.4444 65.7217C46.4285 65.7374 46.1272 65.879 46.2858 65.8318C46.5712 65.706 47.4909 65.3757 47.7288 65.3285C47.7129 65.3442 47.475 65.5015 47.3323 65.5801C47.1103 65.6902 46.7615 65.7374 46.5712 65.8318C46.6505 65.8004 46.7298 65.7846 46.7615 65.7846C46.7139 65.8161 46.5395 65.8475 46.5871 65.879C46.8566 65.7846 46.5871 65.9576 46.8249 65.8161C46.9201 65.8318 46.7773 65.879 46.8091 65.9105C46.9676 65.8318 47.3958 65.7374 47.4909 65.7374C47.4275 65.7532 47.3323 65.8004 47.3006 65.8161C47.3006 65.8947 47.2055 65.9734 47.2213 66.052C47.1579 66.0835 47.0945 66.1464 46.9835 66.1779C47.0311 66.1621 47.1262 66.1464 47.1421 66.1621C46.9359 66.288 47.0945 66.1307 46.8249 66.2722C46.9835 66.2093 47.0469 66.2408 47.1579 66.2408C47.3799 66.1307 47.1738 66.1621 47.0628 66.1621C47.3799 66.0363 47.7446 65.9576 47.919 65.9576C48.0142 65.9734 47.7288 66.0678 47.7763 66.052C47.7605 66.1779 48.3789 65.8947 48.1727 66.0835C47.9825 66.2093 47.7763 66.2565 47.6178 66.3352C47.5226 66.3194 47.7129 66.2093 47.697 66.1936L47.6178 66.2722C47.5385 66.288 47.475 66.2722 47.5385 66.2408C47.3641 66.3509 47.5702 66.4295 47.4433 66.5711C47.5226 66.5554 47.6019 66.5396 47.6812 66.4924L47.6495 66.4767C47.808 66.3823 47.8873 66.4138 47.9507 66.3509C48.0776 66.3351 48.2679 66.288 48.2045 66.3666L47.9825 66.4767C48.0459 66.4453 48.1093 66.3823 48.03 66.3981C48.141 66.3666 47.7446 66.6026 48.0617 66.4924L48.2045 66.3823C48.3313 66.3666 48.6009 66.288 48.5375 66.3509C48.7594 66.225 48.5057 66.3509 48.7594 66.2093C48.4423 66.3823 48.7277 66.1149 48.3947 66.3037C48.6802 66.1307 48.5057 66.1936 48.7436 66.0363C48.6643 66.0678 48.6009 66.1149 48.6326 66.0678C48.6167 66.0678 48.585 66.0835 48.5692 66.0835H48.5533C48.5375 66.0835 48.5375 66.0835 48.5533 66.0835C48.5216 66.0992 48.4899 66.1307 48.4423 66.1464C48.2679 66.2093 48.252 66.1621 48.141 66.1779C48.1727 66.1464 48.2362 66.1464 48.3155 66.0992L48.1727 66.1307C48.3472 66.052 48.4265 65.9576 48.5533 65.9576L48.5375 65.9105C48.6167 65.8475 48.6484 65.8004 48.5692 65.8161C48.6009 65.7846 48.363 65.8475 48.5057 65.8161L48.3789 65.8004L48.4265 65.7846C48.4265 65.7217 48.0935 65.7689 48.3789 65.5801C48.3313 65.5801 48.2679 65.5801 48.2996 65.5172L48.4423 65.4543C48.3789 65.4543 48.5692 65.3127 48.3947 65.3599C48.7912 65.1869 48.4423 65.2026 48.4899 65.124L48.2996 65.1869C48.2996 65.1555 48.2362 65.1397 48.141 65.124L47.9666 65.1869C47.808 65.2026 48.0617 65.0453 48.03 64.9982C48.0935 64.9824 48.0935 64.9982 48.0459 65.0296C48.4265 64.8409 47.7129 64.9824 47.9825 64.8251C47.919 64.8251 47.9349 64.8094 47.9666 64.7937C47.9666 64.7937 47.9666 64.7937 47.9825 64.7937C48.0142 64.7779 48.0459 64.7622 48.0617 64.7465C48.0142 64.7622 47.9825 64.7779 47.9666 64.7937C47.9666 64.7779 47.9349 64.778 47.8873 64.7622L48.0776 64.6993C48.141 64.6678 47.9825 64.715 47.8398 64.7622C47.808 64.7622 47.7605 64.7622 47.7129 64.7779C48.0142 64.6678 47.6019 64.7622 47.919 64.6364C47.7605 64.6678 47.7763 64.5735 47.4275 64.6678C47.475 64.6521 47.4909 64.6364 47.4909 64.6521C47.5226 64.6207 47.5543 64.5892 47.4592 64.5892L47.697 64.5106L47.364 64.5577C47.5068 64.4948 47.586 64.4476 47.7763 64.4319C47.475 64.4476 47.6495 64.4162 47.3482 64.4319L47.5068 64.3847C47.4909 64.369 47.2689 64.3847 47.3958 64.3375C47.6812 64.2117 47.3799 64.1016 47.6336 63.9128C47.1738 64.0544 47.8239 63.8027 47.4592 63.8971C47.5702 63.8656 47.6336 63.8342 47.7288 63.8342C47.6019 63.8027 47.8873 63.7084 47.5702 63.7398C47.6812 63.7084 47.7288 63.7084 47.7922 63.6926C47.7605 63.6926 47.697 63.6926 47.7605 63.6769C47.8239 63.6612 47.8556 63.6612 47.9032 63.6612C47.8715 63.614 47.5226 63.6769 47.2055 63.7555C47.3482 63.6926 47.3165 63.6769 47.1103 63.7084C47.2055 63.6769 47.3165 63.6297 47.364 63.6612C47.3799 63.6297 47.4909 63.5039 47.2372 63.5511C47.3006 63.5353 47.2531 63.5196 47.2213 63.5196C47.2213 63.4724 47.2531 63.4567 47.2213 63.4095L47.1896 63.4252C46.8725 63.4724 47.1103 63.3938 47.0628 63.3623H47.0945C47.3006 63.2207 46.9835 63.3466 47.2213 63.205L47.0311 63.3151C46.6188 63.3938 47.2531 63.1893 47.0945 63.1736L46.9835 63.2207C46.8408 63.2207 47.5385 63.032 47.586 63.0005C47.6178 62.9848 47.6495 63.0005 47.6812 63.0005C47.919 62.8747 47.4275 63.0477 47.364 63.0005C47.5068 62.9691 47.7129 62.9376 47.7288 62.9062C47.8398 62.8747 47.2689 62.8904 47.5226 62.7803C47.4116 62.8118 47.3165 62.8432 47.2372 62.8275C47.1896 62.7961 47.6178 62.6545 47.2848 62.6702C47.3165 62.6545 47.3323 62.6545 47.364 62.6545C47.2689 62.6388 47.2055 62.5916 47.0152 62.5916C47.6812 62.45 46.6505 62.4657 47.2689 62.3556L47.2213 62.277L47.2848 62.2613C47.3165 62.1983 47.1579 62.1983 47.0152 62.1983C47.0628 62.1826 47.1103 62.1826 47.1421 62.1669C47.2531 62.0568 47.2213 62.0568 46.9042 62.041L47.1103 61.9939C46.9835 61.9939 47.4116 61.8208 47.1579 61.7736C47.1738 61.7736 47.2213 61.7736 47.2531 61.7736C46.9993 61.7107 47.7763 61.4591 47.0469 61.5377L46.8566 61.5062C46.8091 61.6006 46.5395 61.5377 46.4126 61.5849C46.3651 61.5534 46.6188 61.4748 46.6664 61.5062L46.6346 61.522C47.0152 61.4748 46.7615 61.3961 47.0152 61.3647C46.9676 61.2074 47.1738 61.0186 47.1579 60.8771L46.8566 60.94L46.8725 60.8928C46.9359 60.8771 47.1103 60.8456 47.0945 60.8771C47.2689 60.8299 46.9518 60.8299 46.8725 60.8456C46.9835 60.7512 47.2213 60.8299 47.2213 60.7984L47.1896 60.767L47.1579 60.7827C47.0311 60.767 46.9042 60.7827 46.9042 60.7355C46.9676 60.7041 47.0945 60.7041 47.0945 60.6883C47.1103 60.6883 47.1262 60.6883 47.0945 60.6726L47.1103 60.6097L46.8725 60.6726C46.7456 60.6569 46.8725 60.6097 46.6188 60.6726C47.0311 60.5782 46.7298 60.4052 46.8566 60.358C46.6822 60.3423 46.6822 60.2951 46.6981 60.2479C46.6505 60.2636 46.3809 60.3108 46.4126 60.2636C46.9676 60.2164 46.6346 60.1535 47.0311 60.0749C46.7773 60.1378 46.9518 59.9648 46.5871 60.0434C46.6346 59.9962 46.7932 60.012 46.9201 59.9805C46.6981 59.9176 47.0311 59.776 46.9518 59.6816C46.8725 59.6816 46.7774 59.7131 46.6664 59.7131L47.0152 59.6187C46.9835 59.603 46.6029 59.6502 46.8408 59.5715C46.7773 59.5873 46.6981 59.603 46.6664 59.5873C46.9993 59.3356 46.3334 59.194 46.9676 58.9109C46.8249 58.9581 46.8091 58.9424 46.8091 58.9109C46.7773 58.9266 46.6346 58.9266 46.5395 58.9424L46.8091 58.8323C46.5395 58.848 46.7773 58.7379 46.5236 58.7536L46.5712 58.7693C46.2541 58.7693 45.8894 58.8952 45.5088 58.9266C45.8577 58.9266 45.0014 59.0839 45.5088 59.1154C45.4295 59.1311 45.382 59.1154 45.2868 59.1311C45.4612 59.1311 45.4929 59.1468 45.4295 59.194H45.382C45.4295 59.3041 45.271 59.3671 45.1758 59.5086L45.3661 59.4772C45.3502 59.5086 45.2868 59.5244 45.2392 59.5401C45.5405 59.5401 45.2551 59.4614 45.5722 59.4614C45.1758 59.5401 45.5881 59.6502 45.1441 59.7288C45.1441 59.776 45.3661 59.6974 45.3661 59.7288L45.2392 59.7603H45.3978C45.382 59.7918 45.2234 59.8232 45.1282 59.8389C45.1441 59.8232 45.0965 59.8232 45.0807 59.8232C44.938 59.8704 45.1441 59.9176 45.0965 59.9333L45.16 59.8861C45.2868 59.9805 45.1441 60.1378 45.3978 60.2164L45.4929 60.2007C45.6674 60.2636 45.3978 60.2794 45.4929 60.358H45.4771C45.5722 60.358 45.6198 60.3895 45.6198 60.4052C45.5088 60.3895 45.4137 60.4681 45.2868 60.4524C45.4771 60.5153 45.4295 60.4838 45.7784 60.4996L45.6357 60.531C45.7784 60.531 45.8418 60.531 45.8894 60.5625C45.7625 60.5468 45.6674 60.6254 45.4771 60.594C45.16 60.7355 45.8259 60.6883 45.3502 60.7984C45.7784 60.7984 45.5722 60.6883 45.6674 60.7041C45.7942 60.6726 45.9845 60.7041 45.9528 60.7355C45.9528 60.767 45.4295 60.8613 45.4454 60.9243C45.4454 60.9085 45.4137 60.9243 45.4137 60.9085C45.3027 60.9557 45.5722 60.94 45.3978 61.0029C45.6515 60.9872 45.382 61.0501 45.7149 61.0186L45.6357 60.9557C45.7308 60.9872 46.1114 60.9715 45.9369 61.0658C45.8735 61.0658 45.7784 61.0658 45.7308 61.0501C45.6357 61.0816 45.7942 61.0816 45.6991 61.113C45.382 61.1445 45.6198 61.0344 45.3661 61.0186C45.2392 61.0501 45.6039 61.0658 45.2551 61.0973C45.6991 61.0658 45.2075 61.1759 45.5564 61.1917L45.3661 61.2074C45.3978 61.2074 45.4929 61.2231 45.4929 61.2388H45.2392C45.4612 61.2546 45.0648 61.349 45.1917 61.3647C45.1758 61.286 45.4295 61.3175 45.5564 61.2546C45.8259 61.3175 45.0648 61.3804 45.16 61.4905C45.1282 61.4748 45.271 61.4119 45.3661 61.4276C45.3344 61.4591 45.2551 61.4905 45.16 61.522C45.2075 61.6006 45.3502 61.4748 45.4771 61.5062C45.2392 61.5692 45.5722 61.5377 45.6515 61.5534L45.4454 61.5849C45.3344 61.695 45.8577 61.5534 45.7149 61.6478H45.4295L45.5088 61.6793L45.2868 61.695C45.4612 61.7107 45.4137 61.7422 45.3661 61.7894C45.5088 61.7579 45.7308 61.7422 45.7308 61.7894C45.6198 61.8366 45.5405 61.8051 45.5722 61.8523C45.4454 61.8523 45.2868 61.868 45.4612 61.8208C45.3978 61.8208 45.3344 61.8208 45.271 61.8366C45.1441 61.8838 45.2551 61.9152 45.2551 61.9309C45.2551 61.9152 45.271 61.9152 45.3027 61.8995L45.5881 61.9467C45.5088 61.9781 45.4612 61.9624 45.3978 61.9624C45.4295 61.9781 45.5088 61.9781 45.5405 61.9939C45.382 62.0096 45.2075 62.041 45.1282 62.0096L45.3185 62.0568C45.2551 62.0725 45.1282 62.1197 45.0807 62.1197C44.9855 62.1826 45.4137 62.1826 45.2868 62.2613C45.3185 62.2613 45.3502 62.2613 45.3661 62.277C45.3344 62.3399 45.1441 62.4186 45.382 62.45L45.1282 62.5287C45.2075 62.5601 45.4771 62.4186 45.6039 62.4815C45.6991 62.5287 45.3661 62.5444 45.2868 62.5758C45.4295 62.5758 45.7308 62.5758 45.5088 62.6702C45.4454 62.6702 45.493 62.6545 45.4612 62.6388ZM45.7149 63.2365C45.6674 63.2365 45.5405 63.2365 45.6515 63.205C45.8735 63.1736 45.7625 63.205 45.7149 63.2365ZM46.3651 64.0544C46.3016 64.0544 46.3334 64.0387 46.3968 64.0072C46.4285 64.0229 46.4126 64.0387 46.3651 64.0544ZM48.4582 66.0206C48.4423 66.0206 48.4423 66.0206 48.4582 66.0206C48.5057 65.9576 48.474 65.9891 48.4582 66.0206ZM48.3947 66.0992C48.4265 66.0992 48.4423 66.0835 48.474 66.0678C48.4265 66.0835 48.4265 66.0835 48.4265 66.052C48.3789 66.0835 48.3472 66.0992 48.3947 66.0992ZM47.0311 60.7041L46.9835 60.7198C46.9201 60.7041 46.9676 60.7041 47.0311 60.7041Z" fill="#45A17B"/>
<path d="M46.0801 64.0071C46.1118 63.9914 46.1435 63.9914 46.1911 63.9757C46.1594 63.9914 46.1118 63.9914 46.0801 64.0071Z" fill="#45A17B"/>
<path d="M46.5234 65.9262C46.5393 65.9105 46.571 65.8948 46.6186 65.8634C46.5552 65.8948 46.5234 65.9105 46.5234 65.9262Z" fill="#45A17B"/>
<path d="M48.8073 66.1936H48.7439C48.7597 66.2093 48.728 66.225 48.6963 66.2407C48.7439 66.225 48.8073 66.1779 48.8073 66.1936Z" fill="#45A17B"/>
<path d="M47.8242 66.98C47.8559 66.98 47.8242 66.9957 47.8559 66.98L47.9352 66.9329C47.9352 66.9172 47.8559 66.9486 47.8242 66.98Z" fill="#45A17B"/>
<path d="M48.2201 66.4927C48.0774 66.5712 48.125 66.5555 48.1726 66.5712C48.3787 66.477 48.2994 66.4927 48.2201 66.4927Z" fill="#45A17B"/>
<path d="M48.1729 66.5712C48.1887 66.5712 48.1887 66.5712 48.1887 66.5869C48.2838 66.5555 48.2046 66.5712 48.1729 66.5712Z" fill="#45A17B"/>
<path d="M48.5215 66.0995C48.4898 66.1309 48.7118 66.0209 48.6642 66.0523C48.8545 65.9895 48.3947 66.0995 48.5215 66.0995Z" fill="#45A17B"/>
<path d="M47.7285 66.7439L47.9188 66.6497L47.7602 66.7125L47.7285 66.7439Z" fill="#45A17B"/>
<path d="M47.7925 66.5081L47.7607 66.5709C47.7925 66.5552 47.8083 66.5552 47.8242 66.5552C47.8242 66.5238 47.84 66.4924 47.7925 66.5081Z" fill="#45A17B"/>
<path d="M47.8242 66.5553C47.8242 66.5711 47.8401 66.5711 47.8718 66.5711C47.8559 66.5553 47.8559 66.5553 47.8242 66.5553Z" fill="#45A17B"/>
<path d="M47.6494 66.7283L47.6811 66.6969V66.6655L47.6494 66.7283Z" fill="#45A17B"/>
<path d="M47.6647 66.1148L47.6013 66.0991C47.5378 66.1148 47.5061 66.1462 47.5378 66.1462C47.5695 66.1462 47.6013 66.1462 47.6647 66.1148Z" fill="#45A17B"/>
<path d="M47.1899 66.4608C47.2216 66.4294 47.2692 66.4137 47.3326 66.3823L47.0947 66.4765L47.1899 66.4608Z" fill="#45A17B"/>
<path d="M47.0787 66.3667C47.0153 66.3824 46.8567 66.3824 46.9043 66.4295C46.9677 66.3981 47.047 66.4138 47.0787 66.3667Z" fill="#45A17B"/>
<path d="M47.1572 65.6428L47.5536 65.5015L47.1572 65.6428Z" fill="#45A17B"/>
<path d="M46.0162 65.3913C45.937 65.4698 46.27 65.3285 46.159 65.407C46.2541 65.3913 46.2382 65.3442 46.3334 65.3285C46.2224 65.3285 46.27 65.2971 46.0162 65.3913Z" fill="#45A17B"/>
<path d="M47.0152 58.7379L47.1103 58.7065L46.9676 58.7379H47.0152Z" fill="#45A17B"/>
<path d="M46.6981 58.7066L46.9677 58.6752H46.7298C46.7457 58.6909 46.7615 58.6909 46.6981 58.7066Z" fill="#45A17B"/>
<path d="M45.1914 63.4251L45.2548 63.4094C45.3183 63.3937 45.3183 63.378 45.3341 63.3623L45.1914 63.4251Z" fill="#45A17B"/>
<path d="M45.3027 62.9376V62.9533L45.5406 62.8905L45.3027 62.9376Z" fill="#45A17B"/>
<path d="M44.9385 62.6074C44.9385 62.6231 44.986 62.6388 44.986 62.6545C44.9385 62.6231 45.2398 62.5603 44.9385 62.6074Z" fill="#45A17B"/>
<path d="M37.5813 39.2496C30.2872 26.7605 34.5685 10.7638 47.1588 3.52828C59.7491 -3.70721 75.8754 0.539711 83.1695 13.0288L37.5813 39.2496Z" fill="#4285F4"/>
<path d="M45.7316 72.9104C45.351 72.8947 45.0656 72.5801 45.0815 72.2183C45.0973 71.8566 45.4145 71.5577 45.7792 71.5734C46.1439 71.5892 46.4452 71.9038 46.4293 72.2655C46.4135 72.6273 46.1122 72.9104 45.7633 72.9104C45.7633 72.9104 45.7475 72.9104 45.7316 72.9104ZM53.438 72.1082C53.4063 71.7465 53.6758 71.4161 54.0564 71.3847C54.4211 71.3532 54.7541 71.6206 54.7858 71.9981C54.8175 72.3599 54.548 72.6902 54.1674 72.7217C54.1516 72.7217 54.1357 72.7217 54.1198 72.7217C53.771 72.7374 53.4697 72.47 53.438 72.1082ZM37.3592 71.9352C36.9945 71.8566 36.7567 71.5105 36.8201 71.1487C36.8835 70.787 37.2482 70.551 37.6129 70.6139C37.9776 70.6769 38.2155 71.0386 38.1521 71.4004C38.0886 71.715 37.8032 71.9509 37.4861 71.9509C37.4385 71.9352 37.3909 71.9352 37.3592 71.9352ZM29.193 69.7803C28.8441 69.6545 28.6539 69.277 28.7649 68.9309C28.8917 68.5849 29.2723 68.3961 29.6211 68.5062C29.97 68.6321 30.1603 69.0096 30.0493 69.3556C29.9541 69.6387 29.6845 69.8117 29.415 69.8117C29.3357 69.8275 29.2723 69.8118 29.193 69.7803ZM21.3915 66.5243C21.0585 66.3513 20.9475 65.9423 21.1219 65.612C21.2963 65.2817 21.7086 65.1716 22.0416 65.3446C22.3746 65.5176 22.4856 65.9266 22.3112 66.2569C22.1843 66.4771 21.9623 66.603 21.7244 66.603C21.6135 66.603 21.5025 66.5872 21.3915 66.5243Z" fill="#122032"/>
<path d="M103.545 107.798C103.593 107.813 103.577 107.656 103.577 107.625C103.498 107.656 103.545 107.829 103.545 107.798Z" fill="#303C4C"/>
<path d="M102.72 108.175L102.736 108.097L102.609 108.269L102.72 108.175Z" fill="#303C4C"/>
<path d="M101.943 108.175C102.023 108.458 102.229 108.128 102.356 108.222L102.371 108.285L102.435 108.065C102.276 108.097 102.07 108.254 101.943 108.175Z" fill="#303C4C"/>
<path d="M101.532 107.578C101.564 107.688 101.437 107.672 101.627 107.609C101.611 107.593 101.611 107.593 101.611 107.578C101.595 107.578 101.58 107.578 101.532 107.578Z" fill="#303C4C"/>
<path d="M101.611 107.577C101.689 107.577 101.563 107.499 101.611 107.577V107.577Z" fill="#303C4C"/>
<path d="M101.23 107.64L101.341 107.546C101.325 107.483 101.23 107.468 101.262 107.42C101.151 107.483 101.167 107.546 101.23 107.64Z" fill="#303C4C"/>
<path d="M101.135 107.845L101.182 107.798C101.182 107.782 101.166 107.767 101.135 107.845Z" fill="#303C4C"/>
<path d="M101.309 107.719L101.198 107.814C101.214 107.861 101.214 107.955 101.246 107.782C101.23 107.861 101.262 107.782 101.309 107.719Z" fill="#303C4C"/>
<path d="M101.372 107.766C101.435 107.829 101.515 107.861 101.404 107.955C101.61 107.923 101.578 107.719 101.372 107.766Z" fill="#303C4C"/>
<path d="M101.911 108.459L101.99 108.537L102.054 108.443C102.022 108.49 101.911 108.38 101.911 108.459Z" fill="#303C4C"/>
<path d="M100.563 107.499C100.563 107.562 100.595 107.656 100.611 107.735L100.69 107.672C100.659 107.625 100.579 107.593 100.563 107.499Z" fill="#303C4C"/>
<path d="M100.612 107.735L100.501 107.829C100.612 107.845 100.628 107.798 100.612 107.735Z" fill="#303C4C"/>
<path d="M101.119 108.159L101.309 107.939L101.087 108.159H101.119Z" fill="#303C4C"/>
<path d="M100.12 107.499L100.183 107.357L100.072 107.561L100.12 107.499Z" fill="#303C4C"/>
<path d="M99.8186 107.514C99.8661 107.404 99.7551 107.326 99.8027 107.247C99.7234 107.263 99.66 107.357 99.5966 107.452C99.66 107.42 99.7234 107.436 99.8186 107.514Z" fill="#303C4C"/>
<path d="M99.4863 107.593C99.518 107.562 99.5498 107.515 99.5973 107.468C99.5656 107.483 99.518 107.53 99.4863 107.593Z" fill="#303C4C"/>
<path d="M100.294 107.814C100.279 107.782 100.263 107.688 100.199 107.641L100.247 107.814C100.263 107.814 100.279 107.814 100.294 107.814Z" fill="#303C4C"/>
<path d="M100.247 107.814C100.199 107.798 100.167 107.798 100.151 107.798C100.167 107.798 100.199 107.798 100.247 107.814Z" fill="#303C4C"/>
<path d="M100.311 107.814C100.311 107.814 100.295 107.814 100.311 107.814C100.295 107.83 100.311 107.83 100.311 107.814Z" fill="#303C4C"/>
<path d="M100.802 108.002C100.739 108.097 100.596 108.191 100.723 108.332C100.786 108.238 100.707 108.144 100.802 108.002Z" fill="#303C4C"/>
<path d="M100.374 108.018L100.501 108.049C100.501 108.002 100.469 107.939 100.517 107.892L100.374 108.018Z" fill="#303C4C"/>
<path d="M100.311 108.065L100.374 108.018L100.326 108.002L100.311 108.065Z" fill="#303C4C"/>
<path d="M99.7076 107.751C99.6601 107.829 99.5966 107.829 99.5332 107.845C99.6125 107.876 99.6759 107.892 99.7552 107.892C99.7552 107.829 99.7869 107.735 99.7076 107.751Z" fill="#303C4C"/>
<path d="M99.9774 107.798C99.962 107.798 99.962 107.798 99.9774 107.798C99.962 107.813 99.9774 107.829 99.9774 107.798Z" fill="#303C4C"/>
<path d="M98.8672 107.845C98.8672 107.86 98.8672 107.86 98.8825 107.876C98.8825 107.86 98.8825 107.845 98.8672 107.845Z" fill="#303C4C"/>
<path d="M99.7551 107.924C99.8027 107.955 99.8344 107.908 99.8661 107.861C99.8185 107.877 99.7868 107.892 99.7393 107.892C99.7393 107.908 99.7393 107.924 99.7551 107.924Z" fill="#303C4C"/>
<path d="M99.3105 107.672C99.3423 107.703 99.374 107.735 99.4057 107.766C99.374 107.703 99.3105 107.625 99.3105 107.672Z" fill="#303C4C"/>
<path d="M99.9451 107.75C99.9297 107.72 99.9297 107.735 99.9451 107.75V107.75Z" fill="#303C4C"/>
<path d="M99.9455 107.751C99.9138 107.782 99.8979 107.814 99.8662 107.845C99.8979 107.829 99.9296 107.814 99.9613 107.782C99.9455 107.798 99.9455 107.767 99.9455 107.751Z" fill="#303C4C"/>
<path d="M98.6609 108.899C98.6768 108.742 98.8195 108.6 98.9305 108.773C99.0574 108.663 98.9781 108.144 98.8671 107.861C98.8671 107.924 98.8671 107.987 98.7402 108.081C98.7878 108.16 99.0098 108.286 98.9146 108.411C98.7561 108.49 98.7878 108.364 98.6927 108.27C98.7561 108.459 98.4865 108.553 98.5182 108.836L98.6609 108.742C98.6768 108.789 98.6134 108.868 98.6609 108.899Z" fill="#303C4C"/>
<path d="M99.105 107.876L99.1526 107.861C99.0892 107.829 99.0575 107.766 98.9782 107.656C98.8989 107.735 98.883 107.782 98.8672 107.845L99.1209 107.861L99.105 107.876Z" fill="#303C4C"/>
<path d="M99.39 107.861C99.3424 108.033 99.2314 108.096 99.2948 108.285C99.4375 108.269 99.4058 108.143 99.4851 108.065C99.2473 108.112 99.5485 107.971 99.3741 107.876C99.4217 107.845 99.4693 107.845 99.501 107.829C99.4534 107.814 99.4217 107.782 99.3741 107.751C99.3741 107.751 99.3741 107.751 99.3741 107.767C99.39 107.782 99.39 107.798 99.3741 107.782C99.4058 107.829 99.39 107.845 99.39 107.861C99.3265 107.829 99.3741 107.814 99.4058 107.798C99.4058 107.782 99.4058 107.782 99.4058 107.767L99.168 107.861C99.2155 107.892 99.279 107.876 99.39 107.861Z" fill="#303C4C"/>
<path d="M100.611 108.709C100.611 108.694 100.611 108.679 100.611 108.679C100.58 108.694 100.58 108.694 100.611 108.709Z" fill="#303C4C"/>
<path d="M100.5 108.6C100.516 108.584 100.532 108.505 100.595 108.521C100.643 108.568 100.595 108.6 100.595 108.662C100.627 108.615 100.722 108.537 100.611 108.458L100.595 108.474C100.5 108.411 100.373 108.207 100.389 108.191C100.421 108.348 100.437 108.458 100.5 108.6Z" fill="#303C4C"/>
<path d="M99.9454 108.27L99.7393 108.348L99.8344 108.49V108.395C99.9454 108.458 99.9295 108.348 99.9454 108.27Z" fill="#303C4C"/>
<path d="M98.8351 107.75L98.8669 107.578L98.7559 107.829L98.8351 107.75Z" fill="#303C4C"/>
<path d="M98.582 107.766L98.5978 107.625L98.5186 107.719L98.582 107.766Z" fill="#303C4C"/>
<path d="M83.7392 109.418L83.6758 109.465C83.7234 109.45 83.7392 109.434 83.7392 109.418Z" fill="#303C4C"/>
<path d="M84.1687 109.434L84.1845 109.355C84.1687 109.402 84.1528 109.434 84.1687 109.434Z" fill="#303C4C"/>
<path d="M92.1441 107.703C92.0649 107.562 91.9697 107.326 91.9697 107.499L91.9856 107.672C92.0649 107.64 92.1124 107.656 92.1441 107.703Z" fill="#303C4C"/>
<path d="M87.7041 108.6C87.7041 108.616 87.72 108.632 87.7358 108.647C87.7517 108.584 87.7834 108.537 87.7992 108.49C87.7675 108.537 87.7358 108.569 87.7041 108.6Z" fill="#303C4C"/>
<path d="M87.6403 109.308L87.5293 109.198C87.5452 109.229 87.5769 109.276 87.6403 109.308Z" fill="#303C4C"/>
<path d="M81.4081 109.591L81.3447 109.764C81.4399 109.764 81.3923 109.669 81.4081 109.591Z" fill="#303C4C"/>
<path d="M95.9012 107.813C95.8219 107.75 95.7744 107.719 95.7109 107.703C95.8061 107.798 95.8695 107.955 95.9012 107.813Z" fill="#303C4C"/>
<path d="M83.946 107.625C83.9143 107.656 83.8984 107.688 83.8984 107.719C83.9302 107.703 83.946 107.672 83.946 107.625Z" fill="#303C4C"/>
<path d="M95.5049 107.704C95.5207 107.719 95.5366 107.735 95.5366 107.751C95.5842 107.719 95.6476 107.704 95.711 107.719C95.6476 107.641 95.5683 107.594 95.5049 107.704Z" fill="#303C4C"/>
<path d="M72.9412 109.638L72.9258 109.622C72.9258 109.638 72.9258 109.638 72.9412 109.638Z" fill="#303C4C"/>
<path d="M70.373 108.049C70.4048 108.034 70.4365 108.034 70.4682 108.034C70.4682 108.018 70.4365 108.034 70.373 108.049Z" fill="#303C4C"/>
<path d="M97.5352 107.687C97.5814 107.687 97.5352 107.672 97.5352 107.687V107.687Z" fill="#303C4C"/>
<path d="M97.7883 108.364C97.7725 108.38 97.7725 108.411 97.7725 108.443C97.7725 108.411 97.7883 108.38 97.7883 108.364Z" fill="#303C4C"/>
<path d="M97.6152 107.766C97.5993 107.751 97.5676 107.735 97.5518 107.719C97.5518 107.735 97.5676 107.751 97.6152 107.766Z" fill="#303C4C"/>
<path d="M97.5986 107.688C97.6145 107.688 97.6303 107.703 97.6462 107.703C97.6621 107.672 97.6462 107.656 97.5986 107.688Z" fill="#303C4C"/>
<path d="M97.4561 107.703C97.4878 107.703 97.5195 107.703 97.5512 107.719C97.5353 107.703 97.5353 107.703 97.5353 107.688C97.5036 107.688 97.4878 107.703 97.4561 107.703Z" fill="#303C4C"/>
<path d="M77.4757 109.025C77.46 109.025 77.46 109.025 77.4757 109.025C77.3969 109.087 77.4285 109.072 77.4757 109.025Z" fill="#303C4C"/>
<path d="M90.4629 109.544C90.558 109.339 90.6056 109.355 90.669 109.402L90.6215 108.915L90.4629 109.544Z" fill="#303C4C"/>
<path d="M82.7252 109.465L82.8679 109.622C82.6935 109.874 82.5825 109.78 82.7094 110C82.7252 109.465 83.2485 109.953 83.2802 109.418L83.3753 109.528C83.3436 109.528 83.3436 109.56 83.3119 109.544C83.4863 109.795 83.4546 109.166 83.6766 109.245C83.7559 109.292 83.8193 109.371 83.7559 109.434L83.9303 109.308C83.9779 109.324 83.962 109.418 83.9145 109.402L84.184 109.371V109.387C84.2316 109.308 84.3109 109.182 84.3585 109.119C84.4219 109.198 84.3267 109.182 84.3426 109.245L84.5012 109.119C84.5646 109.261 84.4377 109.387 84.3267 109.371C84.4536 109.906 84.4536 109.245 84.7549 109.56L84.6122 109.622C84.7073 109.921 84.8183 109.811 84.9769 110C84.9452 109.906 84.6597 109.528 84.8342 109.387C84.8817 109.434 84.9452 109.449 85.0244 109.339C85.0244 109.528 85.1037 109.481 85.2147 109.481L85.1989 109.733C85.3099 109.67 85.3099 109.528 85.3892 109.418C85.516 109.449 85.5477 109.638 85.5636 109.795C85.7697 109.843 85.4209 109.481 85.6746 109.434C85.849 109.528 85.9759 109.434 86.182 109.292C86.3088 109.387 86.1503 109.449 86.1978 109.512L86.3088 109.308C86.3406 109.308 86.3247 109.371 86.3247 109.402C86.4198 109.324 86.3406 109.151 86.4833 109.088C86.5308 108.82 86.7687 109.497 86.959 109.182C87.0065 109.261 86.9273 109.339 86.9431 109.434C87.1968 109.229 87.1493 109.292 87.3554 109.025L87.5298 109.198C87.403 109.009 87.5774 108.789 87.7201 108.616C87.6725 108.521 87.6408 108.443 87.6091 108.411L87.8311 108.285C87.8628 108.333 87.8311 108.411 87.7994 108.521C87.8152 108.506 87.8311 108.474 87.847 108.458C87.9262 108.553 87.8787 108.694 87.8152 108.836C87.7835 108.789 87.7677 108.726 87.736 108.679C87.6725 108.836 87.625 108.993 87.625 109.135C87.6408 109.103 87.6725 109.088 87.7042 109.072C87.6884 109.119 87.6725 109.151 87.6884 109.182C87.6884 109.213 87.7201 109.151 87.7518 109.088L87.7994 109.371L87.8152 109.261L88.1007 109.434C88.3227 109.166 88.5129 108.757 88.8459 108.647C88.7508 108.852 88.8142 108.978 88.8142 109.213C88.7349 108.962 88.5605 109.308 88.3861 109.261C88.4812 109.292 88.4495 109.402 88.4336 109.449L88.7508 109.229C88.7349 109.434 88.8142 109.387 88.8935 109.465C88.8459 109.072 89.1313 109.213 89.2582 109.088C89.2582 109.213 89.2265 109.355 89.0838 109.324C89.2423 109.622 89.3058 108.867 89.4643 109.119C89.4326 109.119 89.4009 109.103 89.3851 109.166C89.4802 109.056 89.6863 109.151 89.6388 109.261H89.6071C89.8608 109.308 90.3523 109.276 90.3999 108.946C90.3999 108.993 90.3523 109.339 90.3365 109.418L90.8122 108.317C90.7646 108.6 90.9073 109.276 90.6853 109.434C90.7487 109.481 90.8122 109.528 90.939 109.434C90.9073 109.387 90.8439 109.025 90.9073 108.993C91.05 109.308 91.0024 109.166 91.1927 109.434C91.1293 109.371 91.2086 108.93 91.3037 108.946C91.2879 109.009 91.3037 109.387 91.272 109.434L91.5257 108.993C91.4623 109.072 91.5099 109.371 91.5574 109.497C91.5416 109.402 91.7636 109.512 91.827 109.465L91.7319 109.355C92.0014 109.434 92.0173 108.742 92.271 108.773C92.2393 108.867 92.1758 109.324 92.3186 109.387C92.382 109.166 92.6198 108.317 92.8577 108.144L92.9053 108.27L93.0955 108.128C92.9845 108.458 92.6516 109.166 92.4613 109.434C92.5564 109.544 92.493 109.591 92.6357 109.575C92.6833 109.701 92.5564 109.748 92.5088 109.764L92.8577 109.843C92.8418 109.575 93.1273 109.591 93.1273 109.371L92.7467 109.638C92.7308 109.371 92.9845 108.899 93.2224 108.946C93.2858 109.056 93.159 109.418 93.1748 109.497C93.2065 109.402 93.4127 109.324 93.4285 109.387L93.3175 109.528C93.4603 109.622 93.5554 109.182 93.714 109.434C93.7774 109.449 93.8725 109.78 93.8884 109.622C93.7932 109.324 93.7932 108.396 93.8725 108.175C93.8884 108.191 94.1738 108.474 94.2214 108.616C94.3165 108.852 94.0628 109.166 94.1421 109.371C94.1421 109.292 94.2055 109.213 94.2214 109.182C94.2848 109.245 94.1897 109.402 94.3165 109.371C94.3482 109.103 94.5861 109.402 94.3799 109.151C94.5068 109.072 94.5068 109.213 94.6654 109.198C94.6178 109.025 94.8081 108.616 94.9349 108.537C94.9191 108.6 94.9508 108.694 94.9666 108.726C95.2203 108.757 95.3631 108.883 95.6168 108.883C95.6326 108.946 95.7595 109.025 95.6961 109.135C95.7278 109.088 95.7595 108.993 95.8388 108.993C95.9815 109.229 95.6643 109.025 95.7753 109.308C95.7912 109.151 95.9656 109.103 96.0766 109.009C96.0449 108.773 95.8229 108.962 95.7278 109.056C95.7278 108.726 95.9181 108.38 96.1718 108.238C96.3779 108.16 96.251 108.458 96.2986 108.411C96.6792 108.474 96.6316 107.845 96.9329 108.081C97.0597 108.285 96.9329 108.49 96.9646 108.647C96.806 108.726 96.7109 108.506 96.5999 108.521L96.7426 108.616C96.695 108.679 96.584 108.742 96.5206 108.679C96.6157 108.867 97.1549 108.726 97.4562 108.899C97.5037 108.836 97.5989 108.757 97.5513 108.679L97.4562 108.71C97.3769 108.537 97.6306 108.474 97.5196 108.396C97.6464 108.285 97.7892 108.097 97.9636 108.191L97.9953 108.427C97.9953 108.364 97.8843 108.285 97.8367 108.364C97.916 108.254 98.1063 108.694 98.1856 108.38L98.0587 108.207C98.1856 108.081 98.3441 107.829 98.4868 107.908C98.4234 107.672 98.4551 107.939 98.3441 107.656C98.4393 108.002 97.9477 107.641 98.1063 108.002C97.9953 107.688 97.916 107.861 97.7733 107.593C97.7733 107.672 97.8209 107.751 97.694 107.703C97.694 107.719 97.6781 107.751 97.6623 107.766C97.6623 107.766 97.6623 107.766 97.6464 107.766V107.782C97.6464 107.798 97.6464 107.798 97.6464 107.782C97.6782 107.814 97.694 107.861 97.7099 107.908C97.6464 108.081 97.4403 108.081 97.361 108.175C97.2817 108.144 97.3927 108.081 97.3452 108.002L97.2342 108.144C97.2183 107.971 97.028 107.845 97.2183 107.751L97.0597 107.735C96.9646 107.641 96.8377 107.593 96.7426 107.672C96.6633 107.641 96.5523 107.861 96.6157 107.735L96.3462 107.829V107.782C96.0925 107.751 95.8229 108.065 95.5375 107.751C95.4582 107.798 95.3631 107.845 95.2204 107.798L95.1886 107.641C95.0776 107.688 94.8556 107.483 94.8081 107.641C94.6971 107.232 94.2848 107.546 94.0945 107.468L94.0787 107.672C93.9518 107.656 93.825 107.719 93.6505 107.782V107.955C93.5078 108.097 93.2858 107.829 93.0638 107.845C93.0797 107.782 93.1431 107.798 93.1748 107.845C92.9211 107.452 92.604 108.128 92.3661 107.829C92.3027 107.892 92.2551 107.876 92.2234 107.829C92.2234 107.829 92.2393 107.829 92.2393 107.814C92.2393 107.814 92.2234 107.814 92.2076 107.814C92.1759 107.782 92.16 107.751 92.1283 107.719C92.16 107.766 92.1758 107.798 92.1917 107.814C92.1441 107.814 92.0807 107.829 92.0014 107.876L91.9697 107.688H91.9539C91.8904 107.625 91.8904 107.782 91.938 107.924C91.9063 107.955 91.8746 107.987 91.8429 108.034C91.7953 107.735 91.6526 108.128 91.5891 107.814C91.5416 107.971 91.2403 107.924 91.1927 108.254C91.1927 108.207 91.1769 108.191 91.2086 108.191C91.1293 108.144 91.05 108.112 90.9866 108.207L90.9549 107.971L90.7805 108.285C90.6853 108.144 90.6377 108.05 90.7487 107.876C90.495 108.16 90.5426 107.971 90.3365 108.254L90.3523 108.097C90.273 108.097 90.1462 108.301 90.1145 108.175C89.9559 107.876 89.2899 108.112 88.8618 107.829C88.9411 108.285 88.6715 107.625 88.6398 107.971C88.6239 107.861 88.5605 107.798 88.6239 107.703C88.4019 107.798 88.2909 107.53 88.1324 107.814C88.1165 107.703 88.1799 107.656 88.1641 107.593C88.1482 107.609 88.0848 107.688 88.0689 107.625C88.0531 107.562 88.1007 107.53 88.1324 107.483C87.9104 107.499 87.8787 107.829 87.847 108.144C87.736 107.987 87.6725 108.018 87.5932 108.223C87.5615 108.112 87.4981 108.018 87.625 107.987C87.5457 107.971 87.1493 107.829 87.1334 108.081C87.1175 108.018 87.0224 108.065 87.0065 108.081C86.8321 108.065 86.8163 108.034 86.6418 108.065L86.6894 108.112C86.6101 108.411 86.5467 108.175 86.404 108.207V108.175C86.0868 107.955 86.2613 108.27 85.96 108.018L85.9758 108.207C85.9441 108.616 85.7063 107.971 85.516 108.112L85.5794 108.223C85.4843 108.364 85.3099 107.672 85.2147 107.625C85.1989 107.593 85.2464 107.562 85.2782 107.546C85.0244 107.31 85.2464 107.798 85.0403 107.845C85.0086 107.719 85.0879 107.515 84.961 107.483C84.8976 107.373 84.5646 107.908 84.3902 107.656C84.4219 107.766 84.4695 107.861 84.3743 107.939C84.2316 107.971 83.9938 107.546 83.8669 107.876C83.851 107.845 83.8352 107.829 83.8352 107.798C83.7242 107.876 83.4863 107.924 83.4229 108.097C83.3278 107.452 82.7569 108.396 82.7569 107.814L82.4239 107.845L82.4398 107.782C82.2336 107.735 82.1544 107.892 82.0751 108.034C82.0275 107.987 82.0592 107.939 82.0592 107.908C81.758 107.782 81.7262 107.814 81.4567 108.112L81.425 107.924C81.3615 108.034 80.981 107.625 80.6797 107.845C80.6797 107.829 80.6955 107.782 80.7114 107.751C80.3784 107.987 79.9027 107.216 79.7759 107.924L79.5539 108.097C79.8393 108.144 79.5063 108.396 79.6331 108.521C79.5221 108.569 79.3319 108.317 79.4746 108.27L79.4904 108.301C79.538 107.939 79.1257 108.175 79.1416 107.924C78.5707 107.939 78.0157 107.751 77.4766 107.751L77.54 108.034L77.3498 108.018C77.3022 107.955 77.2863 107.798 77.4132 107.798C77.3339 107.641 77.1912 107.939 77.1912 108.002C76.9216 107.892 77.2863 107.672 77.2071 107.656L77.0961 107.672L77.1278 107.703C77.0485 107.829 77.0326 107.939 76.8741 107.939C76.7789 107.876 76.8106 107.766 76.7789 107.751C76.7789 107.735 76.7631 107.719 76.7155 107.751L76.4776 107.735L76.5728 107.955C76.4776 108.065 76.3508 107.955 76.4618 108.207C76.2874 107.814 75.5897 108.097 75.4787 107.971C75.336 108.144 75.1932 108.144 75.0188 108.128C75.0664 108.175 75.0981 108.427 74.9395 108.396C74.9712 107.876 74.6541 108.175 74.5114 107.798C74.6383 108.05 74.0833 107.876 74.2577 108.223C74.1308 108.191 74.2418 108.034 74.1467 107.908C73.8454 108.128 73.4649 107.798 73.1001 107.892C73.1001 107.955 73.1636 108.065 73.0843 108.175L72.8782 107.845C72.7989 107.876 72.8306 108.238 72.6879 108.018C72.7037 108.081 72.7354 108.16 72.6879 108.191C71.9267 107.892 71.1973 108.537 70.4204 107.955C70.5314 108.081 70.4679 108.097 70.3886 108.112C70.4362 108.144 70.4045 108.285 70.4045 108.38L70.0715 108.144C70.0239 108.411 69.7385 108.175 69.7227 108.427L69.8178 108.38C69.7068 108.679 70.0398 109.009 70.0398 109.387C70.1666 109.04 70.4521 109.858 70.6741 109.371C70.7375 109.449 70.6423 109.497 70.6741 109.575C70.7216 109.418 70.8009 109.371 70.9436 109.434L70.9278 109.481C71.3083 109.418 71.4828 109.575 71.9267 109.654L71.8792 109.465C71.9743 109.481 71.9902 109.544 72.0377 109.591C72.1329 109.308 71.784 109.591 71.8633 109.276C72.006 109.638 72.5134 109.245 72.6244 109.67C72.7672 109.67 72.5769 109.465 72.7196 109.449L72.7672 109.56L72.7989 109.402C72.894 109.418 72.9416 109.56 72.9574 109.67C72.9416 109.654 72.894 109.701 72.8782 109.717C73.005 109.843 73.2111 109.654 73.2587 109.701L73.116 109.638C73.4966 109.512 73.9881 109.638 74.3528 109.402L74.3211 109.324C74.6065 109.151 74.559 109.418 74.8603 109.324L74.8444 109.339C74.9078 109.245 74.9871 109.198 75.0664 109.213C74.9871 109.324 75.225 109.402 75.1298 109.528C75.4311 109.339 75.2725 109.387 75.4787 109.056L75.5262 109.198C75.5897 109.072 75.5897 108.993 75.7482 108.946C75.6214 109.072 75.8592 109.166 75.7165 109.324C76.0495 109.622 76.1922 108.993 76.3666 109.449C76.5094 109.04 76.0812 109.229 76.1605 109.151C76.0812 109.025 76.2715 108.852 76.3825 108.883C76.4935 108.883 76.5728 109.387 76.8423 109.371C76.8106 109.371 76.8106 109.402 76.7948 109.402C76.8899 109.497 76.9851 109.261 77.1119 109.418C77.1753 109.182 77.2705 109.434 77.2863 109.119L77.0485 109.198C77.1912 109.119 77.3022 108.757 77.54 108.915C77.5242 108.978 77.4608 109.056 77.4132 109.103C77.4766 109.198 77.54 109.04 77.6035 109.135C77.5876 109.449 77.3022 109.213 77.1595 109.449C77.2388 109.575 77.429 109.213 77.3656 109.56C77.4608 109.135 77.6352 109.607 77.7938 109.276L77.7779 109.465C77.8096 109.434 77.8572 109.355 77.9206 109.355L77.8255 109.591C77.9682 109.387 78.1109 109.764 78.2536 109.654C77.9682 109.67 78.1902 109.434 78.0633 109.292C78.428 109.04 78.2853 109.78 78.6817 109.67C78.6342 109.701 78.4756 109.56 78.5549 109.481C78.6342 109.512 78.7293 109.591 78.7769 109.685C79.0464 109.638 78.7293 109.497 78.8403 109.387C78.9354 109.607 78.9672 109.292 79.094 109.213V109.402C79.3953 109.528 79.1733 109.009 79.4429 109.151L79.3319 109.418L79.4746 109.355L79.4429 109.575C79.6014 109.418 79.649 109.449 79.7917 109.512C79.76 109.387 79.8076 109.166 79.9503 109.166C80.0454 109.276 79.9027 109.339 80.093 109.324C80.0454 109.434 79.9978 109.591 79.9186 109.418C79.9027 109.481 79.871 109.544 79.871 109.591C79.9661 109.717 80.1247 109.622 80.1881 109.622C80.1564 109.622 80.1247 109.607 80.1088 109.575L80.3784 109.308C80.426 109.371 80.3943 109.434 80.3467 109.497C80.4101 109.481 80.4418 109.387 80.5211 109.371C80.5053 109.528 80.5053 109.685 80.3943 109.748L80.6638 109.575C80.6797 109.638 80.8065 109.764 80.759 109.811C80.9017 109.906 81.1237 109.512 81.314 109.638C81.3298 109.607 81.3457 109.575 81.3932 109.56C81.5835 109.591 81.7421 109.78 81.9482 109.575L82.0751 109.843C82.2495 109.78 81.9165 109.497 82.1861 109.402C82.3922 109.308 82.2654 109.638 82.3288 109.717C82.4239 109.575 82.5984 109.292 82.7886 109.528C82.8204 109.481 82.7728 109.434 82.7252 109.465ZM84.8183 109.371C84.7707 109.402 84.6914 109.528 84.6597 109.418C84.7073 109.198 84.7549 109.308 84.8183 109.371ZM88.0055 108.978C87.9738 109.04 87.9262 109.009 87.8787 108.93C87.9262 108.915 87.958 108.93 88.0055 108.978ZM96.917 107.845C96.8219 107.782 96.8536 107.798 96.917 107.845V107.845ZM97.1073 107.924C97.1232 107.892 97.1232 107.876 97.1232 107.845C97.1073 107.892 97.0597 107.892 97.0122 107.876C97.028 107.924 97.0439 107.971 97.1073 107.924ZM76.8423 107.782L76.8741 107.829C76.7948 107.876 76.8265 107.829 76.8423 107.782Z" fill="#303C4C"/>
<path d="M87.6405 109.229C87.6247 109.198 87.6247 109.166 87.6247 109.119C87.6088 109.151 87.6088 109.198 87.6405 109.229Z" fill="#303C4C"/>
<path d="M81.4235 109.56C81.4082 109.575 81.4082 109.575 81.4082 109.59L81.4235 109.56Z" fill="#303C4C"/>
<path d="M94.1574 109.481C94.1257 109.449 94.094 109.418 94.0781 109.386C94.094 109.434 94.1098 109.465 94.1574 109.481Z" fill="#303C4C"/>
<path d="M98.1054 107.609L97.9785 107.656C98.0419 107.641 98.0578 107.688 98.0895 107.719C98.0895 107.672 98.0578 107.609 98.1054 107.609Z" fill="#303C4C"/>
<path d="M99.1364 108.773C99.1523 108.757 99.1681 108.773 99.184 108.741V108.647C99.1205 108.679 99.073 108.741 99.1364 108.773Z" fill="#303C4C"/>
<path d="M98.2168 108.238C98.2327 108.395 98.2961 108.348 98.3912 108.317H98.3754C98.3912 108.097 98.2961 108.16 98.2168 108.238Z" fill="#303C4C"/>
<path d="M98.3916 108.301C98.4233 108.301 98.4392 108.285 98.4709 108.301C98.4867 108.223 98.4392 108.285 98.3916 108.301Z" fill="#303C4C"/>
<path d="M97.3444 107.813C97.3761 107.86 97.3761 107.609 97.3919 107.672C97.4395 107.484 97.1224 107.923 97.3444 107.813Z" fill="#303C4C"/>
<path d="M98.2805 108.757L98.2487 108.569L98.2012 108.726L98.2805 108.757Z" fill="#303C4C"/>
<path d="M97.6143 108.616L97.7411 108.679C97.7411 108.647 97.757 108.632 97.7728 108.616C97.6935 108.6 97.6143 108.553 97.6143 108.616Z" fill="#303C4C"/>
<path d="M97.7725 108.6C97.82 108.6 97.8517 108.6 97.8835 108.569C97.8676 108.569 97.82 108.569 97.7725 108.6Z" fill="#303C4C"/>
<path d="M98.0907 108.82L98.059 108.773L97.9639 108.757L98.0907 108.82Z" fill="#303C4C"/>
<path d="M96.1555 108.553L96.0128 108.6C95.997 108.663 96.0287 108.71 96.0921 108.679C96.1238 108.647 96.1872 108.631 96.1555 108.553Z" fill="#303C4C"/>
<path d="M96.5996 109.103C96.5678 109.056 96.552 109.025 96.5361 108.962V109.197L96.5996 109.103Z" fill="#303C4C"/>
<path d="M96.1724 109.151C96.1566 109.214 95.9504 109.339 96.1407 109.323C96.1566 109.261 96.2993 109.214 96.1724 109.151Z" fill="#303C4C"/>
<path d="M93.9512 108.804H93.9829V108.411L93.9512 108.804Z" fill="#303C4C"/>
<path d="M91.9691 109.716C92.1435 109.811 92.0167 109.465 92.1752 109.591C92.2228 109.497 92.0484 109.497 92.096 109.418C91.985 109.512 91.9215 109.465 91.9691 109.716Z" fill="#303C4C"/>
<path d="M92.0801 109.418C92.0958 109.402 92.1116 109.386 92.1274 109.355C92.1116 109.386 92.0958 109.402 92.0801 109.418Z" fill="#303C4C"/>
<path d="M69.9599 107.861L69.833 107.782L69.9123 107.924L69.9599 107.861Z" fill="#303C4C"/>
<path d="M69.7543 108.175L69.7067 107.924L69.6592 108.159C69.6909 108.144 69.7385 108.112 69.7543 108.175Z" fill="#303C4C"/>
<path d="M85.1193 109.874L85.1352 109.811C85.1193 109.748 85.0876 109.733 85.04 109.733L85.1193 109.874Z" fill="#303C4C"/>
<path d="M83.5969 109.669H83.6286L83.5811 109.45L83.5969 109.669Z" fill="#303C4C"/>
<path d="M82.3286 109.952C82.3762 109.968 82.4396 109.905 82.4872 109.921C82.3762 109.952 82.3127 109.67 82.3286 109.952Z" fill="#303C4C"/>
<path d="M81.6623 88.0577C100.412 88.0577 115.612 72.9802 115.612 54.3812C115.612 35.7822 100.412 20.7047 81.6623 20.7047C62.9125 20.7047 47.7129 35.7822 47.7129 54.3812C47.7129 72.9802 62.9125 88.0577 81.6623 88.0577Z" fill="white"/>
<path d="M81.6624 89.9924C72.0691 89.9924 63.0624 86.296 56.2757 79.5639C49.489 72.8317 45.7627 63.8975 45.7627 54.3812C45.7627 44.865 49.489 35.9307 56.2757 29.1986C63.0624 22.4664 72.0691 18.77 81.6624 18.77C91.2558 18.77 100.262 22.4664 107.049 29.1986C113.836 35.9307 117.562 44.865 117.562 54.3812C117.562 63.8975 113.836 72.8317 107.049 79.5639C100.262 86.296 91.2558 89.9924 81.6624 89.9924ZM81.6624 22.6237C64.0138 22.6237 49.6476 36.8745 49.6476 54.3812C49.6476 71.888 64.0138 86.1387 81.6624 86.1387C99.311 86.1387 113.677 71.888 113.677 54.3812C113.677 36.8745 99.311 22.6237 81.6624 22.6237Z" fill="#4FC3F7"/>
<path d="M110.504 53.5161C110.409 53.5161 110.346 53.5948 110.346 53.6734C110.346 53.9093 110.362 54.1453 110.362 54.3812C110.362 54.6172 110.362 54.8531 110.346 55.089C110.346 55.1834 110.409 55.2463 110.504 55.2463H113.866C113.961 55.2463 114.024 55.1834 114.024 55.089V53.6734C114.024 53.579 113.961 53.5161 113.866 53.5161H110.504Z" fill="#4D50A2"/>
<path d="M81.6612 25.9267C81.899 25.9267 82.1369 25.9267 82.3747 25.9424C82.4699 25.9424 82.5333 25.8795 82.5333 25.7851V22.4505C82.5333 22.3561 82.4699 22.2932 82.3747 22.2932H80.9476C80.8525 22.2932 80.7891 22.3561 80.7891 22.4505V25.7851C80.7891 25.8795 80.8683 25.9424 80.9476 25.9424C81.1855 25.9267 81.4233 25.9267 81.6612 25.9267Z" fill="#4D50A2"/>
<path d="M52.9764 54.3812C52.9764 54.1453 52.9764 53.9093 52.9923 53.6734C52.9923 53.579 52.9288 53.5161 52.8337 53.5161H49.472C49.3769 53.5161 49.3135 53.579 49.3135 53.6734V55.089C49.3135 55.1834 49.3769 55.2463 49.472 55.2463H52.8337C52.9288 55.2463 52.9923 55.1677 52.9923 55.089C52.9764 54.8531 52.9764 54.6172 52.9764 54.3812Z" fill="#4D50A2"/>
<path d="M102.672 34.7665L105.05 32.4071C105.114 32.3442 105.114 32.2499 105.05 32.1869L104.051 31.196C103.988 31.1331 103.893 31.1331 103.829 31.196L101.451 33.5554C101.387 33.6183 101.387 33.7127 101.451 33.7756C101.8 34.1059 102.133 34.4362 102.45 34.7665C102.497 34.8295 102.608 34.8295 102.672 34.7665Z" fill="#4D50A2"/>
<path d="M61.8873 33.5554L59.5088 31.196C59.4454 31.1331 59.3502 31.1331 59.2868 31.196L58.2878 32.1869C58.2244 32.2499 58.2244 32.3442 58.2878 32.4071L60.6663 34.7665C60.7297 34.8295 60.8249 34.8295 60.8883 34.7665C61.2213 34.4205 61.5543 34.0902 61.8873 33.7756C61.9507 33.7127 61.9507 33.6026 61.8873 33.5554Z" fill="#4D50A2"/>
<path d="M101.434 75.2223L103.813 77.5817C103.876 77.6447 103.971 77.6447 104.035 77.5817L105.034 76.5908C105.097 76.5279 105.097 76.4335 105.034 76.3706L102.655 74.0112C102.592 73.9483 102.497 73.9483 102.433 74.0112C102.1 74.3572 101.767 74.6875 101.434 75.0021C101.371 75.0493 101.371 75.1594 101.434 75.2223Z" fill="#4D50A2"/>
<path d="M60.6517 73.9956L58.2732 76.355C58.2097 76.4179 58.2097 76.5122 58.2732 76.5752L59.2721 77.5661C59.3356 77.629 59.4307 77.629 59.4941 77.5661L61.8726 75.2067C61.9361 75.1438 61.9361 75.0494 61.8726 74.9865C61.5238 74.6562 61.1908 74.3259 60.8737 73.9956C60.8261 73.9326 60.7151 73.9326 60.6517 73.9956Z" fill="#4D50A2"/>
<path d="M81.6612 82.8353C81.4233 82.8353 81.1855 82.8353 80.9476 82.8196C80.8525 82.8196 80.7891 82.8825 80.7891 82.9769V86.3115C80.7891 86.4059 80.8525 86.4688 80.9476 86.4688H82.3747C82.4699 86.4688 82.5333 86.4059 82.5333 86.3115V82.9769C82.5333 82.8825 82.454 82.8196 82.3747 82.8196C82.1369 82.8353 81.899 82.8353 81.6612 82.8353Z" fill="#4D50A2"/>
<path d="M81.7103 108.49C86.8509 108.49 91.0182 104.356 91.0182 99.257C91.0182 94.1577 86.8509 90.0239 81.7103 90.0239C76.5696 90.0239 72.4023 94.1577 72.4023 99.257C72.4023 104.356 76.5696 108.49 81.7103 108.49Z" fill="#39C3CA"/>
<path d="M118.434 26.2571C119.792 26.2571 120.892 25.1655 120.892 23.819C120.892 22.4725 119.792 21.381 118.434 21.381C117.077 21.381 115.977 22.4725 115.977 23.819C115.977 25.1655 117.077 26.2571 118.434 26.2571Z" fill="#F8C83E"/>
<path d="M104.004 11.5346L105.939 17.7477C105.955 17.8263 105.891 17.8893 105.812 17.8735L99.5643 15.9231C99.5009 15.9074 99.4692 15.813 99.5326 15.7658L103.846 11.5031C103.909 11.456 103.988 11.4717 104.004 11.5346Z" fill="#F76159"/>
<path d="M131.326 60.7045L127.853 63.3627C127.822 63.3784 127.79 63.3784 127.774 63.347L125.094 59.9023C125.079 59.8708 125.079 59.8393 125.11 59.8236L128.583 57.1654C128.615 57.1496 128.646 57.1496 128.662 57.1811L131.342 60.6258C131.358 60.6573 131.342 60.6887 131.326 60.7045Z" fill="#FA9377"/>
<path d="M123.524 42.0179L125.57 44.4559L128.71 43.9054L129.804 40.9326L127.758 38.5103L124.619 39.0451L123.524 42.0179Z" fill="#303178"/>
<path d="M96.8856 69.3239L80.458 54.7271C80.3946 54.6642 80.3787 54.5541 80.458 54.4912L91.7797 43.7795C91.8431 43.7166 91.9541 43.7166 92.0017 43.7795L92.6518 44.4559C92.7153 44.5188 92.7153 44.6289 92.6518 44.6761L82.3132 54.444C82.2498 54.5069 82.2498 54.617 82.3132 54.6799L97.7101 68.3644C97.7736 68.4273 97.7894 68.5217 97.726 68.5846L97.0917 69.2767C97.0442 69.3711 96.949 69.3868 96.8856 69.3239Z" fill="#122032"/>
<path d="M81.663 58.4865C83.9487 58.4865 85.8017 56.6484 85.8017 54.3811C85.8017 52.1138 83.9487 50.2758 81.663 50.2758C79.3773 50.2758 77.5244 52.1138 77.5244 54.3811C77.5244 56.6484 79.3773 58.4865 81.663 58.4865Z" fill="#122032"/>
</svg>
