<svg width="150" height="110" viewBox="0 0 150 110" fill="none" xmlns="http://www.w3.org/2000/svg">
<path d="M11.5654 84.5981C11.5654 58.439 33.026 37.2412 59.5093 37.2412C85.9926 37.2412 107.453 58.439 107.453 84.5981H11.5654Z" fill="#E417B7"/>
<path d="M136.934 83.3256C137.13 83.3417 137.049 83.1645 137.081 83.1323C136.771 83.1806 136.951 83.3739 136.934 83.3256Z" fill="#303C4C"/>
<path d="M133.738 83.7607L133.803 83.6802L133.33 83.8574L133.738 83.7607Z" fill="#303C4C"/>
<path d="M130.754 83.7443C131.031 84.0504 131.83 83.696 132.368 83.8088L132.45 83.8732L132.694 83.6316C132.059 83.6799 131.211 83.841 130.754 83.7443Z" fill="#303C4C"/>
<path d="M129.156 83.084C129.254 83.1967 128.814 83.1806 129.531 83.1162C129.498 83.1001 129.482 83.1001 129.466 83.084C129.401 83.1001 129.319 83.1001 129.156 83.084Z" fill="#303C4C"/>
<path d="M129.466 83.084C129.776 83.084 129.254 82.9873 129.466 83.084V83.084Z" fill="#303C4C"/>
<path d="M128.015 83.1483L128.422 83.0356C128.341 82.9712 127.966 82.9551 128.096 82.8906C127.688 82.9712 127.77 83.0356 128.015 83.1483Z" fill="#303C4C"/>
<path d="M127.623 83.3737L127.835 83.3254C127.802 83.3093 127.737 83.2932 127.623 83.3737Z" fill="#303C4C"/>
<path d="M128.291 83.2451L127.834 83.3418C127.899 83.3901 127.899 83.4867 128.046 83.3095C127.997 83.3901 128.095 83.3095 128.291 83.2451Z" fill="#303C4C"/>
<path d="M128.553 83.2936C128.781 83.358 129.091 83.4063 128.667 83.503C129.45 83.4546 129.336 83.2452 128.553 83.2936Z" fill="#303C4C"/>
<path d="M130.607 84.0667L130.917 84.1633L131.194 84.0667C131.047 84.0989 130.574 83.97 130.607 84.0667Z" fill="#303C4C"/>
<path d="M125.421 82.9873C125.389 83.0517 125.552 83.1645 125.584 83.245L125.894 83.1645C125.748 83.1162 125.454 83.084 125.421 82.9873Z" fill="#303C4C"/>
<path d="M125.601 83.2451L125.145 83.3579C125.552 83.374 125.617 83.3095 125.601 83.2451Z" fill="#303C4C"/>
<path d="M127.541 83.7121L128.291 83.4866L127.395 83.7282L127.541 83.7121Z" fill="#303C4C"/>
<path d="M123.677 82.9711L123.938 82.8101L123.465 83.0356L123.677 82.9711Z" fill="#303C4C"/>
<path d="M122.519 82.9872C122.715 82.8583 122.258 82.7778 122.454 82.6973C122.144 82.7134 121.867 82.8261 121.622 82.9228C121.883 82.8583 122.16 82.8744 122.519 82.9872Z" fill="#303C4C"/>
<path d="M121.214 83.0517C121.344 83.0195 121.475 82.9712 121.622 82.9067C121.491 82.939 121.344 82.9873 121.214 83.0517Z" fill="#303C4C"/>
<path d="M124.362 83.3095C124.329 83.2773 124.264 83.1645 124.003 83.1162L124.182 83.2934C124.231 83.3095 124.297 83.3095 124.362 83.3095Z" fill="#303C4C"/>
<path d="M124.183 83.3093C123.987 83.2932 123.84 83.2932 123.791 83.2932C123.84 83.2932 123.954 83.3093 124.183 83.3093Z" fill="#303C4C"/>
<path d="M124.394 83.3096C124.378 83.3096 124.362 83.3096 124.346 83.3096C124.378 83.3256 124.378 83.3416 124.394 83.3096Z" fill="#303C4C"/>
<path d="M126.334 83.551C126.057 83.6477 125.502 83.7604 126.041 83.9215C126.236 83.7926 125.926 83.696 126.334 83.551Z" fill="#303C4C"/>
<path d="M124.623 83.551L125.112 83.5993C125.096 83.551 125.014 83.4866 125.145 83.4221L124.623 83.551Z" fill="#303C4C"/>
<path d="M124.379 83.5993L124.624 83.551L124.444 83.5349L124.379 83.5993Z" fill="#303C4C"/>
<path d="M122.047 83.229C121.835 83.3095 121.607 83.3095 121.346 83.3257C121.623 83.3579 121.916 83.3901 122.194 83.3901C122.226 83.3257 122.357 83.229 122.047 83.229Z" fill="#303C4C"/>
<path d="M123.088 83.2932C123.072 83.2932 123.056 83.2932 123.04 83.3092C123.072 83.3092 123.088 83.3253 123.088 83.2932Z" fill="#303C4C"/>
<path d="M118.784 83.3096C118.8 83.3257 118.816 83.3257 118.833 83.3418C118.833 83.3257 118.833 83.3257 118.849 83.3096H118.784Z" fill="#303C4C"/>
<path d="M122.242 83.4221C122.454 83.4543 122.584 83.4221 122.699 83.3577C122.535 83.3738 122.372 83.3899 122.193 83.3899C122.177 83.406 122.16 83.4221 122.242 83.4221Z" fill="#303C4C"/>
<path d="M120.497 83.1323C120.611 83.1645 120.725 83.1967 120.856 83.229C120.758 83.1806 120.546 83.084 120.497 83.1323Z" fill="#303C4C"/>
<path d="M122.975 83.2451C122.991 83.2451 122.991 83.2451 123.007 83.2451C122.926 83.1968 122.942 83.2129 122.975 83.2451Z" fill="#303C4C"/>
<path d="M122.976 83.2451C122.861 83.2773 122.78 83.3095 122.698 83.3579C122.829 83.3418 122.943 83.3257 123.041 83.2934C123.008 83.2934 122.992 83.2612 122.976 83.2451Z" fill="#303C4C"/>
<path d="M118.003 84.4693C118.036 84.2922 118.59 84.1472 119.063 84.3405C119.536 84.2116 119.226 83.664 118.818 83.3418C118.802 83.4223 118.802 83.4868 118.313 83.5834C118.476 83.6801 119.373 83.8089 118.965 83.9539C118.329 84.0344 118.443 83.8895 118.133 83.7928C118.394 84.0022 117.318 84.0989 117.449 84.4049L118.003 84.2922C118.052 84.3566 117.84 84.4371 118.003 84.4693Z" fill="#303C4C"/>
<path d="M119.746 83.3578L119.942 83.3417C119.714 83.3095 119.551 83.2451 119.257 83.1001C118.931 83.1806 118.866 83.2451 118.833 83.2934L119.811 83.3256L119.746 83.3578Z" fill="#303C4C"/>
<path d="M120.839 83.3576C120.676 83.5348 120.203 83.6154 120.497 83.8248C121.084 83.8087 120.905 83.6798 121.247 83.5992C120.301 83.6315 121.524 83.5026 120.839 83.3898C121.019 83.3576 121.198 83.3576 121.345 83.3415C121.182 83.3254 121.019 83.2932 120.856 83.261C120.872 83.261 120.872 83.261 120.872 83.2771C120.905 83.2932 120.921 83.3093 120.872 83.3093H120.856C120.872 83.3093 120.856 83.3254 120.839 83.3576C120.562 83.3093 120.79 83.3093 120.888 83.2932C120.888 83.2771 120.905 83.2771 120.905 83.261L119.942 83.3415C120.138 83.3737 120.399 83.3737 120.839 83.3576Z" fill="#303C4C"/>
<path d="M125.552 84.3081C125.519 84.292 125.519 84.2759 125.519 84.2598C125.455 84.292 125.439 84.3081 125.552 84.3081Z" fill="#303C4C"/>
<path d="M125.162 84.1954C125.227 84.1632 125.292 84.0988 125.504 84.1149C125.7 84.1793 125.504 84.1954 125.52 84.2598C125.651 84.2115 125.993 84.131 125.569 84.0343L125.504 84.0665C125.129 84.0021 124.64 83.7605 124.705 83.7444C124.819 83.9055 124.917 84.0343 125.162 84.1954Z" fill="#303C4C"/>
<path d="M122.975 83.825L122.192 83.9055L122.584 84.0666L122.567 83.9699C123.008 84.0182 122.91 83.8894 122.975 83.825Z" fill="#303C4C"/>
<path d="M118.703 83.2131L118.801 83.0198L118.345 83.2936L118.703 83.2131Z" fill="#303C4C"/>
<path d="M117.676 83.2287L117.724 83.0515L117.447 83.1643L117.676 83.2287Z" fill="#303C4C"/>
<path d="M60.24 84.8074L60.0117 84.8557C60.1095 84.8396 60.1747 84.8235 60.24 84.8074Z" fill="#303C4C"/>
<path d="M61.9041 84.8398L61.9525 84.7593C61.8556 84.7915 61.8394 84.8237 61.9041 84.8398Z" fill="#303C4C"/>
<path d="M92.6922 83.0196C92.3661 82.8585 91.991 82.6169 92.0236 82.7941L92.1215 82.9874C92.3498 82.9552 92.5292 82.9713 92.6922 83.0196Z" fill="#303C4C"/>
<path d="M75.5527 83.9699C75.5853 83.986 75.618 84.0021 75.6506 84.0344C75.7321 83.9699 75.8137 83.9055 75.8789 83.8572C75.781 83.8894 75.6669 83.9216 75.5527 83.9699Z" fill="#303C4C"/>
<path d="M75.3084 84.727L74.8681 84.5981C74.966 84.6465 75.1127 84.6948 75.3084 84.727Z" fill="#303C4C"/>
<path d="M51.1415 84.9365L50.8643 85.1298C51.2883 85.1298 51.1089 85.0332 51.1415 84.9365Z" fill="#303C4C"/>
<path d="M107.256 83.2129C106.962 83.1323 106.734 83.1001 106.538 83.1001C106.881 83.1967 107.158 83.3578 107.256 83.2129Z" fill="#303C4C"/>
<path d="M60.9086 82.8423C60.7618 82.8745 60.7129 82.9067 60.7129 82.955C60.8434 82.9228 60.9412 82.8906 60.9086 82.8423Z" fill="#303C4C"/>
<path d="M105.706 83.0838C105.755 83.0999 105.804 83.116 105.853 83.1321C106.065 83.0999 106.277 83.0838 106.538 83.0999C106.277 83.0033 105.983 82.9549 105.706 83.0838Z" fill="#303C4C"/>
<path d="M18.1503 84.759C18.1341 84.759 18.1018 84.7429 18.0695 84.7429C18.0695 84.7751 18.1018 84.7751 18.1503 84.759Z" fill="#303C4C"/>
<path d="M8.49793 83.0679C8.59577 83.0518 8.74254 83.0518 8.88931 83.0356C8.82408 83.0356 8.70993 83.0356 8.49793 83.0679Z" fill="#303C4C"/>
<path d="M113.582 83.1161C113.808 83.1 113.614 83.1 113.582 83.1161V83.1161Z" fill="#303C4C"/>
<path d="M114.626 83.8572C114.577 83.8733 114.545 83.9055 114.545 83.9538C114.561 83.9055 114.593 83.8733 114.626 83.8572Z" fill="#303C4C"/>
<path d="M103.538 84.2114H103.522C103.586 84.2595 103.57 84.2435 103.538 84.2114Z" fill="#303C4C"/>
<path d="M113.908 83.1967C113.827 83.1806 113.729 83.1484 113.631 83.1323C113.68 83.1645 113.761 83.1806 113.908 83.1967Z" fill="#303C4C"/>
<path d="M113.876 83.1162C113.958 83.1162 114.006 83.1323 114.072 83.1323C114.088 83.1001 114.055 83.084 113.876 83.1162Z" fill="#303C4C"/>
<path d="M113.288 83.1162C113.419 83.1162 113.533 83.1162 113.631 83.1323C113.582 83.1162 113.565 83.1162 113.582 83.1001C113.516 83.1162 113.435 83.1162 113.288 83.1162Z" fill="#303C4C"/>
<path d="M35.8289 84.2275C35.8126 84.2275 35.7962 84.2114 35.7799 84.2114C35.5516 84.292 35.6495 84.2759 35.8289 84.2275Z" fill="#303C4C"/>
<path d="M87.0508 84.8883C87.067 84.8883 87.067 84.8883 87.0832 84.8721C87.067 84.8883 87.0508 84.8721 87.0508 84.8883Z" fill="#303C4C"/>
<path d="M86.2677 85.0171C86.5938 84.7916 86.7895 84.8238 87.0341 84.8721L86.7895 84.3406L86.2677 85.0171Z" fill="#303C4C"/>
<path d="M56.2456 84.8397L56.7837 85.0169C56.1314 85.2907 55.6422 85.1941 56.164 85.4196C56.2456 84.8397 58.284 85.3713 58.3655 84.7914L58.7243 84.9202C58.6264 84.9202 58.6101 84.9525 58.496 84.9364C59.1972 85.2263 59.0178 84.5176 59.9147 84.6142C60.2246 84.6625 60.4529 84.7431 60.2246 84.8075L60.9258 84.6625C61.1215 84.6786 61.0726 84.7753 60.8769 84.7592L61.9369 84.7269V84.7431C62.0836 84.6464 62.4424 84.5176 62.6055 84.4531C62.8827 84.5337 62.475 84.5176 62.5402 84.582L63.1273 84.4531C63.3719 84.6142 62.8827 84.7431 62.475 84.7269C63.0132 85.3068 62.9642 84.582 64.1547 84.9364L63.6002 85.0008C63.959 85.339 64.3993 85.2102 65.019 85.4357C64.8722 85.3229 63.7633 84.9041 64.3993 84.7592C64.5787 84.8075 64.8233 84.8236 65.1657 84.7108C65.1657 84.9202 65.5082 84.8719 65.9322 84.8558L65.8996 85.1296C66.3562 85.0491 66.3236 84.9202 66.5845 84.7914C67.09 84.8236 67.2042 85.033 67.3183 85.2102C68.1337 85.2585 66.7639 84.8719 67.726 84.8236C68.3946 84.9364 68.8838 84.8236 69.6829 84.6625C70.1558 84.7592 69.6014 84.8236 69.7644 84.9041L70.1884 84.6947C70.2863 84.6947 70.2537 84.7753 70.2374 84.8075C70.5961 84.7269 70.27 84.5337 70.8244 84.4692C70.9712 84.1632 71.9659 84.9202 72.6509 84.582C72.8139 84.6625 72.5693 84.7431 72.6182 84.8558C73.5641 84.6464 73.4336 84.6947 74.2164 84.4048L74.8687 84.5981C74.3795 84.3887 75.0154 84.1471 75.5536 83.9538C75.3742 83.8571 75.2437 83.7605 75.1296 83.7283L75.9939 83.5833C76.0917 83.6316 76.0102 83.7283 75.8634 83.841C75.9287 83.8249 75.9776 83.7927 76.0265 83.7766C76.3363 83.8732 76.1733 84.0343 75.945 84.1954C75.8471 84.1471 75.733 84.0826 75.6351 84.0182C75.4231 84.1793 75.2111 84.3726 75.2601 84.5337C75.309 84.5014 75.4231 84.4692 75.5373 84.4692C75.4884 84.5175 75.4394 84.5498 75.472 84.582C75.5047 84.6142 75.5862 84.5498 75.733 84.4853L75.9287 84.7914L75.9776 84.6625L77.1028 84.8719C77.9182 84.5659 78.6357 84.131 79.924 84.0182C79.5978 84.2437 79.8588 84.3887 79.8261 84.6464C79.4837 84.3565 78.8314 84.7592 78.1628 84.6947C78.5052 84.727 78.44 84.8558 78.3422 84.9041L79.5326 84.6625C79.5 84.8719 79.7772 84.8236 80.0871 84.9202C79.8588 84.4853 80.984 84.6464 81.4569 84.5175C81.4895 84.6625 81.3753 84.8075 80.772 84.7753C81.4243 85.0974 81.62 84.2759 82.256 84.5659C82.1092 84.5659 82.0276 84.5498 81.9787 84.6142C82.3212 84.4853 83.1365 84.5981 82.9409 84.7269H82.7941C83.7562 84.7914 85.7131 84.7592 85.8599 84.3887C85.8762 84.437 85.7294 84.8236 85.6642 84.9041L87.3928 83.6961C87.246 84.0021 87.8168 84.7592 87.0177 84.9202C87.246 84.9686 87.5233 85.0169 88.0125 84.9202C87.8494 84.8719 87.6211 84.4692 87.8494 84.437C88.4365 84.7914 88.2571 84.6303 88.9746 84.9364C88.7463 84.8719 89.0072 84.3726 89.3823 84.4048C89.3171 84.4853 89.4149 84.888 89.2682 84.9364L90.1977 84.4692C89.9694 84.5498 90.1488 84.8719 90.3607 85.0169C90.2629 84.9202 91.1598 85.033 91.4044 84.9847L91.013 84.8719C92.0567 84.9525 92.0404 84.2115 93.0678 84.2437C92.9373 84.3404 92.7579 84.8558 93.2798 84.9202C93.5244 84.6786 94.3561 83.7444 95.2693 83.5672L95.4487 83.7122L96.1499 83.5511C95.7096 83.9216 94.4865 84.6947 93.8179 84.9847C94.2093 85.0974 93.9321 85.1458 94.5028 85.1458C94.6985 85.2746 94.1767 85.339 94.0136 85.3552L95.3671 85.4518C95.3019 85.1619 96.4108 85.178 96.3619 84.9364L94.8942 85.2263C94.8453 84.9364 95.7585 84.4209 96.7043 84.4692C96.949 84.582 96.525 84.9847 96.5413 85.0813C96.6717 84.9847 97.4545 84.9041 97.536 84.9686L97.1283 85.1135C97.6665 85.2263 98.009 84.7431 98.6449 85.0169C98.8732 85.033 99.2972 85.3874 99.3462 85.2263C98.9874 84.888 98.9222 83.8732 99.1668 83.6316C99.2483 83.6477 100.325 83.9538 100.569 84.1149C100.928 84.3726 100.015 84.7269 100.325 84.9525C100.341 84.8719 100.537 84.7753 100.618 84.7431C100.846 84.8075 100.52 84.9847 101.026 84.9525C101.107 84.6625 102.053 84.9847 101.27 84.7108C101.76 84.6303 101.792 84.7753 102.379 84.7753C102.2 84.582 102.901 84.131 103.407 84.0665C103.374 84.1471 103.488 84.2437 103.537 84.2759C104.548 84.3081 105.086 84.4531 106.032 84.4531C106.114 84.5176 106.57 84.6142 106.375 84.7431C106.505 84.6947 106.636 84.5981 106.929 84.5981C107.484 84.8558 106.277 84.6303 106.701 84.9364C106.733 84.7592 107.451 84.7108 107.875 84.6142C107.744 84.3565 106.913 84.5498 106.505 84.6625C106.505 84.3081 107.239 83.9216 108.217 83.7766C109 83.6961 108.56 84.0182 108.69 83.9699C110.158 84.0504 109.946 83.3578 111.169 83.6155C111.658 83.8571 111.185 84.0665 111.3 84.2437C110.664 84.3243 110.321 84.0826 109.881 84.0987L110.419 84.2115C110.207 84.292 109.783 84.3404 109.555 84.2759C109.962 84.4853 112.05 84.3404 113.175 84.5337C113.371 84.4531 113.729 84.3887 113.566 84.292L113.208 84.3243C112.881 84.131 113.892 84.0665 113.436 83.986C113.925 83.8571 114.463 83.6638 115.132 83.7766L115.262 84.0343C115.246 83.9538 114.822 83.8732 114.626 83.9538C114.903 83.841 115.67 84.3243 115.98 83.9699L115.507 83.7766C115.996 83.6477 116.599 83.3739 117.187 83.4705C116.909 83.2128 117.04 83.5028 116.616 83.1967C116.991 83.5833 115.083 83.1645 115.67 83.5672C115.23 83.2128 114.92 83.4061 114.349 83.1001C114.365 83.1806 114.545 83.2611 114.039 83.2128C114.023 83.245 113.958 83.2773 113.925 83.2934C113.909 83.2934 113.909 83.2934 113.892 83.2934C113.909 83.2934 113.909 83.2934 113.925 83.3095C113.909 83.3256 113.909 83.3256 113.941 83.3095C114.055 83.3417 114.153 83.39 114.202 83.4383C113.958 83.6316 113.142 83.6155 112.881 83.7283C112.588 83.6799 113.012 83.6316 112.849 83.535L112.441 83.6799C112.408 83.4866 111.642 83.3578 112.36 83.245L111.724 83.2289C111.348 83.1162 110.843 83.0678 110.517 83.1484C110.223 83.1001 109.75 83.3578 110.028 83.2128L109.033 83.3256L109.016 83.2772C108.038 83.245 106.994 83.5833 105.869 83.2128C105.543 83.2611 105.201 83.3095 104.646 83.2611L104.532 83.1001C104.108 83.1484 103.26 82.9229 103.081 83.1001C102.624 82.649 101.026 82.9873 100.276 82.8907L100.243 83.1001C99.7212 83.084 99.232 83.1323 98.596 83.2128L98.6286 83.4061C98.0742 83.5511 97.2099 83.2611 96.3456 83.2611C96.4108 83.1806 96.6228 83.2128 96.7859 83.2611C95.7422 82.8101 94.5844 83.5511 93.6386 83.2289C93.4102 83.2934 93.2309 83.2772 93.0678 83.2289C93.0841 83.2289 93.1167 83.2289 93.133 83.2128C93.1167 83.2128 93.0678 83.2128 93.0352 83.2128C92.9373 83.1806 92.8232 83.1323 92.709 83.1001C92.8069 83.1484 92.9047 83.1806 92.9863 83.2128C92.8069 83.2128 92.5296 83.2289 92.2524 83.2772L92.1383 83.0678C92.122 83.0678 92.1056 83.0678 92.073 83.0678C91.8121 82.9873 91.861 83.1645 91.9915 83.3256C91.861 83.3578 91.7306 83.39 91.6327 83.4544C91.4207 83.1162 90.9315 83.5672 90.638 83.1967C90.4586 83.3739 89.2845 83.3095 89.1377 83.6799C89.1214 83.6316 89.0562 83.6155 89.2029 83.5994C88.9094 83.5511 88.5996 83.5028 88.3386 83.6155L88.2082 83.3578L87.5559 83.6961C87.1645 83.535 87.0014 83.4383 87.3928 83.245C86.4307 83.5511 86.61 83.3578 85.7947 83.6477L85.8436 83.4705C85.5501 83.4705 85.0934 83.696 84.9141 83.5511C84.2618 83.2289 81.7015 83.4705 80.0381 83.1645C80.3643 83.6638 79.2717 82.939 79.1902 83.3256C79.0923 83.2128 78.864 83.1323 79.1412 83.0356C78.2932 83.1484 77.8692 82.8423 77.2659 83.1645C77.168 83.0517 77.4452 82.9873 77.3637 82.9229C77.2985 82.9551 77.0865 83.0195 77.005 82.9551C76.9234 82.8907 77.1354 82.8584 77.2659 82.8101C76.4016 82.8262 76.3037 83.1806 76.2385 83.5189C75.7982 83.3578 75.5862 83.3739 75.2601 83.5994C75.1133 83.4866 74.8524 83.3739 75.3905 83.3256C75.0807 83.3095 73.5315 83.1484 73.4989 83.4222C73.401 83.3578 73.0749 83.39 72.9933 83.4222C72.3084 83.4061 72.2432 83.3739 71.5746 83.39L71.7539 83.4383C71.493 83.7605 71.1995 83.5028 70.6614 83.535L70.6777 83.5028C69.4383 83.2611 70.1395 83.6155 68.9165 83.3256L68.9817 83.535C68.8675 83.9699 67.9054 83.2611 67.1879 83.4222L67.4488 83.535C67.0574 83.6799 66.3725 82.9229 65.9811 82.8584C65.8996 82.8262 66.1116 82.794 66.242 82.7779C65.231 82.5041 66.1116 83.0517 65.3451 83.1001C65.1984 82.9551 65.5245 82.7296 65.019 82.6974C64.7581 82.5846 63.535 83.1645 62.8338 82.8746C62.9805 82.9873 63.1436 83.1001 62.7849 83.1806C62.2467 83.2128 61.3335 82.7457 60.8443 83.1001C60.779 83.0678 60.7464 83.0356 60.7464 83.0034C60.3387 83.084 59.4092 83.1484 59.1483 83.3417C58.7732 82.6329 56.5717 83.6638 56.588 83.0195L55.316 83.0517L55.3486 82.9873C54.5333 82.939 54.2561 83.1001 53.9625 83.245C53.7831 83.1967 53.9136 83.1323 53.9299 83.1001C52.7395 82.9551 52.6253 82.9873 51.6306 83.3095L51.5327 83.1001C51.2555 83.2289 49.8204 82.7618 48.6463 83.0034C48.6626 82.9712 48.6789 82.939 48.7767 82.9068C47.4721 83.1484 45.6457 82.2947 45.1565 83.0678L44.2922 83.2611C45.4174 83.3256 44.1291 83.5994 44.5857 83.7283C44.1454 83.7766 43.4442 83.4867 43.9987 83.4544L44.0802 83.4867C44.2759 83.084 42.6941 83.3417 42.7267 83.0678C40.5252 83.0678 38.3889 82.8423 36.3178 82.8262L36.5625 83.1323L35.8449 83.1162C35.6492 83.0356 35.584 82.8746 36.1059 82.8907C35.8286 82.7135 35.2416 83.0356 35.2253 83.1001C34.2142 82.9712 35.6166 82.7296 35.3068 82.7296L34.8828 82.7457L34.9806 82.7779C34.6382 82.9068 34.6056 83.0356 34.0022 83.0195C33.6108 82.9551 33.8065 82.8262 33.6434 82.8101C33.6434 82.794 33.5945 82.7779 33.4151 82.794L32.5019 82.7618L32.8607 83.0034C32.453 83.1323 32.0127 82.9873 32.4204 83.2772C31.8007 82.8423 29.0447 83.1162 28.6697 82.9873C28.1152 83.1645 27.5444 83.1645 26.8595 83.1484C27.0226 83.1967 27.1368 83.4705 26.5334 83.4383C26.7454 82.8584 25.4408 83.1967 24.9679 82.7779C25.3919 83.0517 23.2882 82.8423 23.9568 83.2289C23.4676 83.1806 23.9242 83.0195 23.5491 82.8746C22.375 83.1001 20.9562 82.7457 19.4886 82.8262C19.4722 82.9068 19.7169 83.0195 19.407 83.1323L18.6406 82.7618C18.347 82.794 18.3796 83.1967 17.8578 82.939C17.9393 83.0034 18.0372 83.1001 17.8578 83.1162C17.1403 83.0356 16.4228 83.0034 15.6889 83.0195C14.9551 83.0356 14.2376 83.0678 13.5037 83.1001C12.7699 83.1323 12.036 83.1484 11.3022 83.1323C10.5684 83.1001 9.83454 83.0195 9.10071 82.8907C9.50839 83.0195 9.23117 83.0517 8.93763 83.0678C9.13332 83.1001 8.93763 83.2611 8.98655 83.3578L7.76349 83.1162C7.5515 83.4061 6.4589 83.1806 6.34475 83.4705L6.71982 83.4061C6.23059 83.7444 7.46996 84.0826 7.42104 84.5014C7.97549 84.1149 8.93763 84.9847 9.85085 84.4209C10.0628 84.5014 9.67147 84.5659 9.78562 84.6464C10.0139 84.4531 10.3075 84.4209 10.8293 84.4853L10.7641 84.5337C12.248 84.4692 12.9003 84.6303 14.58 84.7108L14.4496 84.5175C14.8083 84.5337 14.8899 84.5981 15.0529 84.6464C15.4606 84.3243 14.0419 84.6464 14.4169 84.3081C14.6615 84.5175 15.2975 84.5014 15.9172 84.5014C16.5369 84.5014 17.124 84.5176 17.287 84.7431C17.8415 84.7431 17.124 84.5014 17.6784 84.5014L17.8252 84.6303L17.9557 84.4692C18.3144 84.4853 18.5101 84.6464 18.5264 84.7592C18.4449 84.7431 18.2818 84.7914 18.184 84.8075C18.6569 84.9525 19.5049 84.7431 19.6679 84.7914L19.1298 84.7108C20.6464 84.582 22.4891 84.7269 23.9568 84.4692L23.8426 84.3726C24.9516 84.1954 24.7396 84.4692 25.9626 84.3887L25.9137 84.4048C26.1583 84.3081 26.4845 84.2598 26.8269 84.2759C26.5171 84.3887 27.414 84.4853 27.0063 84.6142C28.213 84.4209 27.6097 84.4692 28.4087 84.0987L28.5881 84.2598C28.8653 84.1149 28.8816 84.0343 29.5013 84.0021C28.9958 84.1471 29.8927 84.2437 29.3219 84.4209C30.6102 84.7592 31.2299 84.0665 31.817 84.582C32.4041 84.1471 30.7081 84.3404 31.0342 84.2437C30.757 84.0987 31.5235 83.9216 31.9311 83.9538C32.3388 83.9699 32.6324 84.5175 33.6597 84.5175C33.5619 84.5175 33.5456 84.5498 33.4477 84.5498C33.8391 84.6625 34.1979 84.4048 34.6871 84.582C34.948 84.3243 35.3068 84.5981 35.372 84.2598L34.4262 84.3404C34.9643 84.2598 35.4699 83.8571 36.3505 84.0504C36.2852 84.1149 36.0243 84.2115 35.8286 84.2598C36.0895 84.3565 36.3342 84.1954 36.5951 84.292C36.5135 84.6303 35.4372 84.3565 34.8665 84.6142C35.1437 84.7592 35.9591 84.3726 35.6655 84.7431C36.0895 84.2759 36.6766 84.8075 37.3778 84.4531L37.3289 84.6625C37.4431 84.6303 37.6714 84.5337 37.8671 84.5337L37.492 84.7914C38.0627 84.5659 38.5846 84.9847 39.1227 84.8719C37.9812 84.8719 38.8618 84.6303 38.3889 84.4692C39.7913 84.1954 39.188 85.0008 40.7698 84.9041C40.5578 84.9364 39.9707 84.7753 40.2969 84.6786C40.5904 84.7269 40.9981 84.8075 41.1775 84.9041C42.2211 84.8719 41.0144 84.6947 41.4547 84.5659C41.8135 84.8075 41.9602 84.4692 42.4168 84.3887V84.5981C43.6073 84.7431 42.7267 84.1632 43.803 84.3404L43.3464 84.6303L43.9008 84.5659L43.7867 84.8075C44.39 84.6303 44.5857 84.6786 45.1728 84.7431C45.0423 84.5981 45.2543 84.3726 45.7762 84.3726C46.1349 84.5014 45.5805 84.5659 46.3143 84.5498C46.1512 84.6786 45.9556 84.8397 45.6294 84.6464C45.5968 84.7108 45.4663 84.7753 45.4337 84.8397C45.8251 84.9847 46.3959 84.8719 46.6731 84.8719C46.5752 84.8558 46.4448 84.8558 46.3795 84.8236L47.4558 84.5498C47.6189 84.6303 47.4885 84.6947 47.358 84.7431C47.57 84.727 47.7331 84.6303 48.0429 84.6142C47.9614 84.7753 47.9777 84.9525 47.5211 85.033L48.5484 84.8558C48.6137 84.9364 49.0703 85.0652 48.9398 85.1135C49.5106 85.2102 50.3423 84.7914 51.0924 84.9364C51.125 84.9041 51.2066 84.8719 51.3696 84.8558C52.0872 84.9041 52.7068 85.1135 53.5548 84.888L54.0277 85.1941C54.68 85.1296 53.3755 84.8075 54.4844 84.7108C55.2671 84.6142 54.7779 84.9686 55.0388 85.0491C55.4302 84.9041 56.0988 84.5981 56.8163 84.8397C56.6532 84.8558 56.4739 84.8075 56.2456 84.8397ZM64.383 84.7592C64.2199 84.8075 63.9101 84.9363 63.7959 84.8075C63.9753 84.582 64.1058 84.6947 64.383 84.7592ZM76.7603 84.3726C76.6462 84.437 76.4668 84.4048 76.2548 84.3243C76.4016 84.3081 76.5646 84.3243 76.7603 84.3726ZM111.218 83.2611C111.218 83.2611 111.202 83.2611 111.202 83.2772C110.859 83.1806 110.973 83.2128 111.218 83.2611ZM111.952 83.3578C112.033 83.3256 112.017 83.2934 111.984 83.2772C111.936 83.3256 111.772 83.3256 111.577 83.3095C111.642 83.3578 111.724 83.4061 111.952 83.3578ZM33.513 82.8262L33.6597 82.8746C33.3336 82.939 33.4314 82.8907 33.513 82.8262Z" fill="#303C4C"/>
<path d="M75.3405 84.6464C75.292 84.6142 75.292 84.5659 75.2759 84.5337C75.2112 84.5659 75.2112 84.5981 75.3405 84.6464Z" fill="#303C4C"/>
<path d="M51.1896 84.9043C51.1735 84.9043 51.1735 84.9043 51.1573 84.9043C51.1412 84.9204 51.1412 84.9365 51.125 84.9365L51.1896 84.9043Z" fill="#303C4C"/>
<path d="M100.619 85.0007C100.472 84.9685 100.39 84.9363 100.325 84.8879C100.325 84.9524 100.39 84.9846 100.619 85.0007Z" fill="#303C4C"/>
<path d="M115.816 83.0356L115.343 83.084C115.571 83.0679 115.653 83.1162 115.767 83.1484C115.767 83.1162 115.669 83.0356 115.816 83.0356Z" fill="#303C4C"/>
<path d="M119.877 84.3564C119.942 84.3242 120.024 84.3564 120.089 84.3242L120.073 84.2275C119.779 84.2275 119.567 84.3081 119.877 84.3564Z" fill="#303C4C"/>
<path d="M116.258 83.7285C116.29 83.9057 116.584 83.8412 116.91 83.809C116.894 83.809 116.877 83.809 116.845 83.809C116.943 83.5674 116.6 83.6479 116.258 83.7285Z" fill="#303C4C"/>
<path d="M116.975 83.8087C117.072 83.8087 117.187 83.7926 117.284 83.8087C117.317 83.7121 117.17 83.7926 116.975 83.8087Z" fill="#303C4C"/>
<path d="M112.881 83.245C113.028 83.2934 112.979 83.0195 113.061 83.1001C113.24 82.8745 112.033 83.3578 112.881 83.245Z" fill="#303C4C"/>
<path d="M116.502 84.308L116.388 84.0825L116.208 84.2597L116.502 84.308Z" fill="#303C4C"/>
<path d="M113.925 84.1309L114.447 84.1954C114.447 84.1632 114.513 84.1309 114.594 84.1309C114.268 84.0987 113.909 84.0665 113.925 84.1309Z" fill="#303C4C"/>
<path d="M114.594 84.1147C114.757 84.1147 114.92 84.1147 115.018 84.0825C114.92 84.0825 114.724 84.0986 114.594 84.1147Z" fill="#303C4C"/>
<path d="M115.8 84.3564L115.637 84.3242L115.262 84.292L115.8 84.3564Z" fill="#303C4C"/>
<path d="M108.299 84.0344L107.728 84.0827C107.663 84.1633 107.826 84.1955 108.038 84.1794C108.169 84.1311 108.381 84.0989 108.299 84.0344Z" fill="#303C4C"/>
<path d="M110.011 84.6303C109.864 84.582 109.848 84.5337 109.766 84.4692L109.75 84.727L110.011 84.6303Z" fill="#303C4C"/>
<path d="M108.348 84.6785C108.283 84.759 107.517 84.8879 108.234 84.8718C108.299 84.8073 108.87 84.7429 108.348 84.6785Z" fill="#303C4C"/>
<path d="M99.7373 84.2599H99.8841L99.8678 83.825L99.7373 84.2599Z" fill="#303C4C"/>
<path d="M92.1387 85.2423C92.8073 85.3551 92.3018 84.9685 92.9052 85.1135C93.0682 85.0168 92.3996 85.0007 92.5627 84.9202C92.1713 85.0168 91.9593 84.9524 92.1387 85.2423Z" fill="#303C4C"/>
<path d="M92.5781 84.9043C92.6434 84.8882 92.7086 84.8721 92.7901 84.8398C92.676 84.8721 92.627 84.8882 92.5781 84.9043Z" fill="#303C4C"/>
<path d="M6.88359 82.9067L6.44329 82.8262L6.73682 82.9711L6.88359 82.9067Z" fill="#303C4C"/>
<path d="M6.05115 83.2611L5.937 82.9873L5.69239 83.245C5.79023 83.2289 5.98592 83.1967 6.05115 83.2611Z" fill="#303C4C"/>
<path d="M65.5898 85.3391L65.6224 85.2746C65.5571 85.1941 65.4593 85.1941 65.2473 85.178L65.5898 85.3391Z" fill="#303C4C"/>
<path d="M59.6858 85.0812H59.7836L59.5879 84.8235L59.6858 85.0812Z" fill="#303C4C"/>
<path d="M54.729 85.3553C54.9247 85.3714 55.1693 85.307 55.365 85.3231C54.9247 85.3714 54.6801 85.0493 54.729 85.3553Z" fill="#303C4C"/>
<g opacity="0.31">
<path d="M86.0889 44.5381C86.1542 44.6025 86.2357 44.4575 86.2683 44.4414C86.1215 44.3609 86.0726 44.5703 86.0889 44.5381Z" fill="#F8756E"/>
<path d="M84.5728 43.8774L84.638 43.8291L84.3282 43.8452L84.5728 43.8774Z" fill="#F8756E"/>
<path d="M83.3332 43.04C83.2842 43.3622 83.8061 43.2978 83.9692 43.5394V43.6199L84.2138 43.4911C83.9039 43.3461 83.4636 43.2333 83.3332 43.04Z" fill="#F8756E"/>
<path d="M82.9745 42.0896C82.9582 42.2185 82.7788 42.0896 83.1213 42.2185C83.105 42.2024 83.105 42.1862 83.105 42.1701C83.0887 42.154 83.0397 42.1218 82.9745 42.0896Z" fill="#F8756E"/>
<path d="M83.1056 42.1702C83.251 42.2346 83.0733 42.0252 83.1056 42.1702V42.1702Z" fill="#F8756E"/>
<path d="M82.4358 41.8479L82.6641 41.864C82.6641 41.7834 82.501 41.6707 82.5989 41.6707C82.3869 41.6062 82.3869 41.6868 82.4358 41.8479Z" fill="#F8756E"/>
<path d="M82.1592 41.9446L82.2734 41.9607C82.2734 41.9285 82.2571 41.8962 82.1592 41.9446Z" fill="#F8756E"/>
<path d="M82.5181 41.9927L82.2735 41.9604C82.2735 42.0249 82.2246 42.1054 82.3877 41.9766C82.3225 42.0571 82.404 41.9927 82.5181 41.9927Z" fill="#F8756E"/>
<path d="M82.6161 42.1057C82.6813 42.2185 82.7955 42.3312 82.5672 42.3151C82.926 42.4762 82.9749 42.2668 82.6161 42.1057Z" fill="#F8756E"/>
<path d="M83.0889 43.2654L83.1704 43.4265L83.3335 43.4104C83.2519 43.4104 83.1378 43.1849 83.0889 43.2654Z" fill="#F8756E"/>
<path d="M81.3434 41.1069C81.2945 41.1553 81.3271 41.2841 81.3108 41.3647H81.4902C81.4412 41.2841 81.3108 41.1875 81.3434 41.1069Z" fill="#F8756E"/>
<path d="M81.3105 41.3645H81.0496C81.229 41.4611 81.2942 41.4289 81.3105 41.3645Z" fill="#F8756E"/>
<path d="M81.9637 42.2185L82.404 42.2024L81.8984 42.1863L81.9637 42.2185Z" fill="#F8756E"/>
<path d="M80.5603 40.6882L80.7396 40.6238L80.4298 40.7204L80.5603 40.6882Z" fill="#F8756E"/>
<path d="M80.0059 40.4788C80.1527 40.4144 79.9733 40.2372 80.1038 40.205C79.9407 40.1567 79.7776 40.205 79.6309 40.2372C79.7613 40.2372 79.8918 40.3178 80.0059 40.4788Z" fill="#F8756E"/>
<path d="M79.3701 40.2856C79.4353 40.2856 79.5169 40.2695 79.6147 40.2373C79.5495 40.2373 79.468 40.2534 79.3701 40.2856Z" fill="#F8756E"/>
<path d="M80.7234 41.1552C80.7234 41.1069 80.7396 41.0102 80.6426 40.9136V41.123C80.6588 41.123 80.6911 41.1391 80.7234 41.1552Z" fill="#F8756E"/>
<path d="M80.6413 41.1069C80.5598 41.0586 80.4945 41.0103 80.4619 41.0103C80.4945 41.0264 80.5435 41.0586 80.6413 41.1069Z" fill="#F8756E"/>
<path d="M80.7396 41.1554C80.7396 41.1554 80.7234 41.1554 80.7234 41.1392C80.7234 41.1715 80.7234 41.1715 80.7396 41.1554Z" fill="#F8756E"/>
<path d="M81.5067 41.7834C81.3437 41.8157 81.0338 41.7834 81.2132 42.0412C81.36 41.9767 81.2621 41.8318 81.5067 41.7834Z" fill="#F8756E"/>
<path d="M80.7402 41.4131L80.9359 41.5581C80.9522 41.5097 80.9522 41.4292 81.0337 41.4131H80.7402Z" fill="#F8756E"/>
<path d="M80.6091 41.4128H80.7396L80.6581 41.3645L80.6091 41.4128Z" fill="#F8756E"/>
<path d="M79.6957 40.6077C79.5653 40.6399 79.4511 40.5915 79.3369 40.5593C79.4511 40.6399 79.5816 40.7204 79.6957 40.7687C79.7283 40.7204 79.8262 40.656 79.6957 40.6077Z" fill="#F8756E"/>
<path d="M80.1525 40.8491C80.1363 40.8491 80.1363 40.8491 80.1201 40.8491C80.1363 40.8815 80.1363 40.8815 80.1525 40.8491Z" fill="#F8756E"/>
<path d="M78.1475 40.0601C78.1475 40.0761 78.1475 40.0921 78.1475 40.0921C78.1475 40.0761 78.1636 40.0761 78.1636 40.0601H78.1475Z" fill="#F8756E"/>
<path d="M79.6973 40.801C79.7788 40.8816 79.8604 40.8654 79.9256 40.8332C79.8441 40.8171 79.7625 40.801 79.681 40.7688C79.681 40.7849 79.6647 40.801 79.6973 40.801Z" fill="#F8756E"/>
<path d="M79.0117 40.221C79.0444 40.2854 79.0933 40.3338 79.1422 40.3821C79.1096 40.3015 79.0444 40.1727 79.0117 40.221Z" fill="#F8756E"/>
<path d="M80.1202 40.8012H80.1364C80.1202 40.7526 80.104 40.7688 80.1202 40.8012Z" fill="#F8756E"/>
<path d="M80.1208 40.801C80.0556 40.801 80.0066 40.8332 79.9414 40.8494C80.0066 40.8655 80.0719 40.8655 80.1208 40.8655C80.1208 40.8332 80.1208 40.8171 80.1208 40.801Z" fill="#F8756E"/>
<path d="M77.3642 40.9943C77.4458 40.8494 77.7556 40.801 77.9024 41.0426C78.1633 41.0104 78.2285 40.4467 78.147 40.0923C78.1144 40.1567 78.0817 40.2211 77.8208 40.2211C77.8698 40.3339 78.2448 40.6077 78.0002 40.6722C77.6741 40.64 77.7882 40.5272 77.6741 40.3983C77.723 40.6399 77.1848 40.5433 77.1522 40.8494H77.4458C77.4294 40.8977 77.3153 40.9299 77.3642 40.9943Z" fill="#F8756E"/>
<path d="M78.571 40.2694L78.6688 40.2855C78.571 40.205 78.5221 40.1245 78.4405 39.9473C78.2611 39.9634 78.1959 40.0117 78.1633 40.06C78.3101 40.1244 78.4568 40.1889 78.6036 40.2533L78.571 40.2694Z" fill="#F8756E"/>
<path d="M79.0765 40.4787C78.9297 40.6076 78.6851 40.5915 78.7503 40.8331C79.0113 40.9297 78.995 40.7686 79.1906 40.7686C78.7503 40.6237 79.3537 40.7364 79.0765 40.4948C79.1743 40.5109 79.2559 40.527 79.3211 40.5592C79.2559 40.5109 79.1906 40.4465 79.1254 40.3821V40.3982C79.1417 40.4304 79.1417 40.4465 79.1254 40.4143C79.1254 40.4143 79.1254 40.4143 79.1091 40.4143C79.1091 40.4465 79.0928 40.4626 79.0765 40.4787C78.9623 40.3821 79.0765 40.4304 79.1254 40.4304L79.1417 40.4143L78.6688 40.3176C78.7503 40.366 78.8645 40.3982 79.0765 40.4787Z" fill="#F8756E"/>
<path d="M80.8048 42.2666C80.8048 42.2506 80.8048 42.2345 80.8048 42.2185C80.7727 42.2345 80.7566 42.2506 80.8048 42.2666Z" fill="#F8756E"/>
<path d="M80.6905 42.0897C80.7394 42.0897 80.7883 42.0252 80.8862 42.0897C80.9514 42.1863 80.8535 42.1702 80.8209 42.2185C80.9025 42.2024 81.0819 42.2024 80.9351 42.0414H80.9025C80.772 41.8964 80.6579 41.5903 80.6905 41.5903C80.6579 41.7675 80.6579 41.8964 80.6905 42.0897Z" fill="#F8756E"/>
<path d="M79.8748 41.3003L79.4834 41.2197L79.5976 41.4452L79.6302 41.3486C79.8095 41.4774 79.8259 41.3486 79.8748 41.3003Z" fill="#F8756E"/>
<path d="M78.1313 39.9633L78.2618 39.8022L77.9356 39.9794L78.1313 39.9633Z" fill="#F8756E"/>
<path d="M77.6421 39.8022L77.7236 39.6572L77.5605 39.7056L77.6421 39.8022Z" fill="#F8756E"/>
<path d="M49.8694 40.334L49.7725 40.3984C49.8209 40.3823 49.8533 40.3662 49.8694 40.334Z" fill="#F8756E"/>
<path d="M50.6524 40.1728V40.0923C50.6363 40.1406 50.6201 40.1728 50.6524 40.1728Z" fill="#F8756E"/>
<path d="M65.4769 37.2249C65.3301 37.0477 65.1507 36.8061 65.1671 36.9833L65.1997 37.1605C65.3138 37.1605 65.3954 37.1927 65.4769 37.2249Z" fill="#F8756E"/>
<path d="M57.0449 38.3203C57.0612 38.3364 57.0775 38.3525 57.0938 38.3686C57.1265 38.3042 57.1591 38.2397 57.1917 38.1914C57.1428 38.2236 57.0938 38.2719 57.0449 38.3203Z" fill="#F8756E"/>
<path d="M56.9968 39.0776C56.9152 39.0454 56.85 39.0132 56.7684 38.981C56.8174 39.0132 56.8989 39.0454 56.9968 39.0776Z" fill="#F8756E"/>
<path d="M45.7283 41.6226L45.6631 41.832C45.8588 41.7836 45.7446 41.7192 45.7283 41.6226Z" fill="#F8756E"/>
<path d="M72.6359 38.3686C72.5055 38.2719 72.4076 38.2075 72.3098 38.1914C72.4566 38.3364 72.5544 38.5136 72.6359 38.3686Z" fill="#F8756E"/>
<path d="M49.7716 38.3845C49.707 38.4328 49.6908 38.4812 49.707 38.5134C49.7555 38.4651 49.7878 38.4328 49.7716 38.3845Z" fill="#F8756E"/>
<path d="M71.9014 38.0947C71.9177 38.1108 71.9503 38.1269 71.9666 38.1592C72.0807 38.1592 72.1786 38.1592 72.3091 38.1914C72.1949 38.0947 72.0644 38.0142 71.9014 38.0947Z" fill="#F8756E"/>
<path d="M31.8167 48.5972C31.8007 48.5972 31.7846 48.5972 31.7686 48.5972C31.7846 48.6292 31.8007 48.6292 31.8167 48.5972Z" fill="#F8756E"/>
<path d="M27.1211 50.3527C27.1374 50.3044 27.2026 50.2561 27.2516 50.2078C27.2026 50.2239 27.17 50.2561 27.1211 50.3527Z" fill="#F8756E"/>
<path d="M75.7342 39.0612C75.8305 39.0933 75.7502 39.0452 75.7342 39.0612V39.0612Z" fill="#F8756E"/>
<path d="M76.0107 39.8989C75.9784 39.915 75.9622 39.9311 75.946 39.9634C75.9622 39.9311 75.9784 39.915 76.0107 39.8989Z" fill="#F8756E"/>
<path d="M70.6299 38.9968C70.6461 39.0292 70.6461 39.0292 70.6299 38.9968V38.9968Z" fill="#F8756E"/>
<path d="M75.8651 39.1902C75.8325 39.1579 75.7999 39.1257 75.7509 39.0935C75.7672 39.1257 75.7999 39.1418 75.8651 39.1902Z" fill="#F8756E"/>
<path d="M75.8643 39.1096C75.8966 39.1257 75.9289 39.1418 75.9451 39.1579C75.9774 39.1257 75.9612 39.1096 75.8643 39.1096Z" fill="#F8756E"/>
<path d="M75.5869 39.0291C75.6521 39.0452 75.7011 39.0774 75.75 39.0935C75.7337 39.0774 75.7337 39.0613 75.7337 39.0613C75.7011 39.0613 75.6521 39.0452 75.5869 39.0291Z" fill="#F8756E"/>
<path d="M38.6823 43.7327C38.6661 43.7327 38.6661 43.7327 38.65 43.7327C38.6015 43.8454 38.6338 43.8132 38.6823 43.7327Z" fill="#F8756E"/>
<path d="M62.6229 38.9812C62.6395 38.9646 62.6395 38.9646 62.6229 38.9812C62.6395 38.9646 62.6229 38.9646 62.6229 38.9812Z" fill="#F8756E"/>
<path d="M62.2471 39.1096C62.4101 38.8841 62.508 38.9163 62.6221 38.9647L62.508 38.4331L62.2471 39.1096Z" fill="#F8756E"/>
<path d="M48.0269 40.8332L48.3204 40.9298C48.0921 41.2681 47.8475 41.2359 48.141 41.3969C48.0269 40.8332 49.0869 41.0748 48.989 40.5271L49.1847 40.6077C49.1358 40.6077 49.1358 40.6399 49.0869 40.656C49.4783 40.8493 49.2336 40.205 49.6739 40.1889C49.837 40.205 49.9512 40.2533 49.8696 40.3499L50.1632 40.1405C50.261 40.1244 50.261 40.2372 50.1632 40.2372L50.6524 40.0761V40.0922C50.7013 39.9956 50.8318 39.8184 50.9133 39.7539C51.0601 39.8184 50.8644 39.8184 50.9133 39.8828L51.1579 39.7056C51.3047 39.8345 51.0927 40.0117 50.897 40.0278C51.2721 40.5432 51.0927 39.8506 51.7287 40.0761L51.4841 40.1889C51.7124 40.4788 51.8918 40.3177 52.2179 40.4627C52.1364 40.366 51.533 40.0761 51.8102 39.8828C51.9081 39.915 52.0222 39.915 52.169 39.7701C52.2016 39.9633 52.3484 39.8989 52.5604 39.8506L52.593 40.1244C52.7887 40.0117 52.7561 39.8828 52.8539 39.7378C53.0985 39.7378 53.18 39.9311 53.2616 40.0922C53.653 40.0761 52.9517 39.8023 53.392 39.6895C53.7345 39.7539 53.9302 39.609 54.3053 39.3996C54.5499 39.464 54.289 39.5607 54.3705 39.6251L54.5499 39.3835C54.5988 39.3835 54.5988 39.4479 54.5825 39.4801C54.7456 39.3674 54.5662 39.2063 54.8108 39.1096C54.8434 38.8036 55.4142 39.4801 55.7077 39.1096C55.7892 39.1741 55.6914 39.2707 55.724 39.3835C56.148 39.1257 56.0991 39.1902 56.4415 38.8519L56.7677 38.9969C56.5231 38.8197 56.8003 38.5459 57.0449 38.3365C56.9471 38.2398 56.8818 38.1593 56.8166 38.1271C56.9471 38.0626 57.0938 38.0143 57.2243 37.9499C57.2732 37.9982 57.2406 38.0787 57.1754 38.2076C57.208 38.1915 57.2243 38.1593 57.2406 38.1432C57.4037 38.2398 57.3384 38.3848 57.2406 38.5459C57.1917 38.4975 57.1264 38.4492 57.0775 38.3848C56.9797 38.5459 56.8981 38.7392 56.9308 38.9002C56.9634 38.868 57.0123 38.8358 57.0612 38.8197C57.0449 38.868 57.0286 38.9002 57.0449 38.9324C57.0612 38.9647 57.0938 38.9002 57.1591 38.8197L57.2732 39.1096L57.2895 38.9969L57.844 39.1419C58.2191 38.8197 58.5289 38.3526 59.1486 38.2076C59.0018 38.4331 59.1323 38.562 59.1323 38.8197C58.9529 38.5459 58.6594 38.9647 58.3332 38.9163C58.4963 38.9325 58.4637 39.0613 58.431 39.1096L58.9855 38.8197C58.9855 39.0291 59.116 38.9808 59.2627 39.0613C59.1323 38.6425 59.6867 38.7714 59.915 38.6425C59.9313 38.7875 59.8824 38.9325 59.5889 38.9002C59.915 39.2063 59.9803 38.4009 60.3064 38.6586C60.2412 38.6586 60.1922 38.6425 60.1759 38.723C60.339 38.5942 60.7304 38.6908 60.6489 38.8036H60.5836C60.6978 38.8197 60.8445 38.8197 60.9913 38.8036C61.1381 38.8036 61.3012 38.7875 61.4642 38.7714C61.7741 38.723 62.0187 38.6264 62.0676 38.4492C62.0676 38.4975 62.0024 38.8841 61.9698 38.9486C62.247 38.5459 62.5405 38.1593 62.8341 37.7566C62.7525 38.0626 63.0134 38.7875 62.6221 38.9647C62.7362 39.013 62.8667 39.0613 63.095 38.9647C63.0297 38.9163 62.9156 38.5136 63.0297 38.4975C63.307 38.8519 63.2254 38.6908 63.5516 38.9969C63.4374 38.9325 63.5842 38.4492 63.7636 38.4814C63.731 38.5459 63.7473 38.9486 63.682 38.9969L64.155 38.5459C64.0408 38.6264 64.106 38.9486 64.2039 39.0774C64.1713 38.9808 64.579 39.1096 64.7094 39.0613L64.53 38.9486C65.0193 39.0452 65.0682 38.3042 65.5737 38.3848C65.5085 38.4814 65.378 38.9647 65.6226 39.0452C65.7531 38.8197 66.2423 37.9338 66.7152 37.7888L66.7805 37.9338L67.1392 37.8049C66.8783 38.1432 66.2097 38.8519 65.8672 39.1096C66.0466 39.2385 65.8999 39.2707 66.1771 39.2868C66.2586 39.4318 66.014 39.464 65.9325 39.464L66.5685 39.609C66.5685 39.3351 67.0903 39.3674 67.0903 39.1419C66.8457 39.2063 66.6011 39.2868 66.3565 39.3674C66.3565 39.0935 66.8457 38.6103 67.3023 38.7069C67.4001 38.8358 67.1555 39.1902 67.1555 39.2868C67.2208 39.2063 67.6121 39.158 67.6448 39.2385L67.4328 39.3674C67.6774 39.5123 67.8894 39.0452 68.1666 39.3674C68.2644 39.3996 68.4275 39.7701 68.4764 39.609C68.346 39.2707 68.4601 38.2881 68.6069 38.0626C68.6395 38.0948 69.1287 38.4331 69.2266 38.6264C69.357 38.9002 68.8678 39.1741 68.982 39.4157C68.9983 39.3351 69.1124 39.2707 69.1613 39.2385C69.2592 39.319 69.0798 39.464 69.3244 39.4801C69.406 39.2063 69.8136 39.5929 69.4712 39.2546C69.7158 39.2224 69.7158 39.3513 69.993 39.3996C69.9441 39.2063 70.3518 38.8197 70.6127 38.7875C70.5801 38.8519 70.6127 38.9647 70.6453 39.013C71.1346 39.1096 71.3629 39.319 71.8032 39.4157C71.8358 39.4962 72.0315 39.6251 71.901 39.7217C71.9825 39.6895 72.0641 39.609 72.1945 39.6251C72.4065 39.9311 71.8847 39.5929 72.0152 39.9311C72.0641 39.7701 72.4228 39.7862 72.6348 39.7217C72.6348 39.464 72.1945 39.5768 71.9662 39.6251C72.0478 39.2868 72.4718 38.9969 72.9936 38.9486C73.385 38.9647 73.0914 39.2063 73.173 39.1741C73.8579 39.4157 73.9394 38.7392 74.445 39.1419C74.608 39.4157 74.3308 39.5768 74.3308 39.7378C74.0047 39.7378 73.9068 39.4801 73.6948 39.4318L73.9231 39.609C73.809 39.6573 73.597 39.6573 73.4991 39.5607C73.5644 39.6895 73.8579 39.7701 74.2003 39.8667C74.3634 39.915 74.5428 39.9633 74.7059 40.0278C74.869 40.0922 75.0157 40.1727 75.1462 40.2533C75.2603 40.205 75.4397 40.1889 75.3908 40.0761L75.2114 40.06C75.1136 39.8345 75.6028 39.915 75.4234 39.7701C75.6843 39.7217 76.0105 39.609 76.2877 39.8184L76.2714 40.0761C76.2877 39.9956 76.1083 39.8667 75.9942 39.915C76.1572 39.8506 76.3692 40.3983 76.6302 40.1244L76.4671 39.8828C76.7443 39.8345 77.1031 39.6895 77.364 39.8667C77.3314 39.5768 77.2825 39.8667 77.1846 39.5123C77.2009 39.7217 77.0215 39.6412 76.8585 39.5768C76.6954 39.5123 76.5323 39.464 76.6138 39.6895C76.516 39.3029 76.304 39.4318 76.1246 39.0774C76.1083 39.158 76.1736 39.2546 75.9452 39.1419C75.9289 39.158 75.8963 39.1902 75.8637 39.1902C75.8637 39.1902 75.8474 39.1902 75.8474 39.1741C75.8474 39.1741 75.8474 39.1902 75.8637 39.1902C75.8474 39.2063 75.8474 39.2063 75.8637 39.1902C75.9126 39.2385 75.9452 39.3029 75.9452 39.3513C75.7659 39.4962 75.3908 39.3674 75.2277 39.4318C75.0973 39.3513 75.3093 39.3513 75.2603 39.2546L75.032 39.3351C75.0646 39.1419 74.7385 38.9163 75.1136 38.9163C75.0157 38.8841 74.9179 38.8519 74.8037 38.8197C74.657 38.6747 74.4123 38.562 74.233 38.5942C74.1025 38.5137 73.809 38.6908 73.972 38.5942L73.4665 38.5781V38.5298C73.3524 38.4975 73.2219 38.4814 73.0914 38.4653C72.961 38.4653 72.8305 38.4653 72.7001 38.4492C72.4391 38.4331 72.1782 38.3687 71.9336 38.1432C71.7542 38.1593 71.5912 38.1754 71.3302 38.0626L71.3139 37.8854C71.1019 37.9016 70.7106 37.6116 70.5964 37.7566C70.4496 37.2895 69.6017 37.4828 69.2429 37.3378L69.194 37.5472C68.933 37.4989 68.6884 37.5311 68.3623 37.5633V37.7566C68.0687 37.8693 67.6774 37.5311 67.2534 37.4989C67.286 37.4344 67.4001 37.4666 67.4654 37.515C67.2371 37.2734 66.9435 37.3217 66.6826 37.3861C66.4054 37.4505 66.1445 37.5311 65.9162 37.3539C65.7857 37.4183 65.7042 37.3861 65.6389 37.3217C65.6552 37.3217 65.6553 37.3217 65.6716 37.3217C65.6553 37.3217 65.6389 37.3217 65.6226 37.3217C65.5737 37.2895 65.5248 37.2411 65.4759 37.2089C65.5248 37.2572 65.5574 37.3056 65.6063 37.3217C65.5085 37.3217 65.378 37.3217 65.2476 37.37L65.1986 37.1606C65.1823 37.1606 65.1823 37.1606 65.166 37.1606C65.0356 37.0801 65.0519 37.2572 65.1171 37.4022C65.0519 37.4344 64.9866 37.4666 64.9377 37.515C64.8562 37.1767 64.579 37.6116 64.4648 37.2572C64.367 37.4183 63.7799 37.3539 63.6984 37.6922C63.6984 37.6438 63.6657 37.6277 63.731 37.6277C63.5842 37.5794 63.4374 37.5311 63.307 37.6277L63.258 37.37C63.1439 37.4828 63.0297 37.5955 62.9156 37.7083C62.7199 37.5472 62.6384 37.4505 62.8504 37.2572C62.3611 37.5472 62.459 37.37 62.0513 37.6599L62.0676 37.4989C61.9208 37.4989 61.6925 37.7244 61.611 37.5794C61.2848 37.2411 60.0292 37.5472 59.1975 37.2734C59.3769 37.7566 58.8061 37.064 58.7898 37.4505C58.7409 37.3378 58.6104 37.2733 58.7409 37.1767C58.3332 37.3217 58.0886 37.0317 57.8277 37.37C57.7787 37.2572 57.9092 37.1928 57.8603 37.1284C57.8277 37.1606 57.7298 37.2411 57.6809 37.1767C57.632 37.1123 57.7298 37.0801 57.7951 37.0156C57.3548 37.0639 57.3384 37.4183 57.3384 37.7566C57.1101 37.6116 56.996 37.6438 56.8655 37.8693C56.784 37.7727 56.6535 37.6599 56.9145 37.5955C56.7677 37.5955 55.9849 37.5311 56.0012 37.7888C55.9523 37.7244 55.7892 37.7888 55.7566 37.821C55.4142 37.8371 55.3816 37.821 55.0554 37.8693L55.1532 37.9016C55.0554 38.2398 54.8923 37.9982 54.6314 38.0787V38.0465C53.9954 37.9016 54.3868 38.1915 53.7508 38.0143L53.816 38.2076C53.816 38.6425 53.2453 38.0304 52.9354 38.2398L53.0822 38.3365C53.0007 38.417 52.8376 38.2881 52.6908 38.1432C52.5277 37.9982 52.3647 37.821 52.2668 37.821C52.2179 37.7888 52.3158 37.7566 52.381 37.7083C51.8428 37.5472 52.3647 37.9821 52.0059 38.111C51.9081 37.9821 52.0385 37.7405 51.7776 37.7566C51.6308 37.6599 51.1416 38.3365 50.7502 38.1271C50.8481 38.2237 50.9459 38.3204 50.7829 38.4331C50.5219 38.5137 49.9838 38.1754 49.8207 38.562C49.7881 38.5459 49.7555 38.5136 49.7555 38.4814C49.5761 38.6103 49.1358 38.7714 49.0543 38.9808C48.8912 38.6586 48.5977 38.8036 48.3204 38.9647C48.0595 39.1257 47.8312 39.2868 47.7497 38.9808L47.1463 39.1741V39.1096C46.7386 39.1741 46.6571 39.3513 46.5592 39.5445C46.4614 39.5284 46.5103 39.4479 46.5103 39.4157C45.9069 39.4479 45.858 39.5123 45.4829 39.9472L45.3688 39.7701C45.3199 39.8506 45.0915 39.8345 44.8143 39.8506C44.5371 39.8667 44.2109 39.915 43.9826 40.1244C43.9826 40.0922 43.9826 40.06 44.0153 40.0117C43.4934 40.4627 42.3519 39.9956 42.3845 40.7848C42.2704 40.8815 42.1562 41.0104 42.0584 41.107C42.5965 40.962 42.1073 41.4453 42.3519 41.4775C42.1725 41.6063 41.7485 41.4775 41.9768 41.3325L42.0257 41.3486C41.9768 40.9459 41.3408 41.4775 41.2593 41.2198C40.2482 41.6224 39.2046 41.8963 38.275 42.299L38.5196 42.5245C38.4055 42.5728 38.3076 42.6211 38.1935 42.6695C38.0793 42.6533 37.9815 42.5084 38.2098 42.4117C38.0141 42.3151 37.9 42.7339 37.9163 42.7983C37.4107 42.9111 37.9326 42.3956 37.7858 42.4601L37.6064 42.5728L37.6717 42.5889C37.5738 42.7822 37.6227 42.895 37.3455 43.0238C37.1498 43.056 37.1661 42.895 37.1009 42.9272C37.0846 42.9111 37.0683 42.9111 36.9867 42.9755L36.5791 43.1527L36.8563 43.2815C36.7421 43.4748 36.4812 43.4587 36.7911 43.6037C36.6769 43.5554 36.5138 43.5554 36.3508 43.6037C36.1877 43.652 36.0083 43.7487 35.8289 43.8614C35.4865 44.0708 35.1603 44.2802 35.0462 44.2802C34.8994 44.5702 34.6548 44.699 34.3612 44.8762C34.4591 44.8762 34.6548 45.0695 34.3939 45.1984C34.1819 44.6668 33.8068 45.2789 33.3828 45.0856C33.7089 45.1984 32.7142 45.6011 33.2197 45.7299C32.9914 45.8266 33.0893 45.5689 32.861 45.5527C32.7631 45.6816 32.649 45.7783 32.5185 45.8749C32.388 45.9715 32.2413 46.0521 32.0945 46.1326C31.7847 46.2937 31.4585 46.4387 31.1813 46.6803C31.2139 46.7447 31.377 46.7608 31.3281 46.938C31.1487 46.9219 30.9693 46.8897 30.7899 46.8736C30.7084 46.9863 30.953 47.2924 30.5942 47.2602C30.6595 47.2924 30.7573 47.3246 30.7084 47.4051C30.3822 47.5501 30.0887 47.7595 29.8115 47.985C29.6647 48.0978 29.5342 48.2105 29.4038 48.3394C29.2733 48.4683 29.1429 48.5971 29.0287 48.726C28.7678 48.9837 28.5069 49.2253 28.2133 49.4508C28.0666 49.5636 27.9198 49.6602 27.7404 49.7408C27.5773 49.8374 27.4143 49.918 27.2186 49.9824C27.4632 49.9502 27.3817 50.0468 27.2838 50.1596C27.3817 50.1112 27.4143 50.2884 27.4958 50.3529L26.8761 50.5945C27.0066 50.8683 26.4358 51.0777 26.5989 51.2871L26.6967 51.126C26.762 51.5126 27.4632 51.3515 27.7241 51.6576C27.6589 51.2066 28.6047 51.5126 28.5558 50.8361C28.6863 50.82 28.5884 50.9811 28.6863 51.0133C28.6699 50.9166 28.6699 50.8361 28.7189 50.7556C28.7678 50.6911 28.8493 50.6267 28.9635 50.5623L28.9798 50.6106C29.469 50.0951 29.8115 50.0146 30.4801 49.5636L30.3007 49.4508C30.4475 49.3542 30.5127 49.3864 30.6105 49.3703C30.5616 49.0159 30.2355 49.6602 30.1376 49.3059C30.5779 49.4669 31.0834 48.5327 31.4911 48.7904C31.7031 48.6293 31.2791 48.6615 31.4911 48.5005L31.6216 48.5488L31.5727 48.3877C31.7194 48.2911 31.8825 48.3716 31.964 48.436C31.9314 48.4521 31.8988 48.5327 31.8662 48.5649C32.1271 48.5327 32.3391 48.1461 32.4207 48.13L32.176 48.2105C32.437 47.9528 32.7631 47.7273 33.073 47.4857C33.3828 47.2441 33.6926 46.9863 33.9209 46.7125L33.8231 46.6642C34.1656 46.2293 34.2471 46.5192 34.6874 46.1326V46.1648C34.7363 46.0199 34.8342 45.891 34.9809 45.8105C34.9157 45.9877 35.3234 45.8427 35.2255 46.0521C35.4212 45.8105 35.4702 45.746 35.4702 45.6816C35.4865 45.6172 35.4538 45.5366 35.5354 45.295L35.6985 45.3756C35.7311 45.1823 35.7148 45.1178 35.9431 44.9407C35.7963 45.1823 36.2203 45.0534 36.0898 45.3433C36.7911 45.3272 36.7095 44.5863 37.1987 44.8762C37.2314 44.3608 36.6117 44.9407 36.7095 44.7796C36.5301 44.7313 36.7584 44.3769 36.9378 44.3286C37.1172 44.248 37.5086 44.6507 37.9326 44.4252C37.8837 44.4413 37.9 44.4735 37.851 44.4896C38.063 44.5057 38.0957 44.1997 38.3892 44.248C38.3892 43.9581 38.6501 44.1192 38.536 43.8131L38.1609 44.0869C38.3566 43.8936 38.3892 43.4265 38.8621 43.4104C38.8621 43.4748 38.7806 43.6198 38.7316 43.7004C38.8784 43.7326 38.911 43.5393 39.0741 43.5715C39.1393 43.7326 39.0089 43.797 38.8621 43.8775C38.7153 43.9581 38.536 44.0547 38.4707 44.2319C38.6501 44.2963 38.8295 43.7809 38.8621 44.1675C38.8295 43.6681 39.3187 44.0064 39.4655 43.5554L39.5307 43.7487C39.5633 43.7004 39.6286 43.5715 39.7101 43.5393L39.6612 43.8453C39.8079 43.5393 40.2156 43.797 40.395 43.5876C39.9058 43.8131 40.183 43.4265 39.9058 43.3782C40.4113 42.8627 40.4765 43.6842 41.1125 43.2977C41.031 43.3621 40.7211 43.346 40.819 43.1849C40.9658 43.1688 41.1778 43.1688 41.2919 43.2332C41.7322 43.0077 41.1451 43.0721 41.2919 42.8789C41.5365 43.0399 41.4713 42.7017 41.6507 42.5406L41.7322 42.7339C42.303 42.6372 41.7159 42.2829 42.2377 42.2345L42.1399 42.5728L42.3519 42.4117L42.3845 42.6533C42.5965 42.3956 42.678 42.3795 42.9716 42.3473C42.8574 42.2345 42.8737 41.9929 43.1183 41.8963C43.3303 41.9446 43.102 42.1057 43.4282 41.9607C43.3956 42.1057 43.363 42.2829 43.151 42.154C43.1673 42.2184 43.1183 42.299 43.1347 42.3634C43.363 42.4278 43.575 42.2345 43.7054 42.1862C43.6565 42.2023 43.5913 42.2023 43.5586 42.1862L43.95 41.7513C44.0479 41.7996 44.0153 41.8802 43.9663 41.9446C44.0642 41.8963 44.0968 41.7835 44.2273 41.703C44.2436 41.8641 44.3088 42.0251 44.1294 42.1701L44.5371 41.8318C44.586 41.8963 44.8306 41.9285 44.798 42.009C45.0916 42.009 45.3362 41.5097 45.7112 41.5258C45.7275 41.4936 45.7438 41.4453 45.8091 41.3969C46.1515 41.3325 46.494 41.4292 46.8038 41.107L47.0974 41.3325C47.3909 41.1875 46.6897 41.0587 47.1789 40.8171C47.5214 40.6238 47.3746 41.0265 47.5214 41.0748C47.6518 40.8815 47.8964 40.511 48.2878 40.656C48.2226 40.801 48.1247 40.7848 48.0269 40.8332ZM51.8102 39.8667C51.745 39.915 51.6145 40.0761 51.5493 39.9634C51.5819 39.7378 51.6635 39.8345 51.8102 39.8667ZM57.6483 38.6586C57.5994 38.7231 57.5015 38.7069 57.4037 38.6264C57.4852 38.6103 57.5668 38.6264 57.6483 38.6586ZM74.5428 38.8841C74.396 38.7714 74.445 38.8197 74.5428 38.8841V38.8841ZM74.869 39.0613C74.9179 39.0452 74.9179 39.013 74.9179 38.9808C74.8853 39.0291 74.8037 39.013 74.7059 38.9647C74.7222 39.0291 74.7548 39.0774 74.869 39.0613ZM37.052 43.0399L37.1335 43.056C37.0357 43.1849 37.052 43.1205 37.052 43.0399Z" fill="#F8756E"/>
<path d="M56.9959 38.9807C56.9798 38.9485 56.9636 38.9162 56.9475 38.8679C56.9313 38.9162 56.9313 38.9485 56.9959 38.9807Z" fill="#F8756E"/>
<path d="M45.7437 41.5903C45.7437 41.5903 45.7276 41.5903 45.7437 41.5903C45.7276 41.6064 45.7276 41.6224 45.7276 41.6224L45.7437 41.5903Z" fill="#F8756E"/>
<path d="M69.1127 39.5285C69.0474 39.4802 69.0148 39.448 68.9985 39.3997C68.9822 39.4641 68.9985 39.4963 69.1127 39.5285Z" fill="#F8756E"/>
<path d="M76.8266 39.3191L76.582 39.303C76.6962 39.3352 76.7125 39.3835 76.7614 39.4318C76.7777 39.3835 76.7614 39.303 76.8266 39.3191Z" fill="#F8756E"/>
<path d="M78.2617 41.1875C78.2943 41.1713 78.327 41.2197 78.3596 41.2036L78.3922 41.1069C78.2617 41.0586 78.1476 41.0908 78.2617 41.1875Z" fill="#F8756E"/>
<path d="M76.8112 40.0277C76.7786 40.1887 76.9254 40.1887 77.0884 40.2209C77.0721 40.2209 77.0721 40.2209 77.0558 40.2048C77.1863 39.9954 76.9906 40.0115 76.8112 40.0277Z" fill="#F8756E"/>
<path d="M77.1211 40.2209C77.17 40.2371 77.2189 40.2371 77.2679 40.2693C77.3168 40.1887 77.2189 40.2371 77.1211 40.2209Z" fill="#F8756E"/>
<path d="M75.3428 39.0936C75.4081 39.158 75.457 38.9003 75.4733 38.9809C75.6364 38.8037 74.9025 39.0614 75.3428 39.0936Z" fill="#F8756E"/>
<path d="M76.7446 40.5915L76.7609 40.3821L76.6142 40.5109L76.7446 40.5915Z" fill="#F8756E"/>
<path d="M75.5869 40.06L75.8152 40.1889C75.8152 40.1567 75.8641 40.1406 75.8968 40.1406C75.75 40.0922 75.6032 39.9956 75.5869 40.06Z" fill="#F8756E"/>
<path d="M75.8965 40.1404C75.978 40.1726 76.0433 40.1887 76.1085 40.1726C76.0759 40.1565 75.978 40.1404 75.8965 40.1404Z" fill="#F8756E"/>
<path d="M76.3857 40.5432L76.3368 40.4787L76.1737 40.3982L76.3857 40.5432Z" fill="#F8756E"/>
<path d="M72.9449 39.2708H72.6514C72.6025 39.3352 72.6677 39.3996 72.7819 39.3835C72.8634 39.3513 72.9776 39.3352 72.9449 39.2708Z" fill="#F8756E"/>
<path d="M73.6142 40.0439C73.549 39.9795 73.5653 39.9311 73.5327 39.8506L73.4512 40.0922L73.6142 40.0439Z" fill="#F8756E"/>
<path d="M72.8316 39.8828C72.7826 39.9472 72.3913 39.9956 72.7337 40.06C72.7826 39.9956 73.0599 40.0117 72.8316 39.8828Z" fill="#F8756E"/>
<path d="M68.8026 38.7716H68.8678L68.9168 38.3528L68.8026 38.7716Z" fill="#F8756E"/>
<path d="M65.0525 39.3673C65.3623 39.4962 65.1503 39.1096 65.4275 39.2707C65.5091 39.174 65.1992 39.1418 65.2808 39.0613C65.0851 39.1579 64.9872 39.0935 65.0525 39.3673Z" fill="#F8756E"/>
<path d="M65.2803 39.0615C65.3126 39.0454 65.3449 39.0293 65.3772 39.0132C65.3288 39.0293 65.2964 39.0454 65.2803 39.0615Z" fill="#F8756E"/>
<path d="M26.4038 50.7556L26.1755 50.8523H26.3875L26.4038 50.7556Z" fill="#F8756E"/>
<path d="M26.3384 51.2712L26.0938 51.1262L26.1916 51.3839C26.2242 51.3517 26.2731 51.2551 26.3384 51.2712Z" fill="#F8756E"/>
<path d="M52.4633 40.3177V40.2533C52.4143 40.1889 52.3654 40.1889 52.2676 40.205L52.4633 40.3177Z" fill="#F8756E"/>
<path d="M49.675 40.6559L49.7239 40.6398L49.5771 40.4304L49.675 40.6559Z" fill="#F8756E"/>
<path d="M47.4733 41.5258C47.5712 41.5097 47.669 41.4292 47.7505 41.413C47.5712 41.5097 47.3755 41.2359 47.4733 41.5258Z" fill="#F8756E"/>
</g>
<path opacity="0.24" d="M121.118 101.237C124.55 101.237 127.332 100.992 127.332 100.69C127.332 100.387 124.55 100.142 121.118 100.142C117.687 100.142 114.905 100.387 114.905 100.69C114.905 100.992 117.687 101.237 121.118 101.237Z" fill="#303178"/>
<path d="M120.727 100.513L94.0641 74.1924C93.8195 73.9508 93.8195 73.5803 94.0641 73.3387L120.727 47.0025C120.971 46.7609 121.346 46.7609 121.591 47.0025L148.254 73.3387C148.498 73.5803 148.498 73.9508 148.254 74.1924L121.591 100.513C121.346 100.754 120.971 100.754 120.727 100.513Z" fill="#39C3CA"/>
<path d="M96.1999 106.215H59.5734C56.5239 106.215 54.0615 103.782 54.0615 100.77V9.1976C54.0615 6.18545 56.5239 3.75317 59.5734 3.75317H96.1999C99.2494 3.75317 101.712 6.18545 101.712 9.1976V100.77C101.696 103.782 99.2331 106.215 96.1999 106.215Z" fill="white"/>
<path d="M96.2003 3.76922C99.2498 3.76922 101.712 6.20149 101.712 9.21365V100.786C101.712 103.799 99.2498 106.231 96.2003 106.231H59.5737C56.5242 106.231 54.0618 103.799 54.0618 100.786V9.19754C54.0618 6.18539 56.5242 3.75311 59.5737 3.75311H96.2003M96.2003 0H59.5737C54.4369 0 50.2459 4.12359 50.2459 9.21365V100.786C50.2459 105.86 54.4206 110 59.5737 110H96.2003C101.337 110 105.528 105.876 105.528 100.786V9.19754C105.512 4.12359 101.337 0 96.2003 0Z" fill="#4285F4"/>
<path d="M23.6812 41.2358L21.708 39.5767C21.5449 39.4318 21.5123 39.174 21.659 39.013C30.7097 28.7845 47.4085 23.4045 62.5418 25.8046C62.7701 25.8368 62.9169 26.0462 62.868 26.2717L62.4277 28.8006C62.3951 29.01 62.1831 29.155 61.9711 29.1228C47.9304 26.8838 32.5198 31.8289 24.203 41.2036C24.0889 41.3486 23.8442 41.3808 23.6812 41.2358Z" fill="#122032"/>
<path d="M97.4887 47.373H57.8616V49.0483H97.4887V47.373Z" fill="#E7E7F2"/>
<path d="M97.3095 62.756H58.0411C57.9433 62.756 57.8617 62.6755 57.8617 62.5788V61.258C57.8617 61.1614 57.9433 61.0808 58.0411 61.0808H97.3095C97.4073 61.0808 97.4889 61.1614 97.4889 61.258V62.5788C97.4889 62.6755 97.4073 62.756 97.3095 62.756Z" fill="#E7E7F2"/>
<path d="M97.3095 76.4638H58.0411C57.9433 76.4638 57.8617 76.3832 57.8617 76.2866V74.9658C57.8617 74.8691 57.9433 74.7886 58.0411 74.7886H97.3095C97.4073 74.7886 97.4889 74.8691 97.4889 74.9658V76.2866C97.4889 76.3832 97.4073 76.4638 97.3095 76.4638Z" fill="#E7E7F2"/>
<path d="M97.3095 90.1716H58.0411C57.9433 90.1716 57.8617 90.091 57.8617 89.9944V88.6735C57.8617 88.5769 57.9433 88.4963 58.0411 88.4963H97.3095C97.4073 88.4963 97.4889 88.5769 97.4889 88.6735V89.9944C97.4889 90.091 97.4073 90.1716 97.3095 90.1716Z" fill="#E7E7F2"/>
<path d="M78.1155 39.3996C84.3209 39.3996 89.3513 34.4308 89.3513 28.3014C89.3513 22.172 84.3209 17.2031 78.1155 17.2031C71.9101 17.2031 66.8797 22.172 66.8797 28.3014C66.8797 34.4308 71.9101 39.3996 78.1155 39.3996Z" fill="#1CE9B6"/>
<path d="M76.4031 34.1967L71.9022 29.6704C71.7391 29.5094 71.7555 29.2677 71.9022 29.1067L73.2884 27.7536C73.4514 27.5925 73.696 27.6086 73.8591 27.7536L76.6477 30.5564L83.8067 23.034C83.9534 22.873 84.2144 22.873 84.3774 23.0179L85.7962 24.3388C85.9592 24.4837 85.9592 24.7415 85.8125 24.9025L76.9738 34.1967C76.8271 34.3578 76.5498 34.3578 76.4031 34.1967Z" fill="white"/>
<g opacity="0.38">
<path d="M83.3173 37.3217C83.3333 37.3217 83.3012 37.2736 83.3012 37.2576C83.2852 37.2896 83.3333 37.3217 83.3173 37.3217Z" fill="#1CE9B6"/>
<path d="M83.121 37.5957L83.1049 37.5635L83.0887 37.644L83.121 37.5957Z" fill="#1CE9B6"/>
<path d="M82.8446 37.7407C82.9098 37.8212 82.9424 37.6762 82.9914 37.6762L83.0077 37.6924L82.9914 37.6118C82.9588 37.6601 82.9098 37.7407 82.8446 37.7407Z" fill="#1CE9B6"/>
<path d="M82.617 37.628C82.6491 37.66 82.6009 37.676 82.6491 37.628C82.6491 37.628 82.6491 37.628 82.633 37.628C82.633 37.6119 82.617 37.628 82.617 37.628Z" fill="#1CE9B6"/>
<path d="M82.6317 37.6111C82.6624 37.5958 82.6011 37.5958 82.6317 37.6111V37.6111Z" fill="#1CE9B6"/>
<path d="M82.518 37.6924L82.5342 37.644C82.518 37.6279 82.4857 37.644 82.4857 37.6118C82.4695 37.6601 82.4857 37.6762 82.518 37.6924Z" fill="#1CE9B6"/>
<path d="M82.5184 37.7729L82.5346 37.7567C82.5184 37.7405 82.5184 37.7405 82.5184 37.7729Z" fill="#1CE9B6"/>
<path d="M82.5505 37.7085L82.5184 37.7566C82.5345 37.7726 82.5505 37.7886 82.5345 37.7405C82.5505 37.7566 82.5505 37.7405 82.5505 37.7085Z" fill="#1CE9B6"/>
<path d="M82.5838 37.7085C82.6162 37.7246 82.6485 37.7246 82.6323 37.773C82.697 37.7246 82.6485 37.6602 82.5838 37.7085Z" fill="#1CE9B6"/>
<path d="M82.8765 37.8374L82.9249 37.8535L82.9411 37.8052C82.9249 37.8213 82.8603 37.8052 82.8765 37.8374Z" fill="#1CE9B6"/>
<path d="M82.2577 37.7568C82.2577 37.7729 82.29 37.8052 82.3061 37.8213L82.3223 37.7891C82.3061 37.7891 82.2738 37.7891 82.2577 37.7568Z" fill="#1CE9B6"/>
<path d="M82.3062 37.8213L82.274 37.8694C82.3222 37.8694 82.3222 37.8373 82.3062 37.8213Z" fill="#1CE9B6"/>
<path d="M82.5504 37.8696L82.5827 37.7729L82.5342 37.8857L82.5504 37.8696Z" fill="#1CE9B6"/>
<path d="M82.1099 37.8213V37.7568L82.0937 37.8535L82.1099 37.8213Z" fill="#1CE9B6"/>
<path d="M81.9957 37.8696C81.9957 37.8213 81.9472 37.8213 81.9634 37.7891C81.9311 37.8052 81.9311 37.8535 81.9149 37.8857C81.9311 37.8535 81.9472 37.8535 81.9957 37.8696Z" fill="#1CE9B6"/>
<path d="M81.8828 37.9337C81.8989 37.9177 81.8989 37.9017 81.8989 37.8696C81.8989 37.9017 81.8989 37.9177 81.8828 37.9337Z" fill="#1CE9B6"/>
<path d="M82.2082 37.9016C82.1921 37.8856 82.1761 37.8695 82.16 37.8535L82.1921 37.9016H82.2082Z" fill="#1CE9B6"/>
<path d="M82.1924 37.9016C82.1762 37.9016 82.16 37.9016 82.16 37.9178C82.16 37.9178 82.1762 37.9016 82.1924 37.9016Z" fill="#1CE9B6"/>
<path d="M82.4207 37.8857C82.4045 37.9341 82.3722 37.9824 82.4369 37.9985C82.4369 37.9502 82.4045 37.9341 82.4207 37.8857Z" fill="#1CE9B6"/>
<path d="M82.2577 37.9497C82.2737 37.9497 82.2898 37.9497 82.3058 37.9497C82.3058 37.9337 82.2898 37.9176 82.2898 37.9016C82.2898 37.9176 82.2737 37.9337 82.2577 37.9497Z" fill="#1CE9B6"/>
<path d="M82.2401 37.9826L82.2563 37.9502H82.2401V37.9826Z" fill="#1CE9B6"/>
<path d="M81.981 37.9661C81.9648 37.9983 81.9486 38.0144 81.9325 38.0144C81.9648 38.0144 81.9971 38.0144 82.0133 37.9983C82.0133 37.9822 82.0133 37.95 81.981 37.9661Z" fill="#1CE9B6"/>
<path d="M81.6864 38.095L81.7017 38.1103L81.6864 38.095Z" fill="#1CE9B6"/>
<path d="M82.0285 38.0145C82.0446 38.0145 82.0606 37.9984 82.0606 37.9824C82.0446 37.9824 82.0285 37.9984 82.0285 38.0145C82.0124 38.0145 82.0124 38.0145 82.0285 38.0145Z" fill="#1CE9B6"/>
<path d="M81.8338 37.9823C81.8499 37.9983 81.866 37.9983 81.882 37.9983C81.866 37.9983 81.8338 37.9662 81.8338 37.9823Z" fill="#1CE9B6"/>
<path d="M82.0785 37.9346C82.062 37.918 82.062 37.918 82.0785 37.9346V37.9346Z" fill="#1CE9B6"/>
<path d="M82.0782 37.9338C82.0782 37.9499 82.0622 37.9659 82.0622 37.9819C82.0782 37.9659 82.0782 37.9499 82.0782 37.9338Z" fill="#1CE9B6"/>
<path d="M81.736 38.4818C81.7196 38.4335 81.7686 38.3691 81.8338 38.4013C81.8664 38.3529 81.7849 38.1919 81.7033 38.1113C81.7033 38.1274 81.7197 38.1596 81.687 38.208C81.7197 38.2241 81.8175 38.2402 81.7849 38.3046C81.736 38.3529 81.7197 38.3046 81.687 38.2885C81.736 38.3368 81.6381 38.4013 81.687 38.4979L81.736 38.4496C81.7196 38.4335 81.7196 38.4657 81.736 38.4818Z" fill="#1CE9B6"/>
<path d="M81.7828 38.0791L81.799 38.063C81.7666 38.063 81.7505 38.0469 81.7182 38.0146C81.702 38.0469 81.702 38.0791 81.702 38.0952L81.7828 38.0791Z" fill="#1CE9B6"/>
<path d="M81.8812 38.0469C81.8812 38.1113 81.8486 38.1435 81.8975 38.1918C81.9464 38.1757 81.9138 38.1274 81.9464 38.0952C81.8649 38.1435 81.9627 38.0469 81.8812 38.0469C81.8975 38.0308 81.9138 38.0308 81.9301 38.0146C81.9138 38.0146 81.8975 38.0146 81.8812 38.0146C81.8812 38.0146 81.8975 38.0308 81.8812 38.0146C81.8812 38.0308 81.8812 38.0308 81.8812 38.0469C81.8486 38.0469 81.8649 38.0308 81.8812 38.0308V38.0146L81.7997 38.0791C81.816 38.063 81.8486 38.063 81.8812 38.0469Z" fill="#1CE9B6"/>
<path d="M82.4527 38.1438C82.4362 38.1272 82.4362 38.1272 82.4527 38.1438C82.4362 38.1438 82.4362 38.1438 82.4527 38.1438Z" fill="#1CE9B6"/>
<path d="M82.3876 38.1272C82.3876 38.1111 82.3876 38.0949 82.4039 38.0949C82.4366 38.0949 82.4203 38.1272 82.4203 38.1433C82.4203 38.1272 82.4529 38.0788 82.4039 38.0788V38.0949C82.355 38.0949 82.2898 38.0466 82.2898 38.0305C82.3224 38.0466 82.355 38.0788 82.3876 38.1272Z" fill="#1CE9B6"/>
<path d="M82.1426 38.095L82.0779 38.1433L82.1264 38.1755L82.1102 38.1433C82.1749 38.1594 82.1426 38.1272 82.1426 38.095Z" fill="#1CE9B6"/>
<path d="M81.6708 38.0791L81.6546 38.0146L81.6384 38.1113L81.6708 38.0791Z" fill="#1CE9B6"/>
<path d="M81.572 38.1108L81.5559 38.0627L81.5399 38.0948L81.572 38.1108Z" fill="#1CE9B6"/>
<path d="M75.8327 38.723L75.8487 38.6909C75.8327 38.7069 75.8166 38.723 75.8327 38.723Z" fill="#1CE9B6"/>
<path d="M79.0936 38.4978C79.0613 38.4495 79.029 38.369 79.029 38.4334L79.0451 38.4978C79.0613 38.4817 79.0775 38.4817 79.0936 38.4978Z" fill="#1CE9B6"/>
<path d="M77.3163 38.723V38.739C77.3324 38.723 77.3323 38.7069 77.3484 38.6909C77.3484 38.7069 77.3324 38.7069 77.3163 38.723Z" fill="#1CE9B6"/>
<path d="M77.2509 38.9648L77.2187 38.9167C77.2187 38.9328 77.2348 38.9488 77.2509 38.9648Z" fill="#1CE9B6"/>
<path d="M74.7062 38.4333L74.6581 38.4814C74.7062 38.4974 74.6902 38.4494 74.7062 38.4333Z" fill="#1CE9B6"/>
<path d="M80.5604 38.3689C80.528 38.3528 80.4957 38.3528 80.4796 38.3528C80.528 38.385 80.5604 38.4333 80.5604 38.3689Z" fill="#1CE9B6"/>
<path d="M75.8982 38.0791C75.8821 38.0791 75.8661 38.0951 75.8661 38.1112C75.8982 38.1112 75.8982 38.0951 75.8982 38.0791Z" fill="#1CE9B6"/>
<path d="M80.3983 38.3689C80.3983 38.3689 80.4145 38.3689 80.4145 38.385C80.4306 38.3689 80.4468 38.3528 80.4791 38.3528C80.4629 38.3367 80.4306 38.3206 80.3983 38.3689Z" fill="#1CE9B6"/>
<path d="M71.0056 35.8562C71.0217 35.8562 71.0218 35.8724 71.0379 35.8724C71.0379 35.8724 71.0217 35.8724 71.0056 35.8562Z" fill="#1CE9B6"/>
<path d="M81.2139 38.2078C81.1977 38.2078 81.1977 38.1917 81.1815 38.1917C81.1815 38.2078 81.1977 38.2078 81.2139 38.2078Z" fill="#1CE9B6"/>
<path d="M81.1979 38.1912H81.2133C81.2133 38.1759 81.2133 38.1759 81.1979 38.1912Z" fill="#1CE9B6"/>
<path d="M81.1483 38.2079C81.1645 38.2079 81.1645 38.2079 81.1807 38.2079C81.1645 38.1917 81.1645 38.2079 81.1483 38.2079Z" fill="#1CE9B6"/>
<path d="M78.4091 39.1423C78.4415 39.0778 78.4738 39.0778 78.49 39.0939L78.4738 38.9167L78.4091 39.1423Z" fill="#1CE9B6"/>
<path d="M75.2452 38.5622L75.2778 38.6266C75.18 38.6911 75.1473 38.6428 75.18 38.7394C75.2452 38.5622 75.4083 38.7877 75.4735 38.6105L75.5061 38.6589C75.4898 38.6589 75.4898 38.6589 75.4735 38.6589C75.5224 38.7716 75.5713 38.5461 75.6529 38.5944C75.6855 38.6105 75.7018 38.6428 75.6692 38.6589L75.7507 38.6428C75.767 38.6589 75.7507 38.675 75.7344 38.675L75.8486 38.6911C75.8649 38.675 75.9138 38.6266 75.9464 38.6266C75.9627 38.6589 75.9301 38.6428 75.9301 38.6589L75.9953 38.6266C76.0116 38.675 75.9464 38.7072 75.8975 38.6911C75.8975 38.8844 75.9627 38.6589 76.0606 38.8038L75.9953 38.8199C76.0116 38.9327 76.0606 38.9005 76.1095 38.981C76.1095 38.9488 76.0116 38.7877 76.0932 38.7555C76.1095 38.7716 76.1258 38.7877 76.1747 38.7555C76.1584 38.8199 76.191 38.8199 76.2399 38.8199L76.2236 38.9005C76.2726 38.8844 76.2889 38.836 76.3215 38.8038C76.3704 38.8199 76.3704 38.9005 76.3704 38.9488C76.4519 38.981 76.3378 38.836 76.4356 38.836C76.5009 38.8844 76.5498 38.8522 76.6476 38.8199C76.6965 38.8683 76.6313 38.8683 76.6476 38.9005L76.7129 38.836C76.7292 38.836 76.7129 38.8683 76.7129 38.8683C76.7618 38.8522 76.7292 38.7877 76.7944 38.7716C76.827 38.675 76.8922 38.9327 76.9738 38.836C76.9901 38.8683 76.9575 38.8844 76.9575 38.9166C77.0716 38.8683 77.0553 38.8844 77.1532 38.8038L77.2184 38.8683C77.1858 38.7877 77.251 38.7233 77.3162 38.675C77.2999 38.6428 77.2999 38.6105 77.2836 38.5944C77.3162 38.5783 77.3488 38.5783 77.3815 38.5622C77.3978 38.5783 77.3815 38.6105 77.3488 38.6428L77.3651 38.6266C77.3978 38.6589 77.3652 38.7072 77.3325 38.7555C77.3325 38.7394 77.3162 38.7233 77.3162 38.6911C77.2836 38.7394 77.251 38.7877 77.251 38.8522C77.251 38.836 77.2673 38.836 77.2836 38.836C77.2673 38.8522 77.2673 38.8683 77.2673 38.8683C77.2673 38.8844 77.2836 38.8522 77.2999 38.836V38.9327L77.3162 38.9005L77.4304 38.981C77.5282 38.9005 77.6261 38.7555 77.7565 38.7394C77.7076 38.8038 77.7402 38.8522 77.7239 38.9327C77.6913 38.836 77.6098 38.9488 77.5445 38.9327C77.5771 38.9488 77.5608 38.981 77.5608 38.9971L77.6913 38.9327C77.675 38.9971 77.7076 38.981 77.7402 39.0132C77.7239 38.8683 77.8381 38.9327 77.9033 38.9005C77.9033 38.9488 77.887 38.9971 77.8218 38.981C77.887 39.0938 77.9196 38.836 77.9848 38.9166C77.9685 38.9166 77.9685 38.9005 77.9522 38.9327C77.9848 38.9005 78.0827 38.9327 78.0501 38.981H78.0338C78.1316 39.0132 78.3436 38.9971 78.3599 38.8844C78.3599 38.9005 78.3436 39.0293 78.3273 39.0454C78.3925 38.9166 78.4577 38.7877 78.523 38.6589C78.5067 38.7555 78.5556 38.9971 78.4741 39.0454C78.4904 39.0616 78.523 39.0777 78.5882 39.0454C78.5719 39.0293 78.5556 38.9005 78.5719 38.8844C78.6371 38.9971 78.6208 38.9488 78.6861 39.0454C78.6534 39.0293 78.6861 38.8683 78.735 38.8683C78.735 38.8844 78.735 39.0293 78.7187 39.0454L78.8165 38.8844C78.7839 38.9166 78.8165 39.0132 78.8328 39.0616C78.8165 39.0293 78.9144 39.0616 78.947 39.0454L78.898 39.0132C79.0122 39.0454 79.0122 38.8038 79.11 38.8038C79.0937 38.836 79.0774 38.9971 79.1427 39.0132C79.1753 38.9327 79.2405 38.6266 79.3384 38.5622L79.3547 38.6105L79.4199 38.5622C79.3873 38.675 79.2568 38.9327 79.1916 39.0293C79.2405 39.0616 79.2079 39.0777 79.2731 39.0777C79.2894 39.126 79.2405 39.1421 79.2242 39.1421L79.371 39.1582C79.3547 39.0616 79.4851 39.0616 79.4688 38.981L79.322 39.0777C79.3057 38.981 79.4036 38.8199 79.5014 38.8199C79.534 38.8522 79.4851 38.981 79.5014 39.0132C79.5177 38.981 79.5993 38.9488 79.5993 38.9649L79.5667 39.0132C79.6319 39.0454 79.6482 38.8844 79.7297 38.9649C79.746 38.9649 79.8113 39.0777 79.8113 39.0293C79.7623 38.9327 79.7297 38.6105 79.746 38.53C79.7623 38.53 79.8765 38.6266 79.9091 38.675C79.958 38.7555 79.8765 38.8844 79.9091 38.9488C79.9091 38.9166 79.9254 38.8844 79.9417 38.8844C79.9743 38.9005 79.9417 38.9649 79.9907 38.9488C79.9907 38.8522 80.1048 38.9488 80.007 38.8683C80.0559 38.836 80.0722 38.8844 80.1211 38.8683C80.0885 38.8038 80.1537 38.6589 80.2026 38.6266C80.2026 38.6428 80.219 38.675 80.219 38.6911C80.3331 38.6911 80.382 38.7233 80.4799 38.7072C80.4962 38.7233 80.5451 38.7394 80.5288 38.7877C80.5451 38.7716 80.5451 38.7394 80.5777 38.7233C80.6429 38.7877 80.5125 38.7394 80.5777 38.836C80.5777 38.7877 80.643 38.7555 80.6756 38.7072C80.643 38.6266 80.5777 38.7072 80.5288 38.7555C80.5125 38.6428 80.5614 38.5139 80.6593 38.4334C80.7408 38.385 80.7082 38.4978 80.7245 38.4817C80.8713 38.4656 80.806 38.2562 80.9528 38.3045C81.018 38.3689 80.9854 38.4495 81.018 38.4978C80.9528 38.5461 80.9039 38.4817 80.8713 38.4817L80.9365 38.4978C80.9202 38.53 80.8876 38.5461 80.8549 38.5461C80.9039 38.5944 81.1159 38.5139 81.2463 38.53C81.2626 38.4978 81.2952 38.4656 81.2626 38.4495L81.23 38.4656C81.1811 38.4172 81.2789 38.3689 81.23 38.3528C81.2626 38.3045 81.2952 38.224 81.3768 38.2401L81.4094 38.3206C81.3931 38.3045 81.3442 38.2884 81.3442 38.3206C81.3605 38.2723 81.4746 38.4011 81.4746 38.2884L81.4094 38.2401C81.442 38.1917 81.4746 38.0951 81.5399 38.0951C81.4909 38.0307 81.5236 38.1112 81.4583 38.0307C81.5236 38.1434 81.3116 38.0629 81.4094 38.1756C81.3279 38.079 81.3279 38.1434 81.2463 38.079C81.2626 38.1112 81.2789 38.1273 81.23 38.1273C81.23 38.1434 81.23 38.1434 81.23 38.1595C81.2463 38.1756 81.2626 38.1756 81.2626 38.1917C81.2626 38.2562 81.1811 38.2723 81.1648 38.3206C81.1322 38.3206 81.1648 38.2884 81.1485 38.2562L81.1159 38.3206C81.0996 38.2562 81.018 38.2401 81.0669 38.1917L81.0017 38.2078C80.9528 38.1756 80.9039 38.1756 80.8713 38.2078C80.8386 38.2078 80.806 38.2884 80.8223 38.2401L80.7245 38.3045V38.2884C80.6266 38.3045 80.5451 38.4172 80.4146 38.3367C80.382 38.3528 80.3494 38.385 80.3005 38.3689L80.2842 38.3206C80.2516 38.3367 80.1537 38.2884 80.1374 38.3367C80.0722 38.1917 79.9254 38.3367 79.8439 38.3206V38.385C79.795 38.385 79.746 38.4011 79.6808 38.4334L79.6971 38.4978C79.6482 38.5461 79.5503 38.4656 79.4688 38.4817C79.4688 38.4656 79.5014 38.4656 79.5177 38.4817C79.4036 38.3528 79.3057 38.5944 79.1916 38.4978C79.1753 38.5139 79.1427 38.5139 79.1264 38.4978C79.1264 38.4978 79.1264 38.4978 79.11 38.4978C79.0937 38.4817 79.0937 38.4817 79.0774 38.4656C79.0937 38.4817 79.0937 38.4978 79.11 38.4978C79.0937 38.4978 79.0611 38.5139 79.0285 38.53L79.0122 38.4656C78.9796 38.4334 78.9959 38.4978 79.0122 38.5461C78.9959 38.5622 78.9796 38.5622 78.9796 38.5783C78.9633 38.4656 78.9144 38.6105 78.8817 38.4978C78.8654 38.5461 78.7513 38.53 78.7187 38.6589C78.7187 38.6428 78.7024 38.6428 78.7187 38.6428C78.6861 38.6266 78.6534 38.6105 78.6208 38.6428L78.6045 38.5622L78.5393 38.675C78.5067 38.6266 78.4904 38.5944 78.523 38.53C78.4251 38.6266 78.4414 38.5622 78.3599 38.6589V38.6105C78.3273 38.6105 78.2784 38.675 78.2621 38.6428C78.1968 38.5461 77.9359 38.5944 77.7728 38.4817C77.7891 38.6428 77.7076 38.4011 77.675 38.53C77.675 38.4978 77.6424 38.4656 77.675 38.4334C77.5771 38.4656 77.5608 38.3528 77.4793 38.4495C77.4793 38.4172 77.5119 38.4011 77.4956 38.3689C77.4956 38.3689 77.463 38.4011 77.463 38.3689C77.463 38.3528 77.4793 38.3367 77.4956 38.3206C77.4141 38.3206 77.3815 38.4334 77.3651 38.53C77.3325 38.4656 77.2999 38.4817 77.2673 38.5461C77.251 38.5139 77.2347 38.4656 77.2999 38.4656C77.2673 38.4495 77.1205 38.385 77.1042 38.4656C77.1042 38.4495 77.0553 38.4495 77.0553 38.4656C76.9901 38.4495 76.9901 38.4334 76.9085 38.4334L76.9249 38.4495C76.8759 38.5461 76.8596 38.4656 76.8107 38.4656V38.4495C76.6965 38.3528 76.7455 38.4656 76.6476 38.3689V38.4334C76.5987 38.5622 76.5498 38.3367 76.4682 38.3689L76.4845 38.4172C76.4356 38.4495 76.4193 38.2078 76.3867 38.1756C76.3867 38.1595 76.403 38.1595 76.4193 38.1595C76.3378 38.0468 76.3867 38.2401 76.3052 38.2401C76.3052 38.1917 76.3541 38.1273 76.3052 38.1112C76.2889 38.0629 76.1258 38.224 76.0769 38.1112C76.0769 38.1434 76.0932 38.1917 76.0442 38.2078C75.979 38.2078 75.9301 38.0307 75.8649 38.1273C75.8649 38.1112 75.8649 38.1112 75.8649 38.0951C75.8159 38.1112 75.7181 38.1112 75.6692 38.1595C75.7018 37.934 75.3756 38.1917 75.4409 37.9823L75.3104 37.9501L75.3267 37.934C75.2452 37.9018 75.2126 37.934 75.1636 37.9662C75.1473 37.9501 75.1636 37.934 75.18 37.9179C75.0821 37.8374 75.0658 37.8374 74.9353 37.9018L74.9516 37.8374C74.9027 37.8696 74.8212 37.6763 74.6907 37.7085L74.707 37.6924C74.544 37.7246 74.4787 37.4025 74.332 37.6119L74.2178 37.628C74.3157 37.6924 74.1526 37.7246 74.1852 37.7729C74.1363 37.7729 74.1037 37.6602 74.1689 37.6763V37.6924C74.2341 37.5796 74.0547 37.5957 74.0874 37.5152C73.8754 37.4347 73.696 37.2736 73.5166 37.1769L73.5003 37.2736L73.4351 37.2414C73.4351 37.2092 73.4514 37.1608 73.484 37.1931C73.484 37.1286 73.3861 37.1931 73.3698 37.2253C73.2883 37.1447 73.4514 37.1447 73.4351 37.1286L73.3861 37.1125V37.1286C73.3372 37.1447 73.3209 37.1931 73.2557 37.1608C73.2231 37.1286 73.272 37.0964 73.2557 37.0803C73.2557 37.0803 73.2557 37.0642 73.2394 37.0642L73.1578 37.0159V37.0964C73.1089 37.1125 73.0763 37.0481 73.0763 37.1608C73.0763 37.0159 72.7828 36.9675 72.7665 36.9031C72.6849 36.9353 72.636 36.9031 72.5708 36.8548C72.5708 36.8709 72.5381 36.9675 72.4892 36.9192C72.6034 36.7742 72.424 36.7904 72.4403 36.6615C72.4403 36.7581 72.2772 36.5971 72.2772 36.742C72.2446 36.7098 72.3098 36.6776 72.2935 36.6293C72.1468 36.6293 72.0815 36.4521 71.9348 36.4038C71.9185 36.4199 71.9185 36.4682 71.8858 36.4843L71.8695 36.3393C71.8369 36.3393 71.7717 36.4521 71.7717 36.3554C71.7717 36.3716 71.7554 36.4038 71.7391 36.4038C71.5434 36.1622 71.1683 36.1783 71.0216 35.84C71.0379 35.9044 71.0052 35.8883 70.9726 35.8722C70.9889 35.8883 70.94 35.9205 70.9237 35.9528L70.8585 35.8078C70.7932 35.8722 70.7443 35.7434 70.6791 35.8078H70.728C70.6302 35.8722 70.6628 36.0333 70.5976 36.146C70.7117 36.0816 70.6465 36.3716 70.8096 36.291C70.8096 36.3232 70.7769 36.3232 70.7606 36.3554C70.8096 36.3232 70.8422 36.3232 70.8748 36.3716L70.8585 36.3877C71.0052 36.4521 71.0216 36.5326 71.1683 36.6615L71.1846 36.5971C71.2172 36.6293 71.2172 36.6454 71.2172 36.6615C71.2988 36.5971 71.1357 36.5971 71.2172 36.5326C71.2009 36.6776 71.4455 36.6615 71.3966 36.8226C71.4455 36.8548 71.4129 36.742 71.4782 36.7743V36.8226L71.5108 36.7904C71.5434 36.8226 71.5271 36.8709 71.5108 36.9031C71.5108 36.887 71.4782 36.9031 71.4782 36.9031C71.4945 36.9675 71.6086 36.9514 71.6086 36.9837L71.576 36.9353C71.7391 36.9837 71.8858 37.1286 72.0489 37.1286V37.0964C72.1794 37.0964 72.1142 37.1769 72.2446 37.2092C72.2772 37.1931 72.3261 37.1931 72.3425 37.2092C72.2935 37.2253 72.3588 37.3058 72.3098 37.3219C72.4566 37.3219 72.3914 37.3058 72.5218 37.2414V37.2897C72.5708 37.2575 72.5871 37.2414 72.6523 37.2575C72.5871 37.2736 72.6523 37.338 72.5708 37.3702C72.636 37.5313 72.7991 37.3541 72.7828 37.5313C72.8969 37.4347 72.7175 37.4025 72.7501 37.4025C72.7501 37.3541 72.848 37.338 72.8806 37.3541C72.9132 37.3702 72.8643 37.5474 72.9621 37.5957C72.9458 37.5957 72.9458 37.5957 72.9458 37.5957C72.9621 37.6441 73.0437 37.5796 73.06 37.6602C73.1252 37.5957 73.1252 37.6924 73.1741 37.5957L73.0763 37.5796C73.1415 37.5796 73.2394 37.483 73.3046 37.5796C73.2883 37.5957 73.2557 37.6119 73.2231 37.6119C73.2394 37.6602 73.272 37.6119 73.2883 37.6602C73.2394 37.7568 73.1741 37.628 73.0763 37.6763C73.0763 37.7246 73.2231 37.6602 73.1415 37.7407C73.2394 37.628 73.2394 37.8051 73.3535 37.7246L73.3209 37.789C73.3372 37.789 73.3698 37.7729 73.3861 37.7729L73.3209 37.8374C73.4024 37.789 73.4024 37.9501 73.4677 37.934C73.3535 37.8857 73.4677 37.8535 73.4514 37.789C73.6307 37.7729 73.4514 37.9823 73.6307 38.0146C73.5981 38.0146 73.5655 37.9501 73.6144 37.934C73.6307 37.9662 73.6634 37.9984 73.6634 38.0307C73.7775 38.0629 73.6797 37.9662 73.7286 37.9501C73.7286 38.0307 73.7938 37.9501 73.8427 37.934L73.8101 37.9984C73.908 38.079 73.8917 37.8857 73.9732 37.9823L73.8917 38.0468H73.9569L73.908 38.1112C73.9895 38.079 74.0058 38.1112 74.0547 38.1434C74.0547 38.0951 74.1037 38.0307 74.1689 38.0468C74.1852 38.0951 74.12 38.0951 74.2015 38.1112C74.1689 38.1434 74.1363 38.1756 74.12 38.1112C74.1037 38.1273 74.0874 38.1434 74.071 38.1595C74.0874 38.224 74.1689 38.2078 74.1852 38.224C74.1689 38.224 74.1689 38.2078 74.1689 38.1917L74.3157 38.1434C74.3157 38.1756 74.2993 38.1917 74.283 38.1917C74.3157 38.1917 74.332 38.1756 74.3646 38.1756C74.332 38.224 74.3157 38.2723 74.2667 38.2884L74.3972 38.2723C74.3972 38.3045 74.4298 38.3528 74.4135 38.3689C74.4624 38.4172 74.5929 38.3206 74.6581 38.385C74.6581 38.3689 74.6744 38.3689 74.6907 38.3689C74.756 38.4011 74.8049 38.4978 74.9027 38.4495L74.919 38.5622C75.0006 38.5622 74.8864 38.4172 75.0169 38.4334C75.0984 38.4334 75.0169 38.5139 75.0332 38.5622C75.0821 38.53 75.1963 38.4495 75.2289 38.5461C75.2778 38.5783 75.2615 38.5622 75.2452 38.5622ZM76.0932 38.7716C76.0769 38.7877 76.0279 38.8199 76.0279 38.7716C76.0606 38.6911 76.0769 38.7394 76.0932 38.7716ZM77.4141 38.8683C77.3978 38.8844 77.3815 38.8683 77.3651 38.8522C77.3815 38.8522 77.3978 38.8522 77.4141 38.8683ZM80.9528 38.3045C80.9202 38.2884 80.9365 38.3045 80.9528 38.3045V38.3045ZM81.0343 38.3206C81.0343 38.3045 81.0343 38.3045 81.0343 38.2884C81.0343 38.3045 81.018 38.3045 81.0017 38.3045C81.0017 38.3206 81.018 38.3367 81.0343 38.3206ZM73.272 37.0964V37.1125C73.2394 37.1286 73.2557 37.1125 73.272 37.0964Z" fill="#1CE9B6"/>
<path d="M74.7232 38.4172C74.7067 38.4172 74.7067 38.4338 74.7232 38.4172V38.4172Z" fill="#1CE9B6"/>
<path d="M79.9579 39.0613C79.9418 39.0613 79.9257 39.0453 79.9257 39.0293C79.9257 39.0453 79.9418 39.0613 79.9579 39.0613Z" fill="#1CE9B6"/>
<path d="M81.3769 38.1113L81.3448 38.1434C81.3608 38.1273 81.3769 38.1434 81.3929 38.1594C81.3769 38.1274 81.3608 38.1113 81.3769 38.1113Z" fill="#1CE9B6"/>
<path d="M81.8984 38.3689C81.8984 38.3528 81.9145 38.3689 81.9145 38.3529L81.8984 38.3208C81.8823 38.3368 81.8663 38.3689 81.8984 38.3689Z" fill="#1CE9B6"/>
<path d="M81.492 38.3045C81.5082 38.3529 81.5405 38.3367 81.5567 38.3045C81.5405 38.2401 81.5082 38.2723 81.492 38.3045Z" fill="#1CE9B6"/>
<path d="M81.5721 38.3047C81.5883 38.3047 81.5883 38.2885 81.6045 38.2885C81.5883 38.2723 81.5883 38.3047 81.5721 38.3047Z" fill="#1CE9B6"/>
<path d="M81.1153 38.2563C81.1315 38.2724 81.1153 38.1919 81.1153 38.208C81.1153 38.1274 81.0507 38.3207 81.1153 38.2563Z" fill="#1CE9B6"/>
<path d="M81.572 38.4813L81.5399 38.4172V38.4813H81.572Z" fill="#1CE9B6"/>
<path d="M81.296 38.4978H81.3607C81.3607 38.4817 81.3607 38.4817 81.3607 38.4656C81.3284 38.4817 81.2799 38.4817 81.296 38.4978Z" fill="#1CE9B6"/>
<path d="M81.3602 38.4818C81.3764 38.4818 81.3926 38.4656 81.3926 38.4656C81.3926 38.4656 81.3764 38.4656 81.3602 38.4818Z" fill="#1CE9B6"/>
<path d="M80.7238 38.6106L80.6757 38.6426C80.6757 38.6747 80.6917 38.6747 80.7078 38.6587C80.7078 38.6426 80.7238 38.6426 80.7238 38.6106Z" fill="#1CE9B6"/>
<path d="M80.9366 38.7715C80.9204 38.7554 80.9204 38.7393 80.9043 38.7231L80.9204 38.8037L80.9366 38.7715Z" fill="#1CE9B6"/>
<path d="M80.7565 38.8198C80.7565 38.852 80.6757 38.9004 80.7565 38.8843C80.7726 38.852 80.8211 38.8359 80.7565 38.8198Z" fill="#1CE9B6"/>
<path d="M79.8436 38.8359H79.8598L79.8436 38.6909V38.8359Z" fill="#1CE9B6"/>
<path d="M79.0441 39.2065C79.1249 39.2387 79.0603 39.126 79.1249 39.1582C79.1411 39.126 79.0764 39.126 79.0926 39.0938C79.0603 39.1421 79.028 39.126 79.0441 39.2065Z" fill="#1CE9B6"/>
<path d="M79.0936 39.1091L79.1089 39.0938C79.1089 39.0938 79.0936 39.0938 79.0936 39.1091Z" fill="#1CE9B6"/>
<path d="M70.8909 35.7109L70.8749 35.6628V35.7269L70.8909 35.7109Z" fill="#1CE9B6"/>
<path d="M70.7597 35.7592L70.792 35.6787L70.7274 35.727C70.7436 35.727 70.7759 35.7431 70.7597 35.7592Z" fill="#1CE9B6"/>
<path d="M76.1751 38.9648L76.1912 38.9488C76.1912 38.9167 76.1751 38.9167 76.159 38.9167L76.1751 38.9648Z" fill="#1CE9B6"/>
<path d="M75.5711 38.7392H75.5872V38.6587L75.5711 38.7392Z" fill="#1CE9B6"/>
<path d="M75.033 38.6749C75.0492 38.691 75.0815 38.6749 75.0977 38.691C75.0492 38.691 75.0654 38.5782 75.033 38.6749Z" fill="#1CE9B6"/>
</g>
<path d="M97.8143 31.2972C96.3955 31.2972 94.9442 31.2328 93.4602 31.1201C93.2319 31.1039 93.0688 30.9106 93.0851 30.6851L93.3134 28.1401C93.3297 27.9307 93.5254 27.7696 93.7374 27.7857C107.403 28.865 118.199 24.5803 124.216 15.721C124.33 15.5438 124.575 15.4955 124.754 15.6083L126.923 17.0096C127.119 17.1224 127.168 17.3801 127.037 17.5734C120.987 26.5132 110.73 31.2972 97.8143 31.2972Z" fill="#122032"/>
<path d="M110.534 71.76C110.159 71.76 109.833 71.4701 109.833 71.0835C109.833 70.713 110.126 70.3909 110.501 70.3909C110.877 70.3909 111.203 70.6808 111.203 71.0674C111.219 71.4379 110.925 71.7439 110.534 71.76C110.159 71.76 110.534 71.76 110.534 71.76ZM102.331 71.5184C101.956 71.4862 101.663 71.164 101.695 70.7935C101.728 70.4231 102.054 70.1331 102.429 70.1653C102.804 70.1976 103.098 70.5197 103.065 70.8902C103.033 71.2446 102.739 71.5184 102.38 71.5184C102.364 71.5184 102.348 71.5184 102.331 71.5184ZM117.954 70.5358C117.905 70.1653 118.166 69.811 118.541 69.7627C118.916 69.7143 119.275 69.972 119.324 70.3425C119.373 70.713 119.112 71.0674 118.737 71.1157C118.704 71.1157 118.671 71.1157 118.639 71.1157C118.296 71.1157 118.003 70.8741 117.954 70.5358ZM94.194 70.713C93.8189 70.6647 93.5417 70.3264 93.5906 69.9559C93.6396 69.5855 93.982 69.3116 94.3571 69.36C94.7321 69.4083 95.0094 69.7465 94.9605 70.117C94.9115 70.4553 94.618 70.713 94.2755 70.713C94.2429 70.713 94.2103 70.713 94.194 70.713ZM125.928 68.925C125.83 68.5707 126.042 68.1841 126.401 68.0874C126.76 67.9908 127.151 68.2002 127.249 68.5546C127.347 68.9089 127.135 69.2955 126.776 69.3922C126.711 69.4083 126.646 69.4244 126.597 69.4244C126.287 69.4244 126.01 69.215 125.928 68.925ZM133.707 66.525C133.577 66.1706 133.772 65.784 134.131 65.6552C134.49 65.5263 134.881 65.7196 135.012 66.074C135.142 66.4283 134.946 66.8149 134.588 66.9438C134.506 66.976 134.441 66.976 134.359 66.976C134.082 66.9921 133.805 66.8149 133.707 66.525ZM141.29 63.5289C141.127 63.1907 141.29 62.788 141.632 62.6269C141.975 62.4658 142.383 62.6269 142.546 62.9652C142.709 63.3034 142.546 63.7061 142.203 63.8672C142.105 63.8994 142.007 63.9316 141.926 63.9316C141.649 63.9316 141.404 63.7867 141.29 63.5289ZM148.694 60.1463C148.53 59.808 148.677 59.4053 149.02 59.2443C149.362 59.0832 149.77 59.2282 149.933 59.5664C150.096 59.9047 149.949 60.3074 149.607 60.4685C149.509 60.5168 149.411 60.5329 149.313 60.5329C149.052 60.5329 148.808 60.3879 148.694 60.1463Z" fill="#122032"/>
<path d="M0.0841793 59.8726C-0.0952026 59.5343 0.0189497 59.1316 0.361406 58.9545C0.687555 58.7773 1.11155 58.89 1.29093 59.2283C1.47031 59.5504 1.35616 59.9692 1.0137 60.1464C0.91586 60.1948 0.801707 60.227 0.687555 60.227C0.459251 60.227 0.214639 60.0981 0.0841793 59.8726ZM7.42253 56.3611C7.27577 56.0067 7.45515 55.6201 7.79761 55.4752C8.15637 55.3302 8.54775 55.5074 8.69452 55.8457C8.84128 56.2 8.6619 56.5866 8.31944 56.7316C8.23791 56.7638 8.14006 56.7799 8.05852 56.7799C7.7813 56.7799 7.52038 56.6188 7.42253 56.3611ZM15.1033 53.7033C15.0055 53.3328 15.2175 52.9624 15.5926 52.8657C15.9513 52.7691 16.3427 52.9785 16.4406 53.3489C16.5384 53.7194 16.3264 54.0899 15.9513 54.1866C15.8861 54.2027 15.8372 54.2188 15.7719 54.2188C15.4621 54.2027 15.1849 54.0094 15.1033 53.7033ZM47.8813 53.8644C47.5063 53.7839 47.278 53.4134 47.3595 53.0429C47.441 52.6724 47.8161 52.4469 48.1912 52.5275C48.5662 52.608 48.7945 52.9785 48.713 53.3489C48.6315 53.6711 48.3542 53.8805 48.0444 53.8805C47.9792 53.8805 47.9303 53.8644 47.8813 53.8644ZM23.0777 52.012C23.0288 51.6415 23.2897 51.2872 23.6648 51.2388C24.0398 51.1905 24.3986 51.4482 24.4475 51.8187C24.4964 52.1892 24.2355 52.5436 23.8604 52.5919C23.8278 52.5919 23.7952 52.5919 23.7626 52.5919C23.4201 52.608 23.1103 52.3503 23.0777 52.012ZM39.9233 52.4952C39.5482 52.4469 39.271 52.1086 39.3199 51.7382C39.3688 51.3677 39.7113 51.0939 40.0864 51.1422C40.4614 51.1905 40.7387 51.5288 40.6897 51.8992C40.6571 52.2375 40.3473 52.4952 40.0048 52.4952C39.9885 52.4952 39.9559 52.4952 39.9233 52.4952ZM31.1825 51.3677C31.1825 50.9972 31.4923 50.6912 31.8674 50.6912C32.2425 50.6912 32.5523 50.9972 32.5686 51.3677C32.5686 51.7382 32.2588 52.0442 31.8837 52.0603C31.4923 52.0442 31.1988 51.7382 31.1825 51.3677Z" fill="#122032"/>
<path d="M121.183 47.1314C125.317 47.1314 128.668 43.8213 128.668 39.738C128.668 35.6546 125.317 32.3445 121.183 32.3445C117.049 32.3445 113.698 35.6546 113.698 39.738C113.698 43.8213 117.049 47.1314 121.183 47.1314Z" fill="#4285F4"/>
</svg>
