<svg width="150" height="86" viewBox="0 0 150 86" fill="none" xmlns="http://www.w3.org/2000/svg">
<path d="M103.606 84.515C103.606 71.7957 113.987 61.489 126.798 61.489C139.609 61.489 149.975 71.7957 149.975 84.515H103.606Z" fill="#4285F4"/>
<path d="M127.372 60.7638L118.037 51.4954C117.945 51.4038 117.945 51.2664 118.037 51.1748L127.372 41.9064C127.464 41.8147 127.603 41.8147 127.695 41.9064L137.03 51.1748C137.122 51.2664 137.122 51.4038 137.03 51.4954L127.695 60.7638C127.603 60.8554 127.449 60.8554 127.372 60.7638Z" fill="#1CE9B6"/>
<path d="M56.2064 83.706H125.536L111.387 18.476H42.0576L56.2064 83.706Z" fill="#4FC3F7"/>
<path d="M125.592 85.3512H56.2624C55.4781 85.3512 54.8014 84.8015 54.6322 84.0533L40.4834 18.8233C40.3757 18.3347 40.4988 17.8308 40.8217 17.4338C41.1447 17.052 41.6061 16.823 42.1136 16.823H111.443C112.227 16.823 112.904 17.3727 113.073 18.1209L127.222 83.3509C127.329 83.8396 127.206 84.3434 126.883 84.7404C126.56 85.1222 126.084 85.3512 125.592 85.3512ZM57.6004 82.0531H123.515L110.089 20.1211H44.1744L57.6004 82.0531Z" fill="#4285F4"/>
<path d="M39.1497 83.1223C56.0775 83.1223 69.8003 69.4977 69.8003 52.6908C69.8003 35.8839 56.0775 22.2593 39.1497 22.2593C22.2218 22.2593 8.49902 35.8839 8.49902 52.6908C8.49902 69.4977 22.2218 83.1223 39.1497 83.1223Z" fill="#E417B7"/>
<path d="M41.7646 80.3675C57.8205 78.0924 66.1252 67.8773 66.8942 49.6611L41.7646 80.3675Z" fill="#E417B7"/>
<path d="M95.4141 83.6983H26.085L40.2338 19.0637H109.563L95.4141 83.6983Z" fill="white"/>
<path d="M48.8921 27.9061C50.1576 27.9061 51.1836 26.9217 51.1836 25.7073C51.1836 24.493 50.1576 23.5085 48.8921 23.5085C47.6265 23.5085 46.6006 24.493 46.6006 25.7073C46.6006 26.9217 47.6265 27.9061 48.8921 27.9061Z" fill="#FA9377"/>
<path d="M48.866 26.0209C48.6046 26.0209 48.3739 25.8529 48.2816 25.5933C47.2666 22.3257 47.8048 18.3405 49.6042 15.6836C50.7423 14.004 52.2802 13.0268 54.018 12.8741C56.4172 12.6756 58.5087 14.1414 59.3546 16.6303C59.4622 16.951 59.2931 17.2869 58.9701 17.3938C58.6471 17.5007 58.3088 17.3327 58.2011 17.012C57.6783 15.4699 56.3249 13.8819 54.1103 14.0651C52.3878 14.2178 51.2498 15.3782 50.5885 16.3402C49.0044 18.6764 48.5123 22.341 49.4196 25.2269C49.5119 25.5475 49.3428 25.8835 49.0198 25.9751C48.989 26.0056 48.9275 26.0209 48.866 26.0209Z" fill="#122032"/>
<path d="M60.7623 27.9061C62.0279 27.9061 63.0538 26.9217 63.0538 25.7073C63.0538 24.493 62.0279 23.5085 60.7623 23.5085C59.4968 23.5085 58.4709 24.493 58.4709 25.7073C58.4709 26.9217 59.4968 27.9061 60.7623 27.9061Z" fill="#FA9377"/>
<path d="M60.7363 26.0199C60.4748 26.0199 60.2441 25.852 60.1519 25.5924C59.1368 22.3248 59.6751 18.3395 61.4745 15.6827C62.6125 14.003 64.1504 13.0258 65.8883 12.8731C67.7492 12.7204 70.1022 13.5755 71.1787 16.4767C71.2864 16.782 71.1326 17.1332 70.825 17.2401C70.5174 17.347 70.1637 17.1943 70.056 16.8889C69.5024 15.4078 68.1644 13.8809 66.0113 14.0641C64.2889 14.2168 63.1508 15.3773 62.4895 16.3392C60.9054 18.6754 60.4133 22.34 61.3207 25.2259C61.413 25.5466 61.2438 25.8825 60.9208 25.9741C60.8593 26.0046 60.7978 26.0199 60.7363 26.0199Z" fill="#122032"/>
<path d="M85.6753 27.0977C86.9408 27.0977 87.9668 26.1133 87.9668 24.899C87.9668 23.6846 86.9408 22.7002 85.6753 22.7002C84.4097 22.7002 83.3838 23.6846 83.3838 24.899C83.3838 26.1133 84.4097 27.0977 85.6753 27.0977Z" fill="#FA9377"/>
<path d="M85.6482 25.1768C85.3868 25.1768 85.1561 25.0088 85.0638 24.7493C84.0488 21.4816 84.5871 17.4964 86.3864 14.8395C87.5245 13.1599 89.0624 12.1827 90.8002 12.03C93.9222 11.7704 95.983 14.244 96.3983 16.8398C96.4444 17.1605 96.2291 17.4811 95.8907 17.5269C95.5678 17.5727 95.2448 17.359 95.1987 17.023C94.7373 14.1982 92.6457 13.0683 90.8925 13.221C89.1701 13.3737 88.032 14.5342 87.3707 15.4961C85.7866 17.8323 85.2945 21.4969 86.2019 24.3828C86.2942 24.7035 86.125 25.0394 85.802 25.131C85.7713 25.1768 85.7097 25.1768 85.6482 25.1768Z" fill="#122032"/>
<path d="M97.5456 27.0977C98.8112 27.0977 99.8371 26.1133 99.8371 24.899C99.8371 23.6846 98.8112 22.7002 97.5456 22.7002C96.2801 22.7002 95.2542 23.6846 95.2542 24.899C95.2542 26.1133 96.2801 27.0977 97.5456 27.0977Z" fill="#FA9377"/>
<path d="M97.5186 25.1774C97.2571 25.1774 97.0265 25.0094 96.9342 24.7498C95.9192 21.4822 96.4574 17.4969 98.2568 14.8401C99.3948 13.1605 100.933 12.1833 102.671 12.0306C104.116 11.9084 105.439 12.3665 106.485 13.359C107.392 14.2141 108.023 15.4051 108.253 16.7182C108.315 17.0389 108.099 17.3595 107.761 17.4206C107.438 17.4817 107.115 17.2679 107.054 16.932C106.7 15.0081 105.208 13.0231 102.763 13.2216C101.04 13.3743 99.9024 14.5347 99.2411 15.4967C97.657 17.8329 97.1649 21.4975 98.0722 24.3834C98.1645 24.704 97.9953 25.0399 97.6724 25.1316C97.6262 25.1774 97.5801 25.1774 97.5186 25.1774Z" fill="#122032"/>
<path d="M52.4628 37.4774L44.6953 77.9446L46.3873 78.2647L54.1548 37.7976L52.4628 37.4774Z" fill="#F3F3F8"/>
<path d="M70.6347 37.4774L62.8672 77.9446L64.5592 78.2647L72.3266 37.7976L70.6347 37.4774Z" fill="#F3F3F8"/>
<path d="M88.953 37.4774L81.1855 77.9446L82.8775 78.2647L90.645 37.7976L88.953 37.4774Z" fill="#F3F3F8"/>
<path d="M100.325 48.7062H37.8086V50.4163H100.325V48.7062Z" fill="#F3F3F8"/>
<path d="M96.3678 65.2721H33.8516V66.9822H96.3678V65.2721Z" fill="#F3F3F8"/>
<path d="M80.492 65.008C80.5843 65.008 80.5074 64.8405 80.5074 64.7948C80.3844 64.8709 80.5074 65.0537 80.492 65.008Z" fill="#7A80C9"/>
<path d="M79.1709 65.6424L79.1863 65.5663L78.9863 65.7643L79.1709 65.6424Z" fill="#7A80C9"/>
<path d="M77.8145 65.7338C77.9529 66.0384 78.3066 65.6729 78.5527 65.7643L78.5988 65.8252L78.6911 65.5663C78.5527 65.5967 78.3835 65.6577 78.2297 65.7034C78.0759 65.749 77.9221 65.7795 77.8145 65.7338Z" fill="#7A80C9"/>
<path d="M77.1029 65.052C77.149 65.1738 76.9491 65.1586 77.2567 65.0977C77.2413 65.0825 77.2413 65.0825 77.2259 65.0672C77.2106 65.0672 77.1798 65.052 77.1029 65.052Z" fill="#7A80C9"/>
<path d="M77.25 65.0559C77.3884 65.0559 77.1577 64.9645 77.25 65.0559V65.0559Z" fill="#7A80C9"/>
<path d="M76.58 65.1121L76.7645 65.0207C76.7338 64.9446 76.58 64.9293 76.6415 64.8684C76.4416 64.9141 76.4723 64.9902 76.58 65.1121Z" fill="#7A80C9"/>
<path d="M76.3486 65.3049L76.4409 65.2592C76.4409 65.2287 76.4101 65.2135 76.3486 65.3049Z" fill="#7A80C9"/>
<path d="M76.7104 65.1989L76.4951 65.275C76.5105 65.3207 76.5105 65.4273 76.5874 65.2445C76.572 65.3359 76.6181 65.2598 76.7104 65.1989Z" fill="#7A80C9"/>
<path d="M76.7881 65.2356C76.8804 65.3117 77.0188 65.3574 76.8342 65.4488C77.0188 65.4336 77.0957 65.3727 77.0803 65.327C77.0649 65.2813 76.9726 65.2356 76.7881 65.2356Z" fill="#7A80C9"/>
<path d="M77.8152 66.0419C77.8614 66.0724 77.9075 66.1029 77.969 66.1333L78.0921 66.0267C78.0152 66.0724 77.7999 65.9506 77.8152 66.0419Z" fill="#7A80C9"/>
<path d="M75.4729 64.7948C75.4575 64.8557 75.5036 64.9776 75.5036 65.0689L75.642 65.0232C75.5959 64.9623 75.4729 64.8862 75.4729 64.7948Z" fill="#7A80C9"/>
<path d="M75.5376 65.0887L75.3223 65.1649C75.5068 65.2106 75.5376 65.1649 75.5376 65.0887Z" fill="#7A80C9"/>
<path d="M76.279 65.6326L76.6328 65.4194C76.4944 65.4956 76.3559 65.5717 76.2021 65.6326C76.2329 65.6326 76.2637 65.6326 76.279 65.6326Z" fill="#7A80C9"/>
<path d="M74.6975 64.6748L74.8359 64.5377L74.5898 64.7205L74.6975 64.6748Z" fill="#7A80C9"/>
<path d="M74.2111 64.5721C74.3188 64.4655 74.1496 64.3284 74.2573 64.2827C74.1189 64.2675 73.9805 64.3436 73.8574 64.4046C73.9805 64.3893 74.0881 64.435 74.2111 64.5721Z" fill="#7A80C9"/>
<path d="M73.7109 64.519C73.7725 64.5038 73.8493 64.4733 73.9262 64.4276C73.8493 64.4428 73.7878 64.4733 73.7109 64.519Z" fill="#7A80C9"/>
<path d="M75.0058 65.0816C74.9905 65.0359 74.9905 64.9293 74.8828 64.8684L74.929 65.0664C74.9597 65.0664 74.9751 65.0816 75.0058 65.0816Z" fill="#7A80C9"/>
<path d="M74.9055 65.0396C74.8132 65.0091 74.7671 64.9939 74.7363 64.9786C74.7671 64.9939 74.8132 65.0091 74.9055 65.0396Z" fill="#7A80C9"/>
<path d="M75.0447 65.052H75.0293C75.0293 65.0673 75.0447 65.0826 75.0447 65.052Z" fill="#7A80C9"/>
<path d="M75.8827 65.4194C75.7443 65.5108 75.4828 65.587 75.6982 65.7697C75.8058 65.6631 75.6828 65.5565 75.8827 65.4194Z" fill="#7A80C9"/>
<path d="M75.0293 65.327L75.2446 65.4031C75.2446 65.3574 75.2138 65.2813 75.2907 65.2356L75.0293 65.327Z" fill="#7A80C9"/>
<path d="M74.8828 65.3485L75.0058 65.3028L74.929 65.2723L74.8828 65.3485Z" fill="#7A80C9"/>
<path d="M74.0339 64.7581C73.9262 64.819 73.8186 64.7885 73.7109 64.7733C73.8186 64.8342 73.9416 64.8951 74.0647 64.9256C74.08 64.8799 74.1569 64.7885 74.0339 64.7581Z" fill="#7A80C9"/>
<path d="M74.4587 64.9419H74.4434C74.4434 64.9725 74.4434 64.9725 74.4587 64.9419Z" fill="#7A80C9"/>
<path d="M72.5381 64.4276C72.5381 64.4428 72.5381 64.4579 72.5381 64.4579C72.5381 64.4428 72.5534 64.4428 72.5534 64.4276H72.5381Z" fill="#7A80C9"/>
<path d="M74.0347 64.9876C74.1116 65.0485 74.1885 65.018 74.25 64.9724C74.1731 64.9724 74.0962 64.9571 74.0193 64.9419C74.0039 64.9724 73.9885 64.9876 74.0347 64.9876Z" fill="#7A80C9"/>
<path d="M73.418 64.4697C73.4487 64.5154 73.4949 64.5763 73.541 64.622C73.5102 64.5458 73.4487 64.4392 73.418 64.4697Z" fill="#7A80C9"/>
<path d="M74.4434 64.8667H74.4586C74.4434 64.8061 74.4434 64.8364 74.4434 64.8667Z" fill="#7A80C9"/>
<path d="M74.4507 64.8684C74.4045 64.8836 74.343 64.9141 74.2969 64.9446C74.3584 64.9446 74.4045 64.9293 74.466 64.9141C74.466 64.8989 74.4507 64.8836 74.4507 64.8684Z" fill="#7A80C9"/>
<path d="M71.8591 65.3958C71.936 65.2431 72.2436 65.1973 72.3974 65.4416C72.6588 65.3958 72.705 64.8155 72.6434 64.4644C72.6127 64.5254 72.5819 64.6018 72.3512 64.617C72.382 64.7239 72.7203 64.9988 72.505 65.0751C72.1974 65.0446 72.3051 64.9377 72.1974 64.8003C72.2128 64.9224 72.0898 64.9682 71.9668 64.9988C71.8437 65.0446 71.6899 65.0904 71.6592 65.2431C71.7515 65.2431 71.8437 65.2584 71.9514 65.2431C71.9206 65.2889 71.7976 65.3347 71.8591 65.3958Z" fill="#7A80C9"/>
<path d="M73.0383 64.6006H73.1306C73.0383 64.5397 72.9922 64.4635 72.9306 64.2808C72.7615 64.3112 72.7153 64.3569 72.6846 64.4026C72.823 64.4635 72.946 64.5244 73.0844 64.5701L73.0383 64.6006Z" fill="#7A80C9"/>
<path d="M73.4941 64.7334C73.3711 64.886 73.1404 64.9013 73.2019 65.1304C73.4633 65.2067 73.4326 65.0387 73.6018 65.0082C73.1865 64.9319 73.7402 64.9471 73.4941 64.7486C73.5864 64.7486 73.6479 64.7639 73.7248 64.7639C73.6633 64.7181 73.6018 64.6723 73.5402 64.6265V64.6417C73.5556 64.6723 73.5556 64.6875 73.5402 64.6723C73.5402 64.6723 73.5402 64.6723 73.5249 64.6723C73.5249 64.6875 73.5095 64.7181 73.4941 64.7334C73.3864 64.657 73.4941 64.6875 73.5402 64.6723C73.5402 64.657 73.5556 64.657 73.5556 64.6417L73.125 64.6112C73.2019 64.657 73.3096 64.6876 73.4941 64.7334Z" fill="#7A80C9"/>
<path d="M75.3512 66.126C75.3359 66.1109 75.3359 66.0957 75.3512 66.0806C75.3206 66.0957 75.3054 66.1109 75.3512 66.126Z" fill="#7A80C9"/>
<path d="M75.1595 65.9815C75.1903 65.9663 75.2364 65.8899 75.3287 65.9205C75.4056 65.9968 75.3133 66.0121 75.3133 66.0731C75.3902 66.0273 75.544 65.9815 75.3748 65.8594L75.3441 65.8747C75.1749 65.783 74.9903 65.5235 75.0365 65.4929C75.0365 65.6762 75.0672 65.7983 75.1595 65.9815Z" fill="#7A80C9"/>
<path d="M74.2265 65.4562C74.1035 65.4562 73.9805 65.4562 73.8574 65.4562L73.9958 65.6542L74.0112 65.5628C74.1958 65.6389 74.1958 65.5171 74.2265 65.4562Z" fill="#7A80C9"/>
<path d="M72.5608 64.3012L72.6684 64.1337L72.3916 64.3164L72.5608 64.3012Z" fill="#7A80C9"/>
<path d="M72.1601 64.1605L72.2524 64.0234L72.0986 64.0691L72.1601 64.1605Z" fill="#7A80C9"/>
<path d="M78.9863 49.1257C79.0325 49.1257 79.0786 49.1105 79.1094 49.1105C79.0478 49.1105 79.0171 49.1105 78.9863 49.1257Z" fill="#7A80C9"/>
<path d="M78.1382 48.9266L78.1074 49.0028C78.1382 48.9571 78.1689 48.9266 78.1382 48.9266Z" fill="#7A80C9"/>
<path d="M67.1162 56.3026C67.3008 56.2112 67.5776 56.135 67.393 56.1046L67.2085 56.0894C67.2085 56.1807 67.1777 56.2416 67.1162 56.3026Z" fill="#7A80C9"/>
<path d="M71.4585 50.3163C71.4431 50.3011 71.4123 50.2859 71.397 50.2859C71.3816 50.362 71.3662 50.423 71.3662 50.4839C71.397 50.4382 71.4277 50.3773 71.4585 50.3163Z" fill="#7A80C9"/>
<path d="M71.2197 49.5511L71.4658 49.5968C71.4197 49.5664 71.3274 49.5511 71.2197 49.5511Z" fill="#7A80C9"/>
<path d="M83.2363 50.8544L83.467 50.7782C83.2825 50.6564 83.2978 50.7782 83.2363 50.8544Z" fill="#7A80C9"/>
<path d="M68.4032 61.7784C68.3724 61.6413 68.3417 61.5499 68.2955 61.489C68.2955 61.6565 68.2494 61.8545 68.4032 61.7784Z" fill="#7A80C9"/>
<path d="M78.1074 51.0018C78.1689 50.9865 78.2151 50.9561 78.2151 50.9104C78.1382 50.9256 78.1074 50.9409 78.1074 51.0018Z" fill="#7A80C9"/>
<path d="M67.9951 61.2319C67.9951 61.2624 67.9951 61.2776 67.9951 61.3081C68.072 61.3538 68.1489 61.3995 68.2104 61.4908C68.2104 61.3538 68.1797 61.2319 67.9951 61.2319Z" fill="#7A80C9"/>
<path d="M82.9895 64.9786C82.9741 64.9786 82.9587 64.9786 82.9434 64.9786C82.9587 65.0093 82.9741 64.9939 82.9895 64.9786Z" fill="#7A80C9"/>
<path d="M78.1074 65.6792C78.1382 65.6487 78.1997 65.6335 78.2612 65.603C78.2305 65.603 78.1843 65.6183 78.1074 65.6792Z" fill="#7A80C9"/>
<path d="M70.6338 63.292C70.7107 63.3227 70.6492 63.2767 70.6338 63.292V63.292Z" fill="#7A80C9"/>
<path d="M70.7107 64.1703C70.6799 64.1855 70.6492 64.2007 70.6338 64.2312C70.6645 64.2007 70.6799 64.1855 70.7107 64.1703Z" fill="#7A80C9"/>
<path d="M66.548 61.0848C66.5173 61.1308 66.5327 61.1155 66.548 61.0848V61.0848Z" fill="#7A80C9"/>
<path d="M70.7107 63.4322C70.6953 63.4017 70.6645 63.356 70.6338 63.3256C70.6338 63.3408 70.6645 63.3865 70.7107 63.4322Z" fill="#7A80C9"/>
<path d="M70.7803 63.3256C70.811 63.356 70.8264 63.3713 70.8418 63.3865C70.8572 63.3713 70.8572 63.3408 70.7803 63.3256Z" fill="#7A80C9"/>
<path d="M70.4863 63.2522C70.5325 63.2827 70.5786 63.3131 70.6094 63.3436C70.594 63.3283 70.594 63.3131 70.6094 63.3131C70.5786 63.2979 70.5478 63.2827 70.4863 63.2522Z" fill="#7A80C9"/>
<path d="M87.6482 57.4117C87.6482 57.427 87.6328 57.427 87.6328 57.4422C87.6943 57.564 87.6943 57.5031 87.6482 57.4117Z" fill="#7A80C9"/>
<path d="M66.3838 53.1509V53.1662C66.3992 53.1662 66.3992 53.1509 66.3838 53.1509Z" fill="#7A80C9"/>
<path d="M66.4914 52.7102C66.5376 52.8476 66.5376 52.9392 66.5068 53.0003C66.4914 53.0614 66.4453 53.0919 66.3838 53.1377C66.553 53.1988 66.7375 53.2599 66.9067 53.3362C66.7683 53.1377 66.6299 52.924 66.4914 52.7102Z" fill="#7A80C9"/>
<path d="M80.8881 49.7526L80.6881 49.493C81.1187 49.3708 81.3187 49.5541 81.1495 49.2334C81.0111 49.493 80.7497 49.4014 80.4882 49.3098C80.2268 49.2334 79.9499 49.1571 79.8423 49.4167L79.7039 49.2334C79.75 49.2487 79.7654 49.2334 79.8269 49.2487C79.5655 48.867 79.4424 49.5694 79.0272 49.3556C78.8888 49.264 78.7965 49.1571 78.9195 49.1265L78.5351 49.1876C78.4428 49.1571 78.4889 49.0655 78.5812 49.096L78.3044 49.0502L78.0275 49.0197V49.0044C77.9353 49.0807 77.7353 49.1876 77.6431 49.2334C77.52 49.1265 77.72 49.1876 77.7046 49.1113C77.5969 49.1418 77.4893 49.1724 77.3816 49.2029C77.2893 49.0349 77.5508 48.9128 77.7507 48.9891C77.6584 48.6685 77.5969 48.699 77.4739 48.7448C77.3509 48.7906 77.1971 48.867 76.9202 48.6532L77.2125 48.6227C77.1356 48.4394 77.0433 48.3783 76.9202 48.3173C76.7972 48.2715 76.6588 48.2409 76.505 48.1188C76.5819 48.2409 77.1202 48.699 76.7665 48.8212C76.6742 48.7754 76.5511 48.7295 76.3666 48.8364C76.382 48.6227 76.1974 48.6532 75.9821 48.6685L76.0129 48.3936C75.7668 48.47 75.7822 48.6074 75.6438 48.7295C75.3823 48.699 75.3208 48.4852 75.2593 48.302C74.8287 48.2562 75.5515 48.6379 75.0594 48.699C74.8902 48.6379 74.7364 48.6532 74.5826 48.699C74.4288 48.7448 74.2597 48.8212 74.0751 48.928C73.829 48.867 74.1059 48.7601 73.9982 48.6837L73.8137 48.928C73.7675 48.928 73.7675 48.867 73.7675 48.8212C73.5983 48.928 73.7829 49.096 73.5215 49.2029C73.5061 49.3556 73.3523 49.2792 73.1524 49.2029C73.0601 49.1724 72.9524 49.1265 72.8448 49.1265C72.7525 49.1265 72.6602 49.1724 72.5833 49.2792C72.4757 49.2182 72.5833 49.1113 72.5372 49.0044C72.3219 49.1723 72.2296 49.2334 72.1527 49.3098C72.0758 49.3861 72.0143 49.4625 71.8759 49.6762C71.7529 49.6457 71.6298 49.6152 71.5068 49.5999C71.6606 49.661 71.676 49.7678 71.6298 49.9053C71.5837 50.0427 71.4914 50.1954 71.3991 50.3328C71.5068 50.3939 71.5991 50.455 71.6606 50.4855L71.3376 50.7603C71.2761 50.7298 71.2761 50.6382 71.3069 50.5008C71.2915 50.5313 71.2761 50.5618 71.2607 50.5924C71.0915 50.5466 71.0916 50.3786 71.1377 50.1954C71.1992 50.2259 71.2761 50.2717 71.3376 50.3023C71.3684 50.1038 71.4145 49.9053 71.3376 49.7526C71.3222 49.7984 71.2761 49.8442 71.23 49.8747C71.2453 49.8289 71.2453 49.7831 71.2146 49.7526C71.1838 49.7373 71.1684 49.7984 71.1223 49.89L70.9224 49.6304L70.9378 49.7526C70.7378 49.7678 70.5225 49.7831 70.3226 49.7984C70.0611 50.2565 69.9689 50.8214 69.5075 51.249C69.5229 50.9741 69.3383 50.913 69.1999 50.684C69.3537 50.7603 69.446 50.6687 69.5383 50.5466C69.5844 50.4855 69.6305 50.4092 69.692 50.3481C69.7536 50.287 69.8151 50.2412 69.9074 50.2107C69.7382 50.2717 69.7074 50.1343 69.7228 50.0732C69.569 50.2412 69.446 50.4244 69.3076 50.6077C69.1999 50.4092 69.1076 50.5313 68.9231 50.5466C69.2614 50.8367 68.7078 51.0505 68.5847 51.2948C68.4771 51.1879 68.431 51.0352 68.7078 50.8825C68.4771 50.852 68.4463 51.0047 68.4617 51.1879C68.4617 51.3558 68.4617 51.5391 68.2464 51.5238C68.3079 51.478 68.3387 51.4627 68.3233 51.3864C68.2925 51.4933 68.1849 51.5849 68.0772 51.646C67.985 51.707 67.8773 51.7223 67.8773 51.6307L67.9234 51.5849C67.7235 51.7376 67.4467 51.9819 67.2621 52.272C67.0776 52.5468 67.0007 52.8217 67.1237 52.9591C67.0776 52.9286 66.8008 52.6385 66.77 52.5621C66.8469 52.8064 66.9238 53.0507 67.0007 53.2798C67.093 53.5088 67.2006 53.7378 67.3083 53.9669C67.1852 53.86 66.9392 53.7531 66.7239 53.631C66.5086 53.5088 66.324 53.3714 66.3548 53.1423C66.2471 53.2187 66.1241 53.3256 66.0933 53.5851C66.1702 53.5393 66.6008 53.6462 66.5701 53.7531C66.3394 53.7836 66.2779 53.8142 66.2164 53.8447C66.1548 53.8753 66.0933 53.9211 65.8626 54.028C65.9857 53.9516 66.3548 54.2875 66.2625 54.4402C66.201 54.3791 65.8165 54.2417 65.7857 54.1654C65.8626 54.3792 65.9549 54.5929 66.0472 54.7914C66.0164 54.654 65.6781 54.6082 65.4935 54.654C65.5551 54.654 65.4935 54.7456 65.4474 54.8525C65.4013 54.9746 65.3397 55.1121 65.3397 55.1731L65.5089 55.0205C65.3859 55.2648 65.5089 55.448 65.632 55.616C65.7704 55.7839 65.9242 55.9519 65.8473 56.1962C65.7704 56.1198 65.2782 55.9061 65.1552 56.1504C65.2629 56.242 65.5397 56.4405 65.8011 56.6543C65.9395 56.7611 66.0626 56.868 66.1702 56.9749C66.2779 57.0818 66.3702 57.1887 66.4009 57.2956L66.2471 57.3566C66.2933 57.4635 66.324 57.5704 66.3855 57.6773C66.1856 57.5704 65.9242 57.3719 65.6627 57.1276C65.3859 56.8833 65.1706 56.6085 65.0475 56.41C64.8938 56.5932 64.863 56.4405 64.8322 56.7459C64.6784 56.8375 64.6631 56.5474 64.6631 56.4558C64.6323 56.5779 64.5862 56.7001 64.5554 56.8222L64.4785 57.1887C64.6323 57.1887 64.6938 57.3261 64.74 57.4788C64.8015 57.6162 64.863 57.7689 64.986 57.7536L64.9091 57.5551C64.8938 57.4941 64.863 57.4177 64.8476 57.3566L64.74 56.9444C64.8938 56.9444 65.0783 57.0818 65.2321 57.265C65.309 57.3566 65.3705 57.4635 65.4013 57.5704C65.4474 57.6773 65.4782 57.7994 65.4628 57.9216C65.3397 58.0438 64.9399 57.83 64.8476 57.83C64.9553 57.9063 65.0322 58.3033 64.9707 58.3491C64.9091 58.2881 64.8476 58.2117 64.8015 58.1354C64.74 58.2728 64.863 58.395 64.9399 58.5171C65.0322 58.6393 65.0937 58.7461 64.9707 58.9446C64.9707 59.0515 64.6477 59.3569 64.8322 59.3416C65.1244 59.0821 66.1548 58.9294 66.4163 58.9904C66.4009 59.0057 66.3394 59.1431 66.2779 59.2958C66.2164 59.4485 66.1395 59.6318 66.0779 59.7081C65.9703 59.8303 65.8011 59.7997 65.6473 59.7692C65.4782 59.7386 65.3244 59.6928 65.2321 59.7997C65.309 59.7844 65.432 59.8608 65.4782 59.8913C65.4474 60.0288 65.2321 59.9066 65.3244 60.1509C65.6012 60.1051 65.4782 60.6701 65.6012 60.1967C65.7704 60.4105 65.632 60.4716 65.755 60.7464C65.8319 60.6701 66.0011 60.6701 66.1856 60.7006C66.3702 60.7311 66.5547 60.8075 66.647 60.8838C66.5701 60.8991 66.5086 60.9907 66.4778 61.0365C66.5239 61.1434 66.5701 61.2503 66.6162 61.3419C66.6624 61.4335 66.6931 61.5251 66.7239 61.6168C66.7854 61.8 66.8777 61.9527 67.0161 62.1359C66.9853 62.2123 67.0622 62.4413 66.9084 62.4566C67.0007 62.4718 67.1084 62.4566 67.216 62.5634C67.216 62.9452 66.9699 62.3497 66.8777 62.7161C67.0161 62.6245 67.3083 62.8383 67.539 62.8994C67.6774 62.6703 67.2468 62.5329 67.0315 62.4413C67.3083 62.2123 67.8158 62.2123 68.2618 62.3802C68.5847 62.5482 68.2157 62.6551 68.2925 62.6551C68.5232 62.8994 68.7385 62.8688 68.9231 62.8383C69.1076 62.8078 69.2614 62.7925 69.3998 63.0521C69.446 63.3727 69.1384 63.4338 69.0769 63.6018C68.7693 63.4949 68.7847 63.2048 68.6309 63.0979L68.7539 63.3422C68.6309 63.3422 68.431 63.2658 68.3848 63.1437C68.4002 63.2811 68.6155 63.4796 68.8923 63.6781C69.1692 63.8766 69.4921 64.0904 69.6613 64.3194C69.7843 64.3041 69.9689 64.3194 69.9535 64.1973L69.7843 64.1362C69.7536 63.8919 70.1996 64.0751 70.0611 63.8919C70.1996 63.8919 70.338 63.8766 70.4764 63.8919C70.6148 63.9071 70.7378 63.9529 70.8609 64.0751L70.8762 64.3652C70.907 64.2889 70.7686 64.1362 70.6456 64.1667C70.8147 64.1209 70.907 64.7011 71.1992 64.4568L71.0915 64.1973C71.2146 64.182 71.3838 64.1514 71.5222 64.1362C71.676 64.1209 71.8144 64.1209 71.922 64.2278C71.922 63.9377 71.8451 64.2278 71.8144 63.8766C71.8144 64.0751 71.6452 64.014 71.5068 63.9377C71.3684 63.8613 71.23 63.8003 71.2607 64.0446C71.2607 63.8461 71.1992 63.7697 71.1377 63.7086C71.0762 63.6476 70.9993 63.5712 70.9685 63.3727C70.9378 63.4491 70.9685 63.5559 70.7993 63.4185C70.784 63.4338 70.7378 63.4491 70.7224 63.4643C70.7224 63.4643 70.7224 63.4491 70.7071 63.4491V63.4643C70.6917 63.4643 70.6917 63.4796 70.7071 63.4643C70.7378 63.5254 70.7532 63.5865 70.7378 63.6323C70.5379 63.7544 70.2303 63.5712 70.0765 63.5865C69.9842 63.4796 70.1842 63.5254 70.1688 63.4185L69.9381 63.4491C70.0304 63.2811 69.8151 62.991 70.138 63.0673L69.9074 62.9146C69.8305 62.7314 69.6767 62.5634 69.5229 62.5482C69.446 62.4413 69.1384 62.5176 69.3229 62.4718C69.1845 62.4107 69.0461 62.3649 68.9231 62.2886L68.9538 62.2428C68.8001 62.1054 68.6001 62.0138 68.4156 61.8916C68.231 61.7694 68.0772 61.5862 68.0772 61.3114C67.9542 61.235 67.8158 61.1587 67.7543 60.9449L67.8773 60.8228C67.8158 60.7617 67.7697 60.6548 67.7543 60.5479C67.7389 60.441 67.7081 60.3494 67.6005 60.3494C67.6774 60.2578 67.7081 60.1814 67.7081 60.0898C67.7081 59.9982 67.6774 59.9066 67.6312 59.815C67.5236 59.647 67.4159 59.4333 67.4159 59.2958L67.2006 59.3416C67.1699 59.25 67.1545 59.1431 67.1084 59.0515C67.0622 58.9446 67.0007 58.853 66.9392 58.7309L66.7393 58.7767C66.647 58.6698 66.6777 58.5171 66.7085 58.3491C66.7239 58.3033 66.7239 58.2575 66.7393 58.227C66.7546 58.1812 66.77 58.1354 66.7854 58.0896C66.8161 57.998 66.8315 57.9063 66.8161 57.8147C66.893 57.8453 66.8777 57.9369 66.8315 57.9979C66.9392 57.8911 66.9853 57.7842 66.9699 57.6773C66.9699 57.5704 66.9392 57.4483 66.9084 57.3414C66.8315 57.1123 66.77 56.868 66.9546 56.7001C66.893 56.5932 66.9392 56.5168 67.0007 56.471C67.0007 56.4863 67.0007 56.4863 67.0007 56.5016C67.0007 56.4863 67.0161 56.471 67.0161 56.4558C67.0622 56.4252 67.1083 56.3947 67.1545 56.3489C67.093 56.3794 67.0468 56.41 67.0315 56.4405C67.0468 56.3641 67.0468 56.2573 67.0315 56.1198L67.2468 56.1351C67.2468 56.1198 67.2468 56.1198 67.2468 56.1046C67.3544 56.0282 67.1852 55.9977 67.0007 55.9977C66.9853 55.9366 66.9699 55.8755 66.9238 55.8145C67.2775 55.8297 66.9084 55.4785 67.2929 55.4938C67.1699 55.3564 67.3852 54.9136 67.093 54.6998C67.1391 54.7151 67.1699 54.6998 67.1545 54.7609C67.2621 54.654 67.3544 54.5624 67.3237 54.4097L67.5851 54.486C67.5236 54.3486 67.4775 54.2112 67.4313 54.0585C67.662 53.9974 67.785 53.9974 67.8619 54.2417C67.8465 53.9822 67.8619 53.8905 67.8773 53.8142C67.9081 53.7378 67.9234 53.6615 67.9081 53.4325L68.0311 53.5546C68.0619 53.5088 68.0619 53.4019 68.0926 53.3103C68.108 53.234 68.1388 53.1576 68.231 53.1729C68.3387 53.1729 68.4617 53.1118 68.5694 53.0202C68.6924 52.9286 68.8462 52.8064 68.9846 52.669C69.1384 52.5468 69.3229 52.4094 69.4921 52.2873C69.6767 52.1804 69.8766 52.104 70.0611 52.0582C69.8612 51.875 69.9689 51.8903 70.0919 51.8903C70.2149 51.8903 70.3687 51.9055 70.2918 51.7223C70.3841 51.7987 70.5071 51.8139 70.461 51.9666C70.584 51.8139 70.7378 51.8139 70.8455 51.7681C70.9685 51.7376 71.0454 51.6765 71.1069 51.478C71.1992 51.5696 71.1069 51.6612 71.1684 51.7223C71.1838 51.6918 71.23 51.5849 71.2915 51.6307C71.353 51.6765 71.2761 51.7376 71.2607 51.8139C71.5837 51.6612 71.476 51.2948 71.3838 50.9588C71.6298 51.0352 71.7067 50.9894 71.7682 50.7298C71.8759 50.8062 72.0143 50.8825 71.799 51.0047C71.9374 50.9588 72.6295 50.913 72.5679 50.6535C72.6295 50.7145 72.7525 50.6229 72.7833 50.5924C73.0908 50.5313 73.1216 50.5466 73.4138 50.4702L73.3215 50.4397C73.383 50.0885 73.5676 50.3175 73.7983 50.2412V50.2717C74.0905 50.3633 74.152 50.3175 74.2135 50.287C74.275 50.2565 74.3365 50.2259 74.6134 50.3481L74.5672 50.1496C74.5826 49.9205 74.7056 49.9816 74.8748 50.0732C75.044 50.1648 75.2285 50.3023 75.3977 50.2107L75.2747 50.0885C75.367 50.0122 75.49 50.1648 75.613 50.3481C75.736 50.5313 75.8437 50.7451 75.9206 50.7756C75.9514 50.8214 75.8591 50.8367 75.8129 50.8672C76.2436 51.1421 75.8745 50.5924 76.2282 50.5466C76.2743 50.6993 76.1205 50.913 76.3358 50.9588C76.382 51.0199 76.5511 50.913 76.7511 50.8367C76.951 50.7603 77.1663 50.7145 77.3047 50.8825C77.2586 50.7603 77.2124 50.6382 77.3816 50.5771C77.5047 50.5771 77.6431 50.7145 77.7969 50.8214C77.9353 50.913 78.0891 50.9894 78.2275 50.8367C78.2428 50.8672 78.2582 50.913 78.2429 50.9283C78.4428 50.8825 78.858 50.9436 79.0272 50.7909C79.0118 51.1573 79.304 51.1573 79.5808 51.1726C79.873 51.1726 80.1345 51.1879 80.0115 51.478L80.2883 51.5696L80.5497 51.6765L80.5036 51.7376C80.8112 51.9208 80.9957 51.8445 81.1803 51.7681C81.2418 51.8445 81.1495 51.875 81.1341 51.9055C81.2418 51.9972 81.3187 52.0582 81.3956 52.1193C81.4725 52.1804 81.534 52.2109 81.5955 52.2262C81.7339 52.272 81.8877 52.2415 82.1645 52.2262L82.0876 52.44C82.1645 52.4247 82.2876 52.5927 82.4567 52.7912C82.6105 52.9897 82.8258 53.1881 83.1027 53.2645C83.0873 53.2798 83.0565 53.3103 82.995 53.3103C83.1488 53.3561 83.2718 53.463 83.3795 53.5851C83.4871 53.7226 83.564 53.86 83.6563 53.9974C83.8255 54.257 83.9793 54.4402 84.3484 54.2417C84.4868 54.2875 84.6252 54.3333 84.7636 54.3944C84.456 53.9822 85.0712 54.2112 85.0097 53.9669C85.1942 54.089 85.2096 54.5166 84.9943 54.3639V54.3028C84.8097 54.4097 84.902 54.5471 84.9943 54.6845C85.0866 54.822 85.1942 54.9594 85.0866 55.051C85.4095 55.4175 85.6864 55.8603 85.8555 56.2573C85.9478 56.4558 86.0093 56.6543 86.0401 56.8222C86.0862 57.0055 86.0862 57.1429 86.1016 57.2956C86.2092 57.265 86.3169 57.2345 86.4092 57.1887C86.4092 57.2803 86.4092 57.3566 86.3938 57.4483C86.3169 57.5093 86.1477 57.5246 86.1631 57.3566C86.0708 57.4025 86.117 57.4635 86.1785 57.5246C86.24 57.5857 86.3323 57.662 86.363 57.662C86.2708 57.8453 86.1785 57.7842 86.117 57.7078C86.0555 57.6315 85.9939 57.5399 85.9939 57.5857C85.9939 57.6315 85.9939 57.6773 85.9939 57.7231L86.0401 57.6926C86.1477 57.83 86.2861 57.8758 86.1939 58.1048C86.0862 58.2423 85.9786 58.1201 85.9478 58.1812C85.9324 58.1812 85.917 58.1965 85.9017 58.2728C85.8555 58.3797 85.794 58.5018 85.7325 58.624L86.0247 58.5629C86.0708 58.7767 85.8709 58.9141 86.2092 58.8378C86.0862 58.8683 85.9632 58.9599 85.8709 59.0973C85.7633 59.2195 85.6864 59.3722 85.6095 59.5249C85.4249 59.8303 85.2865 60.1509 85.1788 60.1814C85.1788 60.4868 85.0558 60.7006 84.8251 60.9296C84.9174 60.8991 85.1635 61.0365 84.9789 61.235C84.779 61.0213 84.656 61.0823 84.5175 61.1739C84.3791 61.2656 84.2253 61.403 83.9946 61.3572C84.1638 61.3724 84.0562 61.5251 83.9639 61.6778C83.8716 61.8305 83.7793 61.9832 84.0408 61.9985C83.8409 62.1359 83.8716 61.8611 83.6563 61.8916C83.6102 62.029 83.5179 62.1359 83.4256 62.2428C83.318 62.3344 83.1949 62.426 83.0565 62.5176C82.7951 62.7009 82.5029 62.8536 82.2722 63.0979C82.3183 63.1589 82.4721 63.1742 82.4414 63.3574C82.2722 63.3422 82.0876 63.3116 81.9185 63.2811C81.8416 63.388 82.103 63.6934 81.7493 63.6476C81.8108 63.6781 81.9185 63.7239 81.857 63.8002C81.5494 63.9377 81.2572 64.0904 80.9803 64.2889C80.8419 64.3805 80.7035 64.4721 80.5651 64.579C80.4267 64.6706 80.3037 64.7775 80.1499 64.8691C80.0115 64.9607 79.873 65.0523 79.7192 65.1287C79.5808 65.205 79.427 65.2661 79.2579 65.3272C78.9503 65.4493 78.612 65.4951 78.2429 65.4493C78.4582 65.5104 78.3659 65.5715 78.2429 65.6326C78.3351 65.6326 78.3044 65.8005 78.3659 65.8921C78.166 65.8769 77.9506 65.8311 77.7507 65.8005C77.7507 65.9532 77.6123 66.0143 77.4893 66.0448C77.3509 66.0906 77.2278 66.1212 77.2432 66.2586L77.397 66.167C77.3355 66.3502 77.4585 66.5029 77.6123 66.6556C77.7661 66.8083 77.966 66.961 78.0122 67.1595C78.0891 66.9304 78.3044 67.0068 78.5504 67.0373C78.7965 67.0831 79.0579 67.0679 79.1656 66.7319C79.2886 66.7625 79.1348 66.8846 79.2271 66.961C79.2579 66.7472 79.3809 66.6709 79.6577 66.6251V66.6709C80.3037 66.3044 80.6728 66.3044 81.4571 65.9532L81.2879 65.8158C81.4571 65.7394 81.5186 65.77 81.6263 65.77C81.6263 65.4035 81.1957 66.0296 81.1649 65.6326C81.3802 65.7394 81.6416 65.5715 81.9031 65.4035C82.1645 65.2356 82.4106 65.0676 82.6105 65.2203C82.8412 65.0523 82.4106 65.0829 82.6259 64.9149L82.7643 64.976L82.7182 64.808C82.872 64.7164 83.0565 64.7927 83.118 64.8691C83.0719 64.8844 83.0411 64.976 83.0104 65.0065C83.1488 64.9913 83.2718 64.8844 83.3795 64.7622C83.4871 64.6553 83.5487 64.5332 83.5948 64.5332C83.5025 64.5637 83.4256 64.6095 83.3333 64.6401C83.8255 64.0598 84.6406 63.5559 84.9482 62.8383L84.8405 62.8077C84.9635 62.5482 85.0558 62.4871 85.1635 62.4108C85.2711 62.3497 85.3942 62.2886 85.5633 62.029V62.0596C85.5633 61.9069 85.6248 61.7389 85.7325 61.6168C85.7325 61.8153 86.0862 61.5251 86.0708 61.7542C86.1785 61.4488 86.1939 61.3724 86.1785 61.2961C86.1631 61.2198 86.1016 61.1587 86.0708 60.8838L86.2554 60.8991C86.2092 60.7006 86.1477 60.6548 86.2708 60.3799C86.2554 60.6701 86.5783 60.3341 86.5937 60.6701C86.7475 60.5784 86.8552 60.4563 86.9013 60.3494C86.9628 60.2425 86.9782 60.1051 86.9936 59.9982C87.009 59.8913 87.0243 59.7997 87.0705 59.7234C87.1166 59.647 87.1935 59.6012 87.3473 59.586C87.1935 59.3722 87.0859 59.4638 87.009 59.6012C86.9167 59.7386 86.8706 59.9066 86.8552 59.815C86.6552 59.8761 86.6706 59.4485 86.7783 59.2958C86.8552 59.1126 87.4396 59.2195 87.6241 58.6851C87.6088 58.7309 87.6395 58.7461 87.6087 58.8072C87.701 58.7309 87.6856 58.6087 87.701 58.5018C87.701 58.3797 87.7164 58.2728 87.8394 58.1506C87.7164 58.0438 87.7472 57.9674 87.7472 57.8911C87.7472 57.8147 87.7472 57.7536 87.578 57.7078C87.578 57.8911 87.578 58.0743 87.5626 58.2423C87.5472 58.0896 87.455 57.9216 87.3934 57.7536C87.3319 57.5857 87.2858 57.4024 87.3781 57.1581C87.455 57.1887 87.5472 57.3414 87.5934 57.4483C87.701 57.2956 87.5165 57.1581 87.6087 56.9902C87.7779 56.9902 87.8241 57.1734 87.8241 57.3872C87.8394 57.6009 87.7933 57.8453 87.901 58.0438C87.9932 57.9674 87.9471 57.7995 87.9317 57.662C87.9163 57.5399 87.901 57.4483 88.0855 57.5551C87.8548 57.4025 87.8702 57.2498 87.8856 57.0665C87.9009 56.8833 87.901 56.639 87.6703 56.4863L87.8702 56.4558C87.8241 56.3947 87.6856 56.2878 87.6549 56.1656C87.7625 56.2115 87.8702 56.2573 87.9778 56.3031C87.8087 56.1504 87.8087 55.9824 87.7933 55.7992C87.7779 55.616 87.7779 55.4327 87.6395 55.3258C87.8087 55.6312 87.7625 55.6923 87.6856 55.7228C87.6087 55.7534 87.4857 55.7381 87.4857 55.8908C87.1935 55.5854 87.2397 55.448 87.3165 55.2495C87.3934 55.0663 87.455 54.8372 87.1781 54.5318C87.2704 54.6082 87.3165 54.9594 87.1474 54.8525C87.0859 54.6998 87.0397 54.486 87.0551 54.3486C86.686 53.9516 86.9321 54.5471 86.7014 54.4402C86.7937 54.1501 86.4707 54.2875 86.2554 54.1654L86.4092 54.028C86.117 53.4783 85.9786 54.1806 85.7479 53.6768C85.8709 53.6615 85.9939 53.6615 86.117 53.6462C86.0401 53.5851 85.9478 53.5393 85.8709 53.4935L86.0862 53.3714C85.7325 53.2645 85.7171 53.1576 85.5479 52.898C85.4864 53.0507 85.2557 53.1423 85.0558 52.9591C85.0097 52.7453 85.2711 52.8828 84.9789 52.6537C85.1327 52.6079 85.3173 52.5621 85.3019 52.8217C85.3634 52.7912 85.4557 52.7912 85.5172 52.7453C85.4711 52.501 85.1788 52.3789 85.0712 52.2873C85.1019 52.3331 85.1481 52.3789 85.1481 52.4247L84.5329 52.2873C84.5175 52.1651 84.6098 52.1651 84.7021 52.1651C84.6098 52.104 84.4868 52.1346 84.3484 52.043C84.4868 51.9361 84.5944 51.7987 84.8251 51.8903C84.6406 51.8292 84.4714 51.7681 84.2869 51.707C84.3022 51.6307 84.1946 51.3711 84.2869 51.3711C84.1023 51.1115 83.5025 51.2032 83.2565 50.8978C83.2257 50.913 83.1642 50.913 83.0873 50.8978C82.9489 50.7756 82.8258 50.6382 82.6874 50.5313C82.549 50.4092 82.3798 50.3175 82.1338 50.3328L82.0569 49.9511C81.7185 49.8595 82.1799 50.4397 81.6263 50.287C81.2264 50.2107 81.6109 49.9969 81.5186 49.8595C81.3956 49.89 81.2264 49.9358 81.0572 49.9358C80.8881 49.9358 80.7189 49.89 80.5959 49.7068C80.7035 49.661 80.7804 49.7373 80.8881 49.7526ZM76.828 48.8364C76.9202 48.7906 77.0894 48.6837 77.1356 48.8212C77.0125 49.0349 76.951 48.9128 76.828 48.8364ZM70.7532 50.1801C70.784 50.0885 70.8762 50.0885 70.9993 50.119C70.9378 50.1648 70.8609 50.1954 70.7532 50.1801ZM69.6459 62.8688C69.6305 62.8688 69.6305 62.8688 69.6459 62.8688C69.5536 62.7161 69.5844 62.7772 69.6459 62.8688ZM69.8612 63.1284C69.9074 63.1284 69.9227 63.0979 69.9227 63.0673C69.8766 63.0979 69.8151 63.0673 69.7536 63.0062C69.7382 63.0521 69.7536 63.1131 69.8612 63.1284ZM86.0247 58.1965L86.1016 58.1659C86.1016 58.3033 86.0708 58.2575 86.0247 58.1965Z" fill="#7A80C9"/>
<path d="M71.3662 49.6615C71.397 49.692 71.4123 49.7224 71.4431 49.7529C71.4585 49.7072 71.4431 49.6767 71.3662 49.6615Z" fill="#7A80C9"/>
<path d="M83.2363 50.889C83.2517 50.889 83.2517 50.889 83.2363 50.889C83.2517 50.889 83.2671 50.889 83.2825 50.8737L83.2363 50.889Z" fill="#7A80C9"/>
<path d="M65.2149 59.9821C65.2303 59.8907 65.2457 59.845 65.2765 59.7993C65.2303 59.8145 65.1996 59.8602 65.2149 59.9821Z" fill="#7A80C9"/>
<path d="M71.5661 63.6653L71.3662 63.6196C71.4585 63.6501 71.4739 63.711 71.5046 63.7567C71.5046 63.711 71.5046 63.6349 71.5661 63.6653Z" fill="#7A80C9"/>
<path d="M72.7355 65.5571C72.7817 65.5419 72.7971 65.5723 72.8432 65.5571L72.8586 65.4657C72.7355 65.4353 72.6125 65.481 72.7355 65.5571Z" fill="#7A80C9"/>
<path d="M71.3801 64.3911C71.3186 64.5587 71.4724 64.5587 71.6262 64.5891C71.6108 64.5891 71.6108 64.5891 71.5954 64.5739C71.7492 64.3759 71.5646 64.3911 71.3801 64.3911Z" fill="#7A80C9"/>
<path d="M71.6592 64.6112C71.7053 64.6264 71.7515 64.6417 71.7822 64.6569C71.8437 64.5807 71.7515 64.6264 71.6592 64.6112Z" fill="#7A80C9"/>
<path d="M70.3017 63.2578C70.3325 63.3339 70.4555 63.0902 70.4555 63.1664C70.6401 63.0293 69.9326 63.1512 70.3017 63.2578Z" fill="#7A80C9"/>
<path d="M71.1809 64.9713L71.227 64.7581L71.0732 64.8799C71.104 64.9103 71.1501 64.9408 71.1809 64.9713Z" fill="#7A80C9"/>
<path d="M70.1934 64.2604L70.3779 64.4432C70.3933 64.4127 70.424 64.4127 70.4702 64.4127C70.3471 64.3213 70.2241 64.1995 70.1934 64.2604Z" fill="#7A80C9"/>
<path d="M70.4863 64.3909C70.5478 64.4366 70.6247 64.467 70.6863 64.4518C70.6401 64.4366 70.5478 64.3909 70.4863 64.3909Z" fill="#7A80C9"/>
<path d="M70.9648 64.8521L70.9187 64.7759L70.7803 64.6846L70.9648 64.8521Z" fill="#7A80C9"/>
<path d="M68.1229 62.6546C68.046 62.609 67.9691 62.5633 67.8922 62.5176C67.8153 62.548 67.8461 62.6394 67.9384 62.6851C68.0152 62.7003 68.1075 62.746 68.1229 62.6546Z" fill="#7A80C9"/>
<path d="M68.3117 63.6704C68.281 63.5943 68.3117 63.5486 68.3117 63.4724L68.1426 63.6704H68.3117Z" fill="#7A80C9"/>
<path d="M67.6864 63.1701C67.6095 63.2005 67.225 63.033 67.5173 63.2767C67.5788 63.2462 67.8402 63.3985 67.6864 63.1701Z" fill="#7A80C9"/>
<path d="M65.7979 59.3891L65.8132 59.4652L66.2438 59.3586L65.7979 59.3891Z" fill="#7A80C9"/>
<path d="M64.9709 55.4666C64.771 55.8025 65.217 55.6193 65.0017 55.9094C65.0786 56.0163 65.1709 55.6804 65.2324 55.7872C65.1863 55.5429 65.2785 55.4513 64.9709 55.4666Z" fill="#7A80C9"/>
<path d="M65.3574 55.7957C65.3728 55.8261 65.3728 55.8718 65.3882 55.9175C65.3728 55.8413 65.3728 55.8109 65.3574 55.7957Z" fill="#7A80C9"/>
<path d="M77.4275 65.6335L77.2275 65.603L77.3813 65.7096L77.4275 65.6335Z" fill="#7A80C9"/>
<path d="M77.0884 66.0455L76.9807 65.7866L76.9346 66.0607C76.9653 66.0455 77.0422 65.9998 77.0884 66.0455Z" fill="#7A80C9"/>
<path d="M76.2174 48.192L76.202 48.2529C76.2328 48.3291 76.2943 48.3291 76.4019 48.3595C76.325 48.2986 76.2635 48.2529 76.2174 48.192Z" fill="#7A80C9"/>
<path d="M79.3408 48.9571L79.2793 48.9266L79.3101 49.2008L79.3408 48.9571Z" fill="#7A80C9"/>
<path d="M81.8005 49.5843C81.7082 49.5234 81.5698 49.5233 81.4775 49.4777C81.7082 49.5386 81.6928 49.8889 81.8005 49.5843Z" fill="#7A80C9"/>
<path d="M75.4911 53.7506L74.7068 60.5912L73.6148 60.469L74.1992 55.3233L72.2461 57.1861L72.4153 55.644L74.4915 53.6284L75.4911 53.7506Z" fill="#122032"/>
<path d="M81.2636 59.1202C81.1098 60.5097 80.0333 61.3037 78.5877 61.151C77.3112 61.0136 76.5115 60.2043 76.4961 58.9981L77.588 58.7232C77.5111 59.5325 77.9571 60.0669 78.7261 60.1585C79.5104 60.2501 80.0948 59.7921 80.1717 58.9981C80.264 58.1888 79.818 57.6238 79.0644 57.5322C78.5261 57.4711 78.0955 57.6696 77.7879 58.0514L76.8652 57.7155L77.5111 53.9592L81.602 54.4173L81.4943 55.4098L78.4031 55.0586L78.0955 56.952C78.4492 56.7077 78.8337 56.5703 79.3874 56.6313C80.6331 56.7688 81.4174 57.746 81.2636 59.1202Z" fill="#122032"/>
<path d="M121.364 84.0414C121.503 84.0566 121.456 83.8891 121.472 83.8586C121.241 83.8891 121.38 84.0871 121.364 84.0414Z" fill="#303C4C"/>
<path d="M119.138 84.4338L119.169 84.3729L118.846 84.5405L119.138 84.4338Z" fill="#303C4C"/>
<path d="M116.941 84.4581C117.141 84.7475 117.71 84.4124 118.079 84.519L118.141 84.58L118.31 84.3363C117.864 84.382 117.264 84.5495 116.941 84.4581Z" fill="#303C4C"/>
<path d="M115.806 83.822C115.867 83.9439 115.559 83.9134 116.067 83.8525C116.036 83.8373 116.036 83.8373 116.021 83.822C115.975 83.8373 115.913 83.8373 115.806 83.822Z" fill="#303C4C"/>
<path d="M116.1 83.8362C116.316 83.821 115.946 83.7296 116.1 83.8362V83.8362Z" fill="#303C4C"/>
<path d="M115.032 83.8821L115.324 83.7755C115.263 83.7146 115.001 83.6841 115.093 83.6384C114.801 83.6993 114.863 83.7603 115.032 83.8821Z" fill="#303C4C"/>
<path d="M114.743 84.1115L114.897 84.0658C114.882 84.0354 114.835 84.0201 114.743 84.1115Z" fill="#303C4C"/>
<path d="M115.213 83.9689L114.89 84.0602C114.936 84.1059 114.936 84.1973 115.043 84.0298C115.013 84.1059 115.074 84.0298 115.213 83.9689Z" fill="#303C4C"/>
<path d="M115.476 84.0119C115.645 84.0728 115.86 84.1185 115.552 84.2251C116.122 84.1794 116.045 83.9662 115.476 84.0119Z" fill="#303C4C"/>
<path d="M116.942 84.738L117.157 84.8294L117.342 84.738C117.25 84.7685 116.927 84.6466 116.942 84.738Z" fill="#303C4C"/>
<path d="M113.279 83.7118C113.263 83.7727 113.371 83.8793 113.402 83.9555L113.617 83.8793C113.494 83.8489 113.294 83.8032 113.279 83.7118Z" fill="#303C4C"/>
<path d="M113.307 83.9689L112.984 84.0755C113.277 84.0907 113.338 84.045 113.307 83.9689Z" fill="#303C4C"/>
<path d="M114.704 84.4175L115.243 84.1891L114.597 84.4175H114.704Z" fill="#303C4C"/>
<path d="M111.95 83.6802L112.134 83.528L111.812 83.7412L111.95 83.6802Z" fill="#303C4C"/>
<path d="M111.124 83.7287C111.262 83.6069 110.939 83.5307 111.078 83.4546C110.847 83.4698 110.662 83.5764 110.493 83.6678C110.678 83.6069 110.862 83.6221 111.124 83.7287Z" fill="#303C4C"/>
<path d="M110.2 83.7755C110.292 83.745 110.385 83.6993 110.492 83.6384C110.385 83.6689 110.292 83.7146 110.2 83.7755Z" fill="#303C4C"/>
<path d="M112.513 84.0414C112.483 84.0109 112.437 83.9043 112.252 83.8586L112.375 84.0414C112.437 84.0262 112.467 84.0262 112.513 84.0414Z" fill="#303C4C"/>
<path d="M112.382 84.0207C112.244 84.0055 112.136 84.0055 112.105 84.0055C112.136 84.0055 112.229 84.0055 112.382 84.0207Z" fill="#303C4C"/>
<path d="M112.429 84.0422C112.414 84.0422 112.414 84.0422 112.398 84.0422C112.414 84.0575 112.429 84.0575 112.429 84.0422Z" fill="#303C4C"/>
<path d="M113.932 84.2628C113.747 84.3542 113.347 84.4608 113.732 84.6131C113.855 84.4913 113.639 84.4151 113.932 84.2628Z" fill="#303C4C"/>
<path d="M112.691 84.2376L113.03 84.2833C113.03 84.2376 112.968 84.1614 113.061 84.1157L112.691 84.2376Z" fill="#303C4C"/>
<path d="M112.545 84.302L112.714 84.2411L112.576 84.2258L112.545 84.302Z" fill="#303C4C"/>
<path d="M110.839 83.9321C110.685 84.0083 110.531 84.0083 110.347 84.0235C110.547 84.054 110.747 84.0844 110.946 84.0844C110.962 84.0235 111.054 83.9321 110.839 83.9321Z" fill="#303C4C"/>
<path d="M111.549 84.0055C111.534 84.0055 111.519 84.0055 111.519 84.0208C111.534 84.0208 111.549 84.0361 111.549 84.0055Z" fill="#303C4C"/>
<path d="M108.588 84.0055C108.603 84.0208 108.603 84.0208 108.619 84.0361C108.619 84.0208 108.619 84.0208 108.619 84.0055H108.588Z" fill="#303C4C"/>
<path d="M110.973 84.1399C111.126 84.1704 111.203 84.1399 111.296 84.079C111.188 84.0942 111.065 84.1094 110.942 84.1094C110.926 84.1399 110.926 84.1551 110.973 84.1399Z" fill="#303C4C"/>
<path d="M109.761 83.8344C109.838 83.8648 109.93 83.9105 110.022 83.941C109.945 83.8801 109.792 83.7887 109.761 83.8344Z" fill="#303C4C"/>
<path d="M111.529 83.9638C111.529 83.9638 111.544 83.9638 111.544 83.9486C111.513 83.9183 111.513 83.9335 111.529 83.9638Z" fill="#303C4C"/>
<path d="M111.426 83.9689C111.349 83.9993 111.287 84.0298 111.226 84.0755C111.318 84.0603 111.395 84.045 111.472 84.0146C111.472 84.0146 111.441 83.9841 111.426 83.9689Z" fill="#303C4C"/>
<path d="M107.942 85.1264C107.973 84.9584 108.357 84.821 108.696 85.0042C109.034 84.8821 108.819 84.3476 108.526 84.0422C108.511 84.1186 108.511 84.1797 108.173 84.2713C108.296 84.3629 108.926 84.485 108.634 84.6377C108.188 84.7141 108.265 84.5767 108.05 84.485C108.234 84.6835 107.465 84.7752 107.573 85.0805L107.973 84.9737C107.988 85.0195 107.834 85.0958 107.942 85.1264Z" fill="#303C4C"/>
<path d="M109.234 84.0657L109.372 84.0505C109.218 84.02 109.095 83.9591 108.895 83.822C108.665 83.8982 108.619 83.9591 108.588 84.02L109.28 84.0505L109.234 84.0657Z" fill="#303C4C"/>
<path d="M109.935 84.0758C109.828 84.259 109.489 84.3201 109.689 84.5186C110.105 84.5033 109.982 84.3659 110.228 84.3048C109.566 84.3353 110.412 84.2132 109.935 84.1063C110.074 84.0758 110.182 84.0758 110.289 84.0605C110.166 84.0452 110.059 84.0147 109.951 83.9689C109.951 83.9689 109.966 83.9689 109.966 83.9841C109.997 83.9994 109.997 84.0147 109.966 84.0147H109.951C109.966 84.0299 109.951 84.0452 109.935 84.0758C109.751 84.03 109.905 84.0299 109.966 84.0147C109.966 83.9994 109.966 83.9994 109.982 83.9841L109.32 84.0758C109.443 84.091 109.628 84.091 109.935 84.0758Z" fill="#303C4C"/>
<path d="M113.331 84.9696C113.316 84.9544 113.316 84.9392 113.316 84.924C113.27 84.9544 113.254 84.9696 113.331 84.9696Z" fill="#303C4C"/>
<path d="M113.034 84.8739C113.08 84.8434 113.126 84.7823 113.28 84.7976C113.418 84.8587 113.28 84.8892 113.28 84.935C113.372 84.8892 113.618 84.8129 113.311 84.7213L113.265 84.7518C113.003 84.6907 112.649 84.4617 112.695 84.4464C112.788 84.5991 112.865 84.7213 113.034 84.8739Z" fill="#303C4C"/>
<path d="M111.486 84.5198L110.933 84.5959L111.209 84.7482L111.194 84.6568C111.517 84.7025 111.456 84.5959 111.486 84.5198Z" fill="#303C4C"/>
<path d="M108.395 83.9313L108.471 83.7485L108.148 84.0074L108.395 83.9313Z" fill="#303C4C"/>
<path d="M107.732 83.9528L107.762 83.7853L107.562 83.8767L107.732 83.9528Z" fill="#303C4C"/>
<path d="M66.9924 85.3279L66.8232 85.3736C66.9001 85.3583 66.9617 85.3431 66.9924 85.3279Z" fill="#303C4C"/>
<path d="M68.1684 85.3305L68.1992 85.2544C68.1377 85.2849 68.1223 85.3153 68.1684 85.3305Z" fill="#303C4C"/>
<path d="M90.0145 83.6963C89.7838 83.544 89.5224 83.3003 89.5378 83.4831L89.6147 83.6658C89.7838 83.6353 89.9069 83.6506 90.0145 83.6963Z" fill="#303C4C"/>
<path d="M77.96 84.553C77.9753 84.5682 78.0061 84.5835 78.0215 84.6139C78.083 84.553 78.1291 84.4921 78.1906 84.4464C78.1138 84.4616 78.0369 84.5073 77.96 84.553Z" fill="#303C4C"/>
<path d="M77.6816 85.3029L77.374 85.181C77.4355 85.2267 77.5432 85.2572 77.6816 85.3029Z" fill="#303C4C"/>
<path d="M60.5749 85.4012L60.375 85.584C60.6826 85.584 60.5442 85.4774 60.5749 85.4012Z" fill="#303C4C"/>
<path d="M100.302 83.9071C100.103 83.831 99.9333 83.8005 99.7949 83.7853C100.041 83.8919 100.241 84.0442 100.302 83.9071Z" fill="#303C4C"/>
<path d="M67.5476 83.4178C67.4399 83.4483 67.4092 83.4788 67.4092 83.5245C67.5168 83.494 67.5783 83.4635 67.5476 83.4178Z" fill="#303C4C"/>
<path d="M99.209 83.7857C99.2397 83.801 99.2859 83.8162 99.3166 83.8314C99.4704 83.801 99.6242 83.7857 99.7934 83.8009C99.6242 83.7096 99.4243 83.6639 99.209 83.7857Z" fill="#303C4C"/>
<path d="M37.2678 84.9025C37.2524 84.8872 37.2371 84.8872 37.2217 84.8872C37.2217 84.9025 37.2371 84.9025 37.2678 84.9025Z" fill="#303C4C"/>
<path d="M30.4805 83.0352C30.542 83.02 30.665 83.02 30.7573 83.02C30.7112 83.0047 30.6343 83.02 30.4805 83.0352Z" fill="#303C4C"/>
<path d="M104.778 83.8288C104.932 83.8288 104.794 83.8136 104.778 83.8288V83.8288Z" fill="#303C4C"/>
<path d="M105.572 84.5198C105.542 84.535 105.511 84.5655 105.511 84.6112C105.526 84.5655 105.557 84.535 105.572 84.5198Z" fill="#303C4C"/>
<path d="M97.7441 84.8872C97.7749 84.9178 97.7749 84.9178 97.7441 84.8872V84.8872Z" fill="#303C4C"/>
<path d="M105.125 83.9196C105.063 83.9043 105.002 83.8739 104.925 83.8586C104.971 83.8739 105.032 83.8891 105.125 83.9196Z" fill="#303C4C"/>
<path d="M105.071 83.8351C105.117 83.8351 105.164 83.8503 105.21 83.8503C105.21 83.8351 105.194 83.8046 105.071 83.8351Z" fill="#303C4C"/>
<path d="M104.631 83.8373C104.723 83.8373 104.8 83.8373 104.877 83.8525C104.846 83.8373 104.831 83.8373 104.846 83.822C104.8 83.822 104.739 83.8373 104.631 83.8373Z" fill="#303C4C"/>
<path d="M49.7997 84.5717C49.7843 84.5717 49.7843 84.5565 49.769 84.5565C49.6152 84.6174 49.6767 84.6174 49.7997 84.5717Z" fill="#303C4C"/>
<path d="M86.0205 85.4903C86.0205 85.4903 86.0359 85.4903 86.0359 85.475C86.0359 85.4903 86.0205 85.4903 86.0205 85.4903Z" fill="#303C4C"/>
<path d="M85.4346 85.6173C85.6653 85.4035 85.8037 85.434 85.9882 85.4799L85.819 84.9607L85.4346 85.6173Z" fill="#303C4C"/>
<path d="M64.1707 85.2975L64.5552 85.4654C64.0785 85.725 63.7555 85.6181 64.1092 85.8624C64.1707 85.2975 65.6164 85.8319 65.6779 85.2669L65.924 85.3891C65.8471 85.3891 65.8317 85.4196 65.7702 85.4044C66.2623 85.6792 66.1393 85.0074 66.7852 85.099C67.0005 85.1448 67.1543 85.2364 67.0005 85.2975L67.4926 85.1601C67.631 85.1753 67.6003 85.2669 67.4619 85.2517L68.2155 85.2211V85.2364C68.3231 85.1448 68.5692 85.0226 68.6922 84.9616C68.8768 85.0379 68.5999 85.0226 68.6461 85.0837L69.0613 84.9616C69.2305 85.1143 68.8768 85.2517 68.5846 85.2211C68.969 85.7861 68.9383 85.0837 69.7687 85.4349L69.3689 85.496C69.615 85.8166 69.9225 85.7098 70.3685 85.9083C70.2609 85.8014 69.4919 85.3891 69.9379 85.2669C70.061 85.3128 70.2301 85.328 70.4762 85.2211C70.4762 85.4196 70.7223 85.3738 71.0145 85.3738L70.9837 85.6334C71.3067 85.5571 71.2913 85.4349 71.4758 85.3128C71.8296 85.3433 71.9064 85.5571 71.9833 85.725C72.5524 85.7708 71.5835 85.3891 72.2755 85.3586C72.7523 85.4654 73.0906 85.3586 73.675 85.2211C74.0134 85.3128 73.6135 85.3891 73.7366 85.4654L74.0442 85.2669C74.121 85.2669 74.0903 85.3433 74.0749 85.3738C74.321 85.2975 74.1057 85.1143 74.4901 85.0532C74.5978 84.7631 75.2899 85.496 75.782 85.1753C75.905 85.2517 75.7205 85.3433 75.7512 85.4349C76.4279 85.2364 76.3203 85.2822 76.8893 85.0074L77.3507 85.1906C77.0123 84.9921 77.4583 84.7631 77.8428 84.5798C77.7198 84.4882 77.6121 84.3966 77.5506 84.3508L78.1658 84.2134C78.2427 84.2592 78.1811 84.3508 78.0735 84.4577C78.1196 84.4424 78.1504 84.4119 78.1811 84.3966C78.3964 84.5035 78.2888 84.6409 78.1196 84.7936C78.0427 84.7478 77.9658 84.6867 77.9043 84.6256C77.7505 84.7783 77.6121 84.9616 77.6275 85.1143C77.6736 85.0837 77.7505 85.0532 77.8274 85.0532C77.7813 85.099 77.7659 85.1295 77.7813 85.1601C77.7967 85.1906 77.8736 85.1295 77.9658 85.0685L78.1042 85.3586L78.135 85.2364L78.9347 85.4349C79.5191 85.1448 80.0266 84.7173 80.934 84.6104C80.7033 84.8241 80.8725 84.9616 80.8571 85.2211C80.611 84.9463 80.1497 85.328 79.6729 85.2669C79.919 85.2975 79.8575 85.4196 79.7959 85.4654L80.6418 85.2364C80.6264 85.4502 80.811 85.3891 81.0417 85.4807C80.8879 85.0684 81.6722 85.2211 82.0259 85.099C82.0413 85.2364 81.9644 85.3738 81.5492 85.3433C82.0105 85.6639 82.149 84.87 82.6103 85.1448C82.5027 85.1448 82.4565 85.1295 82.4104 85.1906C82.6565 85.0684 83.2409 85.1753 83.0871 85.2975H82.9794C83.6561 85.3586 85.0402 85.328 85.1479 84.9921C85.1479 85.0379 85.0556 85.4196 85.0095 85.4807L86.2398 84.3203C86.1322 84.6256 86.532 85.3433 85.963 85.5113C86.1168 85.5571 86.3167 85.6029 86.6704 85.5113C86.5628 85.4654 86.409 85.0684 86.5474 85.0532C86.9626 85.3891 86.8242 85.2364 87.3317 85.5265C87.1626 85.4655 87.3625 84.9921 87.6239 85.0074C87.5778 85.0837 87.6393 85.4807 87.547 85.5265L88.2083 85.0685C88.0392 85.1448 88.1776 85.4654 88.316 85.5876C88.2545 85.496 88.885 85.6029 89.0542 85.5571L88.7774 85.4502C89.5156 85.5265 89.5156 84.8089 90.2384 84.8394C90.1461 84.931 90.0077 85.4196 90.3768 85.496C90.546 85.2669 91.1458 84.3661 91.7917 84.1981L91.9147 84.3355L92.4068 84.1828C92.0993 84.534 91.2227 85.2669 90.7459 85.5571C91.0227 85.6639 90.8228 85.725 91.238 85.7098C91.3764 85.8319 91.0074 85.893 90.8843 85.9083L91.8378 85.9999C91.8071 85.725 92.576 85.7403 92.5453 85.496L91.4995 85.7708C91.4687 85.496 92.1146 84.9921 92.7913 85.0532C92.9605 85.1601 92.6529 85.5418 92.6683 85.6334C92.7606 85.5418 93.3142 85.4655 93.3757 85.5265L93.0835 85.6639C93.4526 85.7708 93.6987 85.3128 94.1601 85.5723C94.3139 85.5876 94.6215 85.9388 94.6522 85.7708C94.4061 85.4502 94.36 84.473 94.5446 84.2286C94.6061 84.2439 95.3596 84.5493 95.5442 84.702C95.8056 84.9616 95.1443 85.2822 95.3596 85.496C95.375 85.4196 95.5134 85.328 95.575 85.2975C95.7441 85.3586 95.4981 85.5265 95.8672 85.496C95.9287 85.2211 96.59 85.5265 96.0363 85.2669C96.3901 85.1906 96.4054 85.328 96.8207 85.328C96.6976 85.1448 97.2051 84.7173 97.5435 84.6409C97.5281 84.7173 97.605 84.8089 97.6358 84.8547C98.3586 84.8852 98.7431 85.0226 99.4044 85.0379C99.4659 85.1143 99.7888 85.1906 99.6504 85.3128C99.7427 85.2669 99.835 85.1753 100.05 85.1601C100.45 85.4044 99.5889 85.1906 99.8965 85.4807C99.9273 85.3128 100.435 85.2669 100.727 85.1601C100.635 84.9005 100.05 85.099 99.7581 85.2059C99.7581 84.8547 100.281 84.5035 100.973 84.3508C101.527 84.2745 101.204 84.5798 101.311 84.534C102.357 84.6104 102.203 83.9385 103.065 84.1981C103.403 84.4271 103.08 84.6409 103.141 84.7936C102.695 84.8699 102.449 84.6409 102.142 84.6409L102.511 84.7478C102.373 84.8241 102.065 84.8699 101.896 84.8089C102.188 85.0074 103.664 84.87 104.464 85.0685C104.603 84.9921 104.849 84.9158 104.741 84.8241L104.479 84.8547C104.249 84.6714 104.956 84.6104 104.633 84.5188C104.972 84.3966 105.356 84.1981 105.848 84.305L105.94 84.5646C105.925 84.4882 105.633 84.4119 105.495 84.4882C105.694 84.3813 106.233 84.8394 106.448 84.5188L106.11 84.3355C106.448 84.2134 106.879 83.9538 107.309 84.0301C107.125 83.7706 107.217 84.0607 106.909 83.7553C107.171 84.1218 105.817 83.7248 106.233 84.1065C105.925 83.7706 105.694 83.9538 105.295 83.6637C105.31 83.74 105.433 83.8316 105.079 83.7858C105.064 83.8164 105.018 83.8469 105.002 83.8622C104.987 83.8622 104.987 83.8622 104.972 83.8622C104.972 83.8622 104.987 83.8622 104.987 83.8774C104.972 83.8927 104.972 83.8927 104.987 83.8774C105.079 83.908 105.141 83.9538 105.172 83.9996C104.987 84.1828 104.418 84.1828 104.233 84.2745C104.018 84.2286 104.326 84.1828 104.203 84.0912L103.91 84.2286C103.88 84.0454 103.357 83.908 103.849 83.8164L103.403 83.8011C103.141 83.6942 102.772 83.6484 102.557 83.7248C102.342 83.6789 102.019 83.9233 102.203 83.7858L101.496 83.8927V83.8469C100.804 83.8164 100.05 84.137 99.266 83.7858C99.0353 83.8316 98.7892 83.8774 98.3893 83.8316L98.3124 83.6637C98.0049 83.7095 97.4051 83.4957 97.282 83.6484C96.9591 83.2056 95.821 83.5263 95.2981 83.4499L95.2674 83.6637C94.8983 83.6484 94.5599 83.6942 94.0986 83.7706L94.1293 83.9538C93.7295 84.1065 93.1297 83.8011 92.5145 83.8164C92.5606 83.74 92.7144 83.7706 92.8221 83.8164C92.0993 83.3888 91.2688 84.0912 90.5921 83.7858C90.4229 83.8469 90.2999 83.8316 90.1923 83.7706C90.2076 83.7706 90.223 83.7706 90.2384 83.7553C90.223 83.7553 90.1922 83.7553 90.1769 83.7553C90.1 83.7248 90.0231 83.6789 89.9462 83.6484C90.0077 83.6942 90.0846 83.74 90.1461 83.7553C90.0231 83.7553 89.8232 83.7706 89.6232 83.8164L89.5463 83.6179C89.5309 83.6179 89.5156 83.6179 89.5002 83.6179C89.3156 83.5415 89.3464 83.7095 89.4387 83.8622C89.3464 83.8927 89.2541 83.9385 89.1772 83.9843C89.0234 83.6637 88.6697 84.0912 88.4698 83.74C88.3314 83.908 87.5009 83.8469 87.3932 84.1981C87.3932 84.1523 87.3317 84.1218 87.4394 84.1218C87.2241 84.076 87.0088 84.0301 86.8242 84.137L86.7319 83.8774L86.2552 84.2134C85.9784 84.0607 85.8553 83.9691 86.1475 83.7706C85.4708 84.0607 85.5939 83.8774 85.0095 84.1676L85.0402 83.9996C84.8403 83.9996 84.502 84.2134 84.3789 84.076C83.9176 83.7553 82.1028 83.9996 80.9186 83.6789C81.1339 84.1676 80.3804 83.4499 80.3188 83.8316C80.2573 83.7095 80.0882 83.6484 80.2881 83.5568C79.6883 83.6637 79.3807 83.3583 78.9655 83.6637C78.904 83.5415 79.1039 83.4957 79.0424 83.4346C78.9962 83.4652 78.8424 83.5263 78.7809 83.4652C78.7194 83.4041 78.8732 83.3736 78.9655 83.3278C78.3503 83.343 78.2734 83.6789 78.2273 84.0149C77.9197 83.8469 77.7659 83.8774 77.5352 84.0912C77.4276 83.9843 77.243 83.8622 77.6275 83.8316C77.4122 83.8164 76.3203 83.6484 76.2895 83.908C76.228 83.8469 75.9819 83.8774 75.9358 83.908C75.459 83.8774 75.4129 83.8622 74.9361 83.8774L75.0746 83.9233C74.8746 84.2439 74.6747 83.9843 74.2902 84.0149L74.3056 83.9843C73.429 83.74 73.9211 84.0912 73.0599 83.8164L73.106 84.0149C73.0137 84.4424 72.3371 83.7553 71.8449 83.908L72.0295 84.0301C71.7527 84.1676 71.2759 83.4346 70.9991 83.3736C70.9376 83.343 71.0913 83.3125 71.1836 83.2972C70.4608 83.0376 71.0914 83.5568 70.5531 83.6026C70.4608 83.4652 70.6915 83.2514 70.3224 83.2209C70.1378 83.0987 69.2612 83.6637 68.7691 83.3736C68.8768 83.4804 68.9844 83.5873 68.7383 83.6637C68.3539 83.6942 67.7079 83.2361 67.3542 83.5721C67.3081 83.5415 67.2927 83.511 67.2927 83.4804C67.0005 83.5568 66.3392 83.6026 66.1546 83.7858C65.8932 83.0987 64.3245 84.0912 64.3399 83.4499L63.4325 83.4652L63.4633 83.4041C62.8943 83.3583 62.679 83.4957 62.479 83.6484C62.3406 83.6026 62.4483 83.5415 62.4637 83.511C61.6178 83.3736 61.5409 83.3888 60.8335 83.6942L60.7566 83.4957C60.5566 83.6179 59.5416 83.1598 58.7111 83.3736C58.7265 83.343 58.7419 83.3125 58.8034 83.282C57.8653 83.511 56.5888 82.6712 56.2351 83.4194L55.6199 83.5873C56.4043 83.6637 55.4969 83.908 55.8199 84.0301C55.5123 84.0759 55.0201 83.7858 55.4046 83.7553L55.4661 83.8011C55.6199 83.4194 54.4819 83.6484 54.5126 83.3888C52.9593 83.3888 51.4368 83.1445 49.9758 83.0987L50.145 83.4041L49.6374 83.3736C49.499 83.2972 49.4683 83.1293 49.822 83.1598C49.6374 82.9918 49.2068 83.2972 49.1914 83.3583C48.484 83.2209 49.4683 83.0071 49.253 83.0071L48.9608 83.0224L49.0223 83.0529C48.7762 83.1751 48.7608 83.2972 48.3148 83.282C48.038 83.2209 48.1764 83.0987 48.0688 83.0835C48.0688 83.0682 48.038 83.0529 47.8996 83.0682L47.2537 83.0376L47.4997 83.282C47.2075 83.3888 46.9 83.2667 47.1922 83.5415C46.7615 83.114 44.8084 83.3583 44.5316 83.2209C44.1317 83.3888 43.7319 83.3736 43.2551 83.3583C43.3781 83.4041 43.4396 83.6789 43.0244 83.6331C43.1782 83.0834 42.2555 83.3888 41.9171 82.9766C42.2093 83.2514 40.7175 83.0224 41.1943 83.4041C40.8406 83.3583 41.1789 83.1903 40.9175 83.0682C40.087 83.2667 39.0873 82.9002 38.0416 82.9613C38.0262 83.0376 38.1954 83.1445 37.98 83.2514L37.4418 82.8849C37.2418 82.9155 37.2418 83.2972 36.8727 83.0376C36.9189 83.0987 36.9958 83.1903 36.8727 83.2209C35.8577 83.0376 34.8273 83.0987 33.7969 83.114C32.7665 83.1445 31.7207 83.114 30.6903 82.7933C30.9672 82.9308 30.7826 82.946 30.5673 82.946C30.7057 82.9766 30.5673 83.1293 30.5981 83.2209L29.7368 82.946C29.583 83.2209 28.8141 82.9613 28.7218 83.2209L28.9986 83.1751C28.6449 83.4804 29.5061 83.8622 29.46 84.2592C29.8599 83.908 30.5212 84.7783 31.1825 84.2745C31.3209 84.3508 31.0594 84.3966 31.1363 84.4882C31.3055 84.3203 31.5054 84.2897 31.8899 84.3661L31.8438 84.4119C32.9049 84.3813 33.3509 84.5493 34.5351 84.6714L34.4428 84.4729C34.7043 84.5035 34.7504 84.5646 34.8735 84.6104C35.1657 84.3203 34.1506 84.5951 34.4275 84.2592C34.7658 84.6562 36.2268 84.2745 36.4575 84.7325C36.8574 84.7325 36.3499 84.5035 36.7343 84.5188L36.842 84.6409L36.9496 84.4882C37.2111 84.5188 37.3341 84.6714 37.3495 84.7783C37.288 84.7631 37.165 84.8089 37.1034 84.8089C37.4418 84.9616 38.0416 84.7783 38.1646 84.8241L37.7955 84.7478C38.872 84.6409 40.1793 84.8241 41.2097 84.5798L41.1328 84.4882C41.9325 84.3355 41.7633 84.5951 42.6399 84.534L42.6092 84.5493C42.7783 84.4577 43.0244 84.4119 43.2551 84.4271C43.0398 84.534 43.6703 84.6409 43.3781 84.7631C44.2394 84.5951 43.8087 84.6256 44.3778 84.2897L44.5008 84.4424C44.7007 84.305 44.7161 84.2286 45.1467 84.1981C44.793 84.3203 45.4236 84.4424 45.0237 84.6104C45.9311 84.9616 46.3771 84.2897 46.7923 84.7936C47.2229 84.3813 46.008 84.5493 46.2387 84.4577C46.0387 84.3203 46.5924 84.1523 46.8692 84.1981C47.1614 84.2134 47.3613 84.7478 48.0842 84.7478C48.0073 84.7478 48.0073 84.7783 47.9304 84.7783C48.2072 84.8852 48.4686 84.6409 48.807 84.8241C49.0069 84.5646 49.2376 84.8394 49.2991 84.5188L48.6224 84.5798C49.0069 84.5035 49.3606 84.1218 49.9912 84.3203C49.945 84.3813 49.7605 84.4729 49.6221 84.5188C49.8066 84.6256 49.9758 84.4577 50.1603 84.5646C50.0988 84.8852 49.3452 84.6256 48.93 84.8699C49.1299 85.0074 49.699 84.6409 49.499 84.9921C49.8066 84.5493 50.2219 85.0532 50.714 84.7173L50.6832 84.9158C50.7601 84.8852 50.9293 84.7936 51.0677 84.8089L50.8063 85.0532C51.2061 84.8394 51.5752 85.2517 51.9597 85.1448C51.16 85.1448 51.7751 84.9005 51.4368 84.7631C52.4364 84.5188 52.0058 85.2822 53.1131 85.2059C52.9593 85.2364 52.5441 85.0837 52.7902 84.9921C53.0055 85.0379 53.2823 85.1143 53.4053 85.2211C54.1435 85.1906 53.2977 85.0226 53.6053 84.9005C53.8513 85.1448 53.9744 84.8089 54.2973 84.7325V84.931C55.1278 85.0684 54.528 84.5188 55.2816 84.6867L54.9586 84.9616L55.3585 84.9005L55.2662 85.1295C55.6968 84.9616 55.8352 85.0074 56.2505 85.0837C56.1582 84.9463 56.312 84.7173 56.6811 84.7173C56.9272 84.8394 56.5427 84.9005 57.0656 84.8852C56.9425 85.0074 56.8041 85.1601 56.5888 84.9768C56.5581 85.0379 56.4658 85.099 56.4504 85.1601C56.7272 85.2975 57.1425 85.2059 57.327 85.2059C57.2501 85.1906 57.1732 85.1906 57.1271 85.1601L57.896 84.9005C58.0191 84.9768 57.9114 85.0379 57.8191 85.099C57.9729 85.0837 58.0806 84.9921 58.3113 84.9768C58.2498 85.1448 58.2651 85.2975 57.9422 85.3738L58.6804 85.2059C58.7265 85.2822 59.0495 85.4044 58.9572 85.4654C59.3571 85.5723 59.9569 85.1753 60.4797 85.2975C60.5105 85.267 60.572 85.2364 60.6797 85.2211C61.1872 85.267 61.6178 85.4654 62.233 85.2669L62.5713 85.5571C63.0327 85.496 62.1253 85.1906 62.8943 85.0837C63.4479 85.0074 63.0942 85.328 63.2941 85.4196C63.5709 85.2822 64.0477 84.9921 64.5552 85.2364C64.4629 85.3128 64.3245 85.267 64.1707 85.2975ZM69.9379 85.2669C69.8303 85.3128 69.5996 85.4349 69.5227 85.3128C69.6611 85.0837 69.7534 85.1906 69.9379 85.2669ZM78.704 84.9463C78.6271 85.0074 78.4887 84.9768 78.3503 84.9005C78.458 84.8699 78.581 84.8852 78.704 84.9463ZM103.141 83.9538C103.126 83.9538 103.126 83.9538 103.141 83.9538C102.88 83.8774 102.957 83.908 103.141 83.9538ZM103.649 84.0454C103.695 84.0149 103.695 83.9843 103.68 83.9691C103.649 84.0149 103.526 84.0149 103.388 83.9996C103.434 84.0454 103.495 84.076 103.649 84.0454ZM48.0995 83.1903L48.1918 83.2514C47.9765 83.2972 48.038 83.2514 48.0995 83.1903Z" fill="#303C4C"/>
<path d="M77.7369 85.2142C77.7062 85.1837 77.6908 85.138 77.6908 85.1075C77.66 85.138 77.6447 85.1837 77.7369 85.2142Z" fill="#303C4C"/>
<path d="M60.552 85.3646H60.5368C60.5215 85.3798 60.5215 85.3949 60.5215 85.3949L60.552 85.3646Z" fill="#303C4C"/>
<path d="M95.5993 85.6183C95.4917 85.5879 95.4302 85.5574 95.3994 85.5117C95.3994 85.5726 95.4455 85.6031 95.5993 85.6183Z" fill="#303C4C"/>
<path d="M106.435 83.7485L106.097 83.7942C106.25 83.779 106.312 83.8247 106.389 83.8704C106.389 83.8095 106.327 83.7485 106.435 83.7485Z" fill="#303C4C"/>
<path d="M109.282 85.009C109.328 84.9786 109.389 85.009 109.436 84.9786L109.42 84.8872C109.205 84.8872 109.066 84.9634 109.282 85.009Z" fill="#303C4C"/>
<path d="M106.683 84.4051C106.713 84.5727 106.913 84.5117 107.144 84.4965C107.129 84.4965 107.113 84.4965 107.098 84.4965C107.175 84.2681 106.929 84.329 106.683 84.4051Z" fill="#303C4C"/>
<path d="M107.27 84.5013C107.346 84.5013 107.408 84.4861 107.485 84.5013C107.5 84.3947 107.393 84.4709 107.27 84.5013Z" fill="#303C4C"/>
<path d="M104.406 83.943C104.514 83.9887 104.483 83.7298 104.544 83.806C104.667 83.5928 103.806 84.0496 104.406 83.943Z" fill="#303C4C"/>
<path d="M106.898 84.9901L106.806 84.7769L106.683 84.9444L106.898 84.9901Z" fill="#303C4C"/>
<path d="M105.072 84.8085L105.441 84.8695C105.441 84.839 105.487 84.8085 105.549 84.7933C105.303 84.7933 105.057 84.7476 105.072 84.8085Z" fill="#303C4C"/>
<path d="M105.511 84.8073C105.634 84.8073 105.741 84.8073 105.803 84.7769C105.741 84.7769 105.603 84.7769 105.511 84.8073Z" fill="#303C4C"/>
<path d="M106.466 85.0216L106.358 84.9759L106.097 84.9607L106.466 85.0216Z" fill="#303C4C"/>
<path d="M101.085 84.7034L100.686 84.7491C100.639 84.8252 100.747 84.8709 100.901 84.8404C101.009 84.7947 101.147 84.7795 101.085 84.7034Z" fill="#303C4C"/>
<path d="M102.324 85.2966C102.217 85.2509 102.201 85.2052 102.155 85.1443L102.14 85.4032L102.324 85.2966Z" fill="#303C4C"/>
<path d="M101.115 85.3279C101.068 85.404 100.53 85.5259 101.038 85.5106C101.068 85.4497 101.484 85.3888 101.115 85.3279Z" fill="#303C4C"/>
<path d="M94.959 84.9107H95.0666V84.4832L94.959 84.9107Z" fill="#303C4C"/>
<path d="M89.5818 85.8315C90.0586 85.9381 89.7049 85.5726 90.1355 85.7097C90.2431 85.6183 89.7818 85.6031 89.9048 85.5117C89.5972 85.6183 89.4588 85.5574 89.5818 85.8315Z" fill="#303C4C"/>
<path d="M89.9766 85.4989C90.0227 85.4837 90.0688 85.4684 90.1304 85.438C90.0381 85.4684 90.0073 85.4837 89.9766 85.4989Z" fill="#303C4C"/>
<path d="M29.3225 82.7962L29.0149 82.7201L29.2148 82.8572L29.3225 82.7962Z" fill="#303C4C"/>
<path d="M28.6902 83.1041L28.6133 82.83L28.4287 83.0736C28.5056 83.0584 28.644 83.0432 28.6902 83.1041Z" fill="#303C4C"/>
<path d="M70.8635 85.8476L70.8943 85.7867C70.8481 85.7105 70.7712 85.7105 70.6328 85.6953L70.8635 85.8476Z" fill="#303C4C"/>
<path d="M66.5764 85.5563L66.6533 85.5715L66.5303 85.3279L66.5764 85.5563Z" fill="#303C4C"/>
<path d="M63.1628 85.8217C63.3012 85.8369 63.4703 85.776 63.6241 85.7912C63.3012 85.8369 63.132 85.5323 63.1628 85.8217Z" fill="#303C4C"/>
<path d="M62.1196 5.02679C63.4871 5.02679 64.5956 3.92615 64.5956 2.56845C64.5956 1.21074 63.4871 0.110107 62.1196 0.110107C60.7521 0.110107 59.6436 1.21074 59.6436 2.56845C59.6436 3.92615 60.7521 5.02679 62.1196 5.02679Z" fill="#F9BFCA"/>
<path d="M77.9035 5.41152L73.5973 7.99201C73.5512 8.02255 73.5512 8.0989 73.6127 8.12944L78.1957 10.1755C78.2418 10.206 78.3034 10.1602 78.3034 10.0992L78.0265 5.47259C78.0112 5.41152 77.9496 5.38098 77.9035 5.41152Z" fill="#F76159"/>
<path d="M48.6908 5.46638L45.5227 5.92445L43.5234 3.43557L44.7076 0.473345L47.8911 0L49.875 2.50415L48.6908 5.46638Z" fill="#F8C83E"/>
<path d="M0.498125 33.3693C0.144405 33.2777 -0.0709035 32.9265 0.0213714 32.5753C0.113646 32.2241 0.467367 32.0103 0.821087 32.102C1.17481 32.1936 1.39012 32.5448 1.29784 32.896C1.22094 33.1861 0.959499 33.3846 0.667296 33.3846C0.605779 33.3998 0.559642 33.3846 0.498125 33.3693ZM3.14334 26.7577C2.83576 26.5745 2.7281 26.1775 2.91265 25.8569C3.0972 25.5515 3.49706 25.4446 3.82002 25.6278C4.1276 25.811 4.23526 26.208 4.05071 26.5287C3.92768 26.7272 3.71237 26.8494 3.48168 26.8494C3.37403 26.8494 3.25099 26.8341 3.14334 26.7577ZM7.32647 20.9707C7.04964 20.7264 7.03426 20.3141 7.28033 20.0546C7.5264 19.7797 7.94163 19.7644 8.20308 20.0087C8.4799 20.2531 8.49528 20.6653 8.24922 20.9249C8.12618 21.0623 7.94163 21.1387 7.75708 21.1387C7.61867 21.1387 7.46488 21.0776 7.32647 20.9707ZM12.4631 15.9929C12.2324 15.7181 12.2786 15.3058 12.5554 15.0768C12.8322 14.8478 13.2474 14.8936 13.4781 15.1684C13.7088 15.4433 13.6627 15.8555 13.3858 16.0846C13.2628 16.1914 13.109 16.2373 12.9706 16.2373C12.7861 16.2373 12.6015 16.1456 12.4631 15.9929ZM18.2918 11.8092C18.1072 11.5038 18.1995 11.0915 18.5225 10.9083C18.8301 10.7251 19.2453 10.8167 19.4299 11.1373C19.6144 11.4427 19.5221 11.855 19.1992 12.0382C19.0915 12.0993 18.9685 12.1298 18.8608 12.1298C18.6301 12.1298 18.4148 12.023 18.2918 11.8092ZM24.6434 8.4805C24.505 8.14457 24.6588 7.76284 24.9971 7.62542C25.3354 7.488 25.7199 7.64069 25.8583 7.97661C25.9967 8.31254 25.843 8.69426 25.5046 8.83169C25.4277 8.86223 25.3354 8.8775 25.2432 8.8775C24.9971 8.8775 24.751 8.7248 24.6434 8.4805ZM31.4102 6.06796C31.3179 5.71677 31.5332 5.36558 31.8716 5.27396C32.2253 5.18235 32.579 5.39612 32.6713 5.73204C32.7636 6.08323 32.5483 6.43442 32.2099 6.52604C32.1484 6.54131 32.1023 6.54131 32.0408 6.54131C31.7486 6.55657 31.4871 6.35808 31.4102 6.06796Z" fill="#122032"/>
<path d="M34.5877 40.8823C34.5723 40.9128 34.7107 40.928 34.7415 40.928C34.7261 40.8823 34.557 40.8823 34.5877 40.8823Z" fill="#45A17B"/>
<path d="M34.3525 40.3708L34.414 40.3861L34.291 40.2947L34.3525 40.3708Z" fill="#45A17B"/>
<path d="M34.4448 39.9642C34.1987 39.9642 34.4602 40.1318 34.3525 40.1927H34.291L34.4756 40.2536C34.4756 40.1622 34.3679 40.0252 34.4448 39.9642Z" fill="#45A17B"/>
<path d="M35.0934 39.8347C35.0011 39.8347 35.0165 39.7738 35.0473 39.8804C35.0626 39.8804 35.0626 39.8804 35.078 39.8804C35.078 39.8652 35.0934 39.8499 35.0934 39.8347Z" fill="#45A17B"/>
<path d="M35.0234 39.8933C35.0234 39.9392 35.1157 39.878 35.0234 39.8933V39.8933Z" fill="#45A17B"/>
<path d="M35.0234 39.6826L35.1003 39.7587C35.1618 39.7587 35.1772 39.7131 35.2234 39.7283C35.1926 39.6521 35.1311 39.6674 35.0234 39.6826Z" fill="#45A17B"/>
<path d="M34.877 39.5601L34.9075 39.5904C34.9228 39.5904 34.9381 39.5904 34.877 39.5601Z" fill="#45A17B"/>
<path d="M35.0018 39.6754L34.9403 39.5992C34.8941 39.5992 34.8172 39.584 34.9556 39.6297C34.8788 39.6145 34.9556 39.6449 35.0018 39.6754Z" fill="#45A17B"/>
<path d="M34.8996 39.7221C34.8381 39.7374 34.792 39.7831 34.7305 39.7069C34.7305 39.8287 34.915 39.844 34.8996 39.7221Z" fill="#45A17B"/>
<path d="M34.2214 39.8907L34.1445 39.9212L34.2214 39.9669C34.1907 39.9517 34.2983 39.906 34.2214 39.8907Z" fill="#45A17B"/>
<path d="M35.2387 39.3182C35.1926 39.303 35.1003 39.3182 35.0234 39.303L35.0696 39.3639C35.1311 39.3334 35.1618 39.303 35.2387 39.3182Z" fill="#45A17B"/>
<path d="M34.9636 39.3058L34.8867 39.2296C34.856 39.2753 34.9021 39.2905 34.9636 39.3058Z" fill="#45A17B"/>
<path d="M34.584 39.517L34.7532 39.6541L34.584 39.4866V39.517Z" fill="#45A17B"/>
<path d="M35.2324 39.0915L35.3401 39.1524L35.1709 39.0458L35.2324 39.0915Z" fill="#45A17B"/>
<path d="M35.3174 38.932C35.4097 38.9777 35.4866 38.932 35.5481 38.9777C35.5327 38.932 35.4558 38.8711 35.3943 38.8254C35.425 38.8559 35.4097 38.9016 35.3174 38.932Z" fill="#45A17B"/>
<path d="M35.1709 38.7153C35.1863 38.7458 35.2324 38.761 35.2786 38.7915C35.2478 38.7762 35.217 38.7458 35.1709 38.7153Z" fill="#45A17B"/>
<path d="M35.0234 39.1345C35.0542 39.1345 35.1465 39.1497 35.1772 39.1193H35.0234V39.1345Z" fill="#45A17B"/>
<path d="M35.0234 39.0912C35.0387 39.0609 35.0387 39.0458 35.054 39.0458C35.0387 39.0458 35.0387 39.0609 35.0234 39.0912Z" fill="#45A17B"/>
<path d="M34.8892 39.1317C34.8729 39.1151 34.8729 39.1151 34.8892 39.1317V39.1317Z" fill="#45A17B"/>
<path d="M34.7297 39.3778C34.6528 39.3169 34.5913 39.2255 34.4375 39.2864C34.5452 39.3321 34.622 39.3017 34.7297 39.3778Z" fill="#45A17B"/>
<path d="M34.7766 39.1193L34.7305 39.1802C34.7766 39.1802 34.8227 39.1802 34.8689 39.2106L34.7766 39.1193Z" fill="#45A17B"/>
<path d="M34.7305 39.0825L34.7766 39.113L34.792 39.0977L34.7305 39.0825Z" fill="#45A17B"/>
<path d="M35.1465 38.8004C35.085 38.7547 35.085 38.7243 35.085 38.6786C35.0542 38.709 35.0234 38.7547 35.0234 38.7852C35.0542 38.8004 35.1311 38.8461 35.1465 38.8004Z" fill="#45A17B"/>
<path d="M35.0357 38.943C35.0357 38.943 35.0357 38.9265 35.0357 38.943C35.0193 38.9265 35.0193 38.943 35.0357 38.943Z" fill="#45A17B"/>
<path d="M34.8893 38.8002C34.8586 38.8307 34.8893 38.8459 34.9355 38.8764C34.9201 38.8459 34.9201 38.8307 34.9201 38.8002C34.8893 38.785 34.874 38.785 34.8893 38.8002Z" fill="#45A17B"/>
<path d="M35.2632 38.6052C35.2324 38.6205 35.2017 38.6205 35.1709 38.6357C35.217 38.6205 35.2939 38.6052 35.2632 38.6052Z" fill="#45A17B"/>
<path d="M35.1003 38.9231C35.085 38.9079 35.0542 38.8774 35.0234 38.8622C35.0388 38.8774 35.0388 38.9079 35.0696 38.9231C35.0696 38.9231 35.085 38.9231 35.1003 38.9231Z" fill="#45A17B"/>
<path d="M34.1445 38.0264C34.2829 38.0569 34.3906 38.1635 34.2214 38.2092C34.3137 38.3005 34.7597 38.3462 35.0211 38.3462C34.9596 38.331 34.9135 38.3158 34.852 38.2396C34.7751 38.2548 34.652 38.3462 34.5444 38.2701C34.4983 38.1635 34.6059 38.2092 34.6828 38.1787C34.5136 38.1787 34.4675 38.0112 34.2214 37.9807L34.2829 38.0721C34.2368 38.0569 34.1907 38.0112 34.1445 38.0264Z" fill="#45A17B"/>
<path d="M35.0234 38.4697L35.0388 38.5002C35.0696 38.4697 35.1311 38.4697 35.2387 38.4393C35.1772 38.3784 35.1311 38.3631 35.085 38.3479L35.0388 38.485L35.0234 38.4697Z" fill="#45A17B"/>
<path d="M34.939 38.6318C34.8006 38.5861 34.7545 38.4948 34.5853 38.51C34.5699 38.6014 34.693 38.5861 34.7545 38.6623C34.7391 38.5252 34.8314 38.7232 34.939 38.6318C34.9544 38.6623 34.9544 38.6927 34.9698 38.708C34.9852 38.6927 35.0159 38.6623 35.0467 38.647C35.0467 38.647 35.0467 38.647 35.0313 38.647C35.0159 38.647 35.0005 38.647 35.0159 38.647C34.9852 38.647 34.9544 38.647 34.939 38.6318C34.9852 38.6014 34.9852 38.6318 35.0005 38.647H35.0159L34.9698 38.4948C34.939 38.5404 34.939 38.5709 34.939 38.6318Z" fill="#45A17B"/>
<path d="M34.1445 39.1261C34.1599 39.1261 34.1753 39.1261 34.1753 39.1261C34.1599 39.1261 34.1445 39.1108 34.1445 39.1261Z" fill="#45A17B"/>
<path d="M34.206 39.0925C34.2214 39.1078 34.2829 39.123 34.2676 39.1534C34.2214 39.1687 34.1907 39.1382 34.1445 39.1382C34.1753 39.1687 34.2368 39.2296 34.3137 39.1839L34.2983 39.1687C34.3598 39.123 34.5598 39.0925 34.5751 39.1078C34.4367 39.0773 34.3445 39.0773 34.206 39.0925Z" fill="#45A17B"/>
<path d="M34.622 38.8372L34.5759 38.7153L34.4375 38.7458L34.5144 38.761C34.4683 38.8067 34.5605 38.8219 34.622 38.8372Z" fill="#45A17B"/>
<path d="M35.217 38.3355L35.3708 38.3811L35.1709 38.2745L35.217 38.3355Z" fill="#45A17B"/>
<path d="M35.1709 38.1795L35.2939 38.2252L35.2324 38.1643L35.1709 38.1795Z" fill="#45A17B"/>
<path d="M35.7874 29.7248L35.7568 29.6793C35.7568 29.6945 35.7721 29.7096 35.7874 29.7248Z" fill="#45A17B"/>
<path d="M35.7568 29.9423L35.8184 29.9727C35.7876 29.9423 35.7722 29.927 35.7568 29.9423Z" fill="#45A17B"/>
<path d="M36.0498 34.7142C36.1882 34.699 36.3881 34.699 36.2497 34.6685L36.0959 34.6381C36.0959 34.6837 36.0806 34.699 36.0498 34.7142Z" fill="#45A17B"/>
<path d="M35.9495 32.0669C35.9341 32.0669 35.9187 32.0669 35.9033 32.0669C35.9495 32.0974 35.9956 32.1126 36.0264 32.143C36.011 32.1126 35.9802 32.0821 35.9495 32.0669Z" fill="#45A17B"/>
<path d="M35.3174 31.8768L35.425 31.8463C35.3943 31.8463 35.3481 31.8463 35.3174 31.8768Z" fill="#45A17B"/>
<path d="M36.0434 28.3965L35.905 28.3203C35.8896 28.366 35.9819 28.366 36.0434 28.3965Z" fill="#45A17B"/>
<path d="M35.5125 36.7343C35.574 36.7039 35.6048 36.6887 35.6201 36.6582C35.5279 36.6887 35.3894 36.6887 35.5125 36.7343Z" fill="#45A17B"/>
<path d="M37.2986 30.2545C37.2832 30.2241 37.2524 30.2088 37.2217 30.1936C37.2371 30.2393 37.2678 30.2545 37.2986 30.2545Z" fill="#45A17B"/>
<path d="M35.6565 36.5481C35.6411 36.5481 35.6257 36.5633 35.6104 36.5633C35.6257 36.5938 35.6411 36.6395 35.6257 36.6699C35.7026 36.6395 35.7488 36.609 35.6565 36.5481Z" fill="#45A17B"/>
<path d="M37.5146 23.8503H37.53C37.5146 23.835 37.5146 23.835 37.5146 23.8503Z" fill="#45A17B"/>
<path d="M35.3174 37.65C35.3328 37.6806 35.3328 37.65 35.3174 37.65V37.65Z" fill="#45A17B"/>
<path d="M34.792 37.6437C34.7766 37.6285 34.7612 37.6285 34.7305 37.6133C34.7612 37.6285 34.792 37.6285 34.792 37.6437Z" fill="#45A17B"/>
<path d="M35.3174 37.6806C35.3328 37.6806 35.3635 37.6653 35.3635 37.65C35.3635 37.65 35.3481 37.6653 35.3174 37.6806Z" fill="#45A17B"/>
<path d="M35.3327 37.6868C35.3174 37.7019 35.3174 37.7019 35.3174 37.7171C35.3327 37.7171 35.348 37.7171 35.3327 37.6868Z" fill="#45A17B"/>
<path d="M35.348 37.5767C35.348 37.5918 35.3327 37.607 35.3174 37.6221C35.3327 37.6221 35.3327 37.6221 35.348 37.6221C35.348 37.607 35.348 37.5918 35.348 37.5767Z" fill="#45A17B"/>
<path d="M37.2486 26.4023H37.264C37.2025 26.3564 37.2178 26.3717 37.2486 26.4023Z" fill="#45A17B"/>
<path d="M34.7305 33.3524C34.8996 33.4438 34.8689 33.4743 34.8227 33.4895L35.2534 33.5809L34.7305 33.3524Z" fill="#45A17B"/>
<path d="M35.8947 29.1585L35.7409 29.189C35.5563 29.0363 35.6486 28.9905 35.4487 29.0058C35.8947 29.1585 35.4025 29.3112 35.8485 29.4638L35.7409 29.4791C35.7562 29.4638 35.7255 29.4486 35.7255 29.4486C35.4794 29.4791 36.0331 29.6165 35.9254 29.7234C35.8793 29.754 35.8024 29.7692 35.7562 29.7234L35.8331 29.8608C35.8178 29.8914 35.7409 29.8608 35.7562 29.8303L35.7409 29.983H35.7255C35.787 30.0288 35.8793 30.1052 35.9254 30.151C35.8485 30.1662 35.8793 30.1204 35.8178 30.1052L35.8947 30.2273C35.7716 30.2273 35.6793 30.1204 35.7101 30.0746C35.2334 30.0135 35.8024 30.1815 35.4948 30.2578L35.464 30.1662C35.1872 30.1357 35.2641 30.2273 35.0796 30.2731C35.1718 30.2731 35.5409 30.2273 35.6178 30.3495C35.5717 30.3647 35.5563 30.3953 35.6332 30.4716C35.4794 30.4258 35.4948 30.4869 35.4948 30.548L35.2795 30.4716C35.3256 30.548 35.4333 30.5785 35.5102 30.6548C35.464 30.7159 35.2949 30.6854 35.1565 30.6548C35.0949 30.7617 35.4487 30.6548 35.4487 30.8075C35.341 30.8839 35.4025 30.9755 35.4948 31.1282C35.4025 31.174 35.3718 31.0824 35.2949 31.0824L35.4487 31.1893C35.4333 31.2045 35.3871 31.1893 35.3564 31.174C35.4025 31.2503 35.5717 31.2351 35.6025 31.342C35.8331 31.4336 35.218 31.403 35.4487 31.571C35.3871 31.571 35.3256 31.5252 35.2334 31.5099C35.3718 31.6932 35.3256 31.6626 35.5256 31.8458L35.3564 31.8917C35.5409 31.8764 35.6947 32.0138 35.8331 32.136C35.91 32.136 35.9869 32.136 36.0331 32.136L36.11 32.2887C36.0638 32.2887 36.0023 32.2581 35.9254 32.2123C35.9408 32.2276 35.9562 32.2428 35.9716 32.2428C35.8793 32.2581 35.7562 32.197 35.6486 32.136C35.6947 32.136 35.7409 32.136 35.787 32.136C35.664 32.0596 35.5256 31.9985 35.4025 31.968C35.4179 31.9833 35.4487 31.9985 35.4487 32.0291C35.4179 32.0138 35.3871 31.9985 35.3564 31.9985C35.3256 31.9985 35.3718 32.0291 35.4179 32.0596L35.1718 32.0138L35.2641 32.0443L35.0642 32.1512C35.2641 32.3345 35.5871 32.533 35.6332 32.7467C35.4794 32.6551 35.3564 32.6551 35.1411 32.594C35.3718 32.6093 35.0949 32.4261 35.1565 32.3497C35.1257 32.3955 35.018 32.3497 34.9873 32.3345L35.1411 32.5635C34.9719 32.5024 35.0027 32.5635 34.9258 32.5788C35.2641 32.6398 35.1103 32.762 35.1872 32.8689C35.0796 32.8383 34.9719 32.7925 35.018 32.7162C34.7412 32.7315 35.3718 32.9452 35.1411 32.9758C35.1411 32.9605 35.1718 32.9452 35.1103 32.93C35.2026 33.0063 35.0796 33.0979 34.9873 33.0368V33.0216C34.9104 33.1437 34.8643 33.4338 35.1411 33.5407C35.1103 33.5255 34.8027 33.4186 34.7566 33.4033L35.6486 33.9225C35.4179 33.8308 34.8027 33.7392 34.6951 33.5865C34.6489 33.6018 34.6028 33.6323 34.6643 33.724C34.7105 33.7087 35.0334 33.7698 35.0488 33.8003C34.7566 33.8003 34.8796 33.8156 34.6182 33.8461C34.6797 33.8308 35.0488 33.9683 35.018 34.0293C34.9565 33.9988 34.6336 33.9225 34.6028 33.8919L34.9412 34.121C34.8796 34.0751 34.6182 34.0293 34.5105 34.0293C34.5874 34.0293 34.4798 34.1362 34.4952 34.182L34.6028 34.1515C34.5105 34.2889 35.0949 34.4416 35.0334 34.579C34.9565 34.5332 34.5721 34.3958 34.4952 34.4569C34.6797 34.5485 35.3871 34.8691 35.4948 35.0371H35.3718L35.464 35.1745C35.1872 35.0371 34.6336 34.7012 34.4183 34.5332C34.3106 34.5638 34.2798 34.518 34.2645 34.5943C34.1568 34.5943 34.1261 34.5027 34.1261 34.4874L34.003 34.6554C34.2337 34.7012 34.1876 34.8692 34.3721 34.915L34.203 34.6401C34.4336 34.7012 34.8027 34.9302 34.7258 35.0524C34.6336 35.0676 34.326 34.915 34.2491 34.8997C34.326 34.9455 34.3567 35.0676 34.2952 35.0676L34.1876 34.976C34.0799 35.0218 34.449 35.1745 34.2183 35.2203C34.203 35.2509 33.8954 35.2356 34.0338 35.2814C34.3106 35.2967 35.1103 35.4952 35.2949 35.5868C35.2795 35.5868 35.0027 35.6784 34.8643 35.6937C34.6489 35.6937 34.4029 35.4952 34.2183 35.4799C34.2798 35.4952 34.3414 35.541 34.3721 35.5715C34.3106 35.5868 34.1876 35.5105 34.1876 35.5868C34.4183 35.6631 34.1261 35.7242 34.3721 35.6784C34.4183 35.77 34.3106 35.7395 34.2952 35.8311C34.449 35.8464 34.7874 36.0296 34.8335 36.1212C34.772 36.106 34.6951 36.0907 34.6643 36.0907C34.6028 36.2281 34.4798 36.2739 34.449 36.4113C34.3875 36.4113 34.3106 36.4571 34.2183 36.4113C34.2491 36.4419 34.326 36.4724 34.326 36.5182C34.1107 36.5488 34.3106 36.4113 34.0645 36.4266C34.203 36.4724 34.2183 36.5793 34.2952 36.6556C34.5105 36.6862 34.3721 36.5335 34.2952 36.4571C34.5874 36.5335 34.8489 36.7015 34.9565 36.8694C35.0027 36.9916 34.7566 36.8694 34.8027 36.9C34.6951 37.0985 35.2641 37.1901 35.0027 37.3122C34.8027 37.3428 34.6336 37.2359 34.5105 37.2206C34.4644 37.1137 34.6643 37.1137 34.6643 37.0526L34.5567 37.1137C34.5105 37.0679 34.4798 36.9916 34.5259 36.9763C34.3414 36.9916 34.4029 37.3275 34.2183 37.4496C34.2798 37.4955 34.326 37.5565 34.4029 37.5565L34.3875 37.4955C34.5413 37.4802 34.5721 37.6329 34.6489 37.5871C34.7412 37.6787 34.8796 37.7856 34.772 37.8619L34.5567 37.8314C34.6182 37.8466 34.6951 37.8008 34.6336 37.755C34.7105 37.8161 34.326 37.8314 34.5874 37.9383L34.7412 37.9077C34.8335 37.9993 35.0334 38.1368 34.9412 38.1978C35.1565 38.1978 34.9258 38.1673 35.1718 38.1673C34.8643 38.152 35.2334 37.9535 34.895 37.9688C35.1872 37.9688 35.0334 37.8925 35.2949 37.8619C35.2334 37.8466 35.1565 37.8619 35.2026 37.8008C35.1872 37.7856 35.1565 37.7856 35.1411 37.7703H35.1257C35.1103 37.7703 35.1103 37.7703 35.1257 37.7703C35.0949 37.7856 35.0488 37.7856 35.018 37.7856C34.8643 37.7092 34.895 37.6023 34.8335 37.5413C34.8796 37.5107 34.9104 37.5718 34.9873 37.5718L34.8796 37.4802C35.0334 37.5107 35.1565 37.4344 35.218 37.5413L35.2487 37.4496C35.341 37.4191 35.4025 37.358 35.341 37.297C35.3871 37.2664 35.2026 37.1443 35.3102 37.2206L35.2487 37.0526L35.2795 37.0679C35.3256 36.9305 35.0949 36.7167 35.4025 36.6404C35.3718 36.5793 35.341 36.5182 35.4025 36.4571L35.5409 36.4724C35.5102 36.3961 35.7255 36.335 35.5871 36.2739C35.9562 36.3045 35.7409 36.0143 35.8331 35.9227L35.664 35.8769C35.6947 35.8006 35.664 35.7242 35.6178 35.6173L35.464 35.5868C35.3564 35.4799 35.6178 35.4188 35.6486 35.2967C35.7101 35.3272 35.6793 35.3425 35.6332 35.3578C36.0177 35.312 35.4794 34.9913 35.7562 34.915C35.7101 34.8692 35.7409 34.8539 35.787 34.8386C35.787 34.8386 35.787 34.8386 35.787 34.8539V34.8386C35.8178 34.8386 35.8485 34.8233 35.8793 34.8081C35.8331 34.8081 35.8024 34.8233 35.787 34.8233C35.787 34.7928 35.787 34.747 35.7562 34.7012L35.9254 34.7317C35.9254 34.7317 35.9254 34.7317 35.9254 34.7165C36.0023 34.7012 35.8639 34.6706 35.7255 34.6554C35.7101 34.6248 35.6794 34.6096 35.6486 34.579C35.91 34.6248 35.5871 34.4569 35.8793 34.4874C35.7562 34.4263 35.8331 34.2736 35.5563 34.1668C35.5871 34.182 35.6178 34.1668 35.6178 34.1973C35.664 34.1668 35.7101 34.1362 35.6332 34.0752L35.8485 34.121L35.6025 33.953C35.7409 33.9377 35.8178 33.9377 35.9562 34.0293C35.7562 33.8308 35.8947 33.8919 35.6947 33.7087L35.8178 33.7545C35.8178 33.7087 35.664 33.6018 35.787 33.6018C36.0638 33.5865 35.9562 33.159 36.2638 33.0063C35.8639 32.93 36.4637 32.9452 36.1715 32.8536C36.2638 32.8689 36.3253 32.8536 36.4022 32.9147C36.3407 32.762 36.6021 32.7773 36.3714 32.6246C36.4637 32.6398 36.4944 32.6857 36.556 32.7009C36.5406 32.6857 36.4944 32.6398 36.5406 32.6398C36.6021 32.6398 36.6175 32.6856 36.6482 32.7162C36.6636 32.594 36.3868 32.4871 36.1253 32.4108C36.2638 32.3803 36.2638 32.3497 36.0946 32.2581C36.1869 32.2581 36.2945 32.2581 36.2945 32.3345C36.3253 32.2886 36.4944 32.1207 36.2945 32.0443C36.356 32.0443 36.3253 31.9833 36.3099 31.968C36.356 31.8764 36.3714 31.8764 36.3868 31.7695L36.3407 31.7848C36.0946 31.6626 36.3099 31.6932 36.2945 31.6015L36.3253 31.6168C36.556 31.4947 36.2638 31.5099 36.5252 31.403L36.356 31.3572C36.0177 31.2351 36.6021 31.2656 36.5098 31.1282L36.4022 31.1435C36.2945 31.0518 36.9097 31.1282 36.9712 31.0977C37.002 31.0977 37.0173 31.1282 37.0327 31.1587C37.2788 31.0824 36.8328 31.0824 36.8174 30.9602C36.9404 30.9755 37.0942 31.0671 37.1404 31.006C37.248 30.9908 36.8328 30.6854 37.0789 30.6548C36.9866 30.6548 36.8943 30.6396 36.8482 30.5785C36.8328 30.4869 37.2326 30.4716 36.9866 30.3189C37.0173 30.3189 37.0327 30.3189 37.0635 30.3189C37.0173 30.2426 37.002 30.0899 36.8635 30.0135C37.4326 30.1357 36.7098 29.5707 37.2173 29.7234L37.248 29.5402L37.2942 29.5555C37.3557 29.4486 37.248 29.3722 37.1404 29.2959C37.1865 29.2806 37.2173 29.3112 37.248 29.3264C37.4018 29.189 37.3864 29.1737 37.1711 28.96L37.3403 28.9905C37.2634 28.9294 37.6786 28.8225 37.5248 28.6088C37.5402 28.6088 37.571 28.624 37.5864 28.6546C37.448 28.4103 38.1708 28.3492 37.6017 28.1049L37.4941 27.9369C37.4018 28.0743 37.2326 27.83 37.125 27.8759C37.1096 27.7995 37.3557 27.769 37.3557 27.8606H37.3249C37.6325 27.9827 37.4941 27.6926 37.7094 27.769C37.7863 27.4636 38.0477 27.204 38.14 26.9139L37.8786 26.8834L37.9247 26.7917C37.9862 26.7765 38.1246 26.807 38.0939 26.8834C38.2477 26.8834 38.017 26.7307 37.9555 26.7154C38.0939 26.6085 38.2169 26.8528 38.2477 26.807V26.7459H38.2169C38.1246 26.6696 38.0324 26.639 38.0631 26.5474C38.1246 26.5016 38.2169 26.5627 38.2323 26.5474C38.2477 26.5474 38.263 26.5474 38.2477 26.5169L38.3092 26.3947H38.1093C38.0324 26.3184 38.1554 26.2726 37.9247 26.2726C38.2938 26.2879 38.1861 25.8298 38.2938 25.8145C38.1708 25.6924 38.2015 25.616 38.2477 25.5244C38.2015 25.5397 37.9862 25.4939 38.0324 25.4175C38.4784 25.5702 38.263 25.3259 38.6168 25.3412C38.3861 25.3412 38.6321 25.0816 38.2938 25.0969C38.3553 25.0358 38.463 25.1427 38.586 25.1121C38.463 24.8984 38.8013 24.7762 38.8013 24.5472C38.7398 24.5319 38.6475 24.5319 38.5706 24.4708L38.8936 24.4403C38.8782 24.3945 38.5552 24.3181 38.7859 24.2876C38.7398 24.2876 38.6475 24.2876 38.6475 24.2418C39.0474 23.9211 38.6321 23.3562 39.2781 23.0813C39.155 23.1119 39.1397 23.066 39.155 23.0202C39.1243 23.0355 39.0012 22.9897 38.9243 22.9744L39.1858 22.8523C38.9705 22.7607 39.2166 22.669 39.0166 22.5927L39.0474 22.6538C38.8167 22.5164 38.463 22.608 38.14 22.5164C38.4015 22.669 37.6633 22.6232 38.0324 22.8523C37.9555 22.8675 37.9401 22.8065 37.8632 22.7912C37.9862 22.8523 38.017 22.9134 37.9247 22.9592L37.8939 22.9439C37.8786 23.1577 37.7094 23.2187 37.5556 23.4325L37.7248 23.4631C37.694 23.5089 37.6325 23.5089 37.5864 23.5241C37.8171 23.6463 37.6325 23.3867 37.8939 23.5089C37.5556 23.4936 37.7863 23.86 37.4172 23.8142C37.3864 23.8906 37.6017 23.8448 37.5864 23.9211H37.4787L37.6017 23.9822C37.571 24.028 37.4326 24.0127 37.3557 23.9975C37.3711 23.9822 37.3403 23.9517 37.3403 23.9364C37.2019 23.9669 37.3249 24.1349 37.2788 24.1502L37.3557 24.0891C37.3864 24.3181 37.1865 24.5472 37.3403 24.8067H37.4172C37.5095 25.0052 37.2942 24.9136 37.3095 25.0969L37.2942 25.0816C37.3557 25.1427 37.3864 25.1885 37.3557 25.2343C37.2788 25.1732 37.1557 25.2648 37.0789 25.1885C37.1865 25.4022 37.1711 25.3106 37.4172 25.4939L37.2788 25.4786C37.3864 25.5549 37.4326 25.5702 37.448 25.6618C37.3557 25.5549 37.248 25.6618 37.125 25.5397C36.802 25.6465 37.3249 25.8909 36.9097 25.8603C37.2326 26.0435 37.1404 25.7534 37.2019 25.8298C37.3249 25.8298 37.4326 25.9672 37.3864 26.013C37.3557 26.0741 36.9251 25.9825 36.8789 26.1352C36.8789 26.1199 36.8635 26.1199 36.8635 26.1046C36.7559 26.1352 36.9558 26.242 36.7866 26.2726C36.9866 26.3642 36.7559 26.3489 37.0173 26.4405L37.002 26.2879C37.0481 26.3795 37.3403 26.5474 37.1557 26.6238C37.1096 26.5932 37.0481 26.5474 37.0173 26.5016C36.9251 26.5169 37.0481 26.5932 36.9558 26.5932C36.6944 26.5016 36.9404 26.41 36.7713 26.2726C36.6482 26.2726 36.9251 26.4864 36.6482 26.3489C37.002 26.5169 36.556 26.4711 36.802 26.6543L36.6482 26.6085C36.6636 26.6238 36.7405 26.6849 36.7251 26.7154L36.5406 26.6085C36.6944 26.7307 36.3407 26.7154 36.4175 26.8223C36.4637 26.6696 36.6175 26.8375 36.7559 26.807C36.9097 27.0666 36.3099 26.7917 36.3253 27.036C36.3099 27.0055 36.4483 26.9597 36.5098 27.0208C36.4637 27.0513 36.3868 27.0971 36.2945 27.0971C36.2791 27.2498 36.4637 27.1277 36.5406 27.2193C36.3407 27.204 36.6021 27.3109 36.6329 27.4025L36.4791 27.3567C36.3253 27.4941 36.802 27.4941 36.6329 27.6163L36.4329 27.4941L36.4637 27.5857L36.2791 27.5094C36.3868 27.6315 36.3407 27.6468 36.2638 27.7232C36.3868 27.7384 36.556 27.8148 36.5406 27.8911C36.4329 27.9064 36.4022 27.8148 36.3868 27.9217C36.2945 27.8758 36.1715 27.7995 36.3407 27.7995C36.2945 27.7842 36.2484 27.7537 36.2022 27.7232C36.0792 27.7384 36.1407 27.8453 36.1253 27.8911C36.1407 27.8759 36.1561 27.8606 36.1715 27.8606L36.356 28.0743C36.2945 28.0743 36.2484 28.0438 36.2022 28.0133C36.2176 28.0438 36.2791 28.0896 36.2791 28.1354C36.1561 28.0896 36.0177 28.0438 35.9716 27.9675L36.0792 28.1507C36.0177 28.1507 35.8947 28.1812 35.8639 28.1507C35.7562 28.2118 36.0638 28.4255 35.9254 28.5019C35.9562 28.5172 35.9716 28.5324 35.9869 28.563C35.9254 28.6546 35.7409 28.6851 35.8793 28.8683H35.6178C35.6486 28.9752 35.9408 28.8683 35.9869 29.0516C36.0331 29.189 35.7716 29.0363 35.6947 29.0516C35.8024 29.1432 36.0023 29.3112 35.787 29.3417C35.8639 29.2043 35.91 29.189 35.8947 29.1585ZM35.6486 30.3189C35.6178 30.2884 35.5256 30.212 35.6332 30.2273C35.8024 30.3037 35.7101 30.3037 35.6486 30.3189ZM35.5102 32.1665C35.464 32.136 35.4948 32.1207 35.5717 32.1054C35.5717 32.1207 35.5563 32.1512 35.5102 32.1665ZM35.2949 37.2817C35.3564 37.2511 35.3256 37.2664 35.2949 37.2817V37.2817ZM35.2026 37.3733C35.218 37.3886 35.2487 37.3886 35.2641 37.3886C35.218 37.3733 35.2334 37.3428 35.2487 37.3275C35.2026 37.3275 35.1718 37.3275 35.2026 37.3733ZM38.3246 26.4253L38.2784 26.4405C38.2477 26.3642 38.2938 26.3947 38.3246 26.4253Z" fill="#45A17B"/>
<path d="M35.3174 31.8833C35.3481 31.8833 35.3789 31.8985 35.4097 31.8985C35.3943 31.8833 35.3635 31.8833 35.3174 31.8833Z" fill="#45A17B"/>
<path d="M36.0806 28.409C36.0806 28.3937 36.0652 28.3937 36.0498 28.3937L36.0806 28.409Z" fill="#45A17B"/>
<path d="M34.291 35.4345C34.3218 35.4193 34.3525 35.4193 34.3833 35.4193C34.3525 35.4041 34.3218 35.4041 34.291 35.4345Z" fill="#45A17B"/>
<path d="M35.4097 37.9465L35.3789 37.8704C35.3789 37.9008 35.3481 37.9008 35.3174 37.916C35.3481 37.9313 35.4097 37.9313 35.4097 37.9465Z" fill="#45A17B"/>
<path d="M34.291 38.3212C34.3064 38.3364 34.291 38.3364 34.3064 38.3517L34.3833 38.3669C34.3987 38.3364 34.3372 38.2907 34.291 38.3212Z" fill="#45A17B"/>
<path d="M34.8368 37.9153C34.6984 37.8848 34.7292 37.9458 34.7445 37.9914C34.7445 37.9914 34.7445 37.9915 34.7445 37.9762C34.9445 38.0524 34.8983 37.9914 34.8368 37.9153Z" fill="#45A17B"/>
<path d="M34.7305 37.9807C34.7305 37.9959 34.7305 38.011 34.7305 38.0262C34.7916 38.0565 34.7458 38.011 34.7305 37.9807Z" fill="#45A17B"/>
<path d="M35.3285 37.507C35.2823 37.5223 35.4977 37.568 35.4361 37.568C35.6053 37.6289 35.2516 37.37 35.3285 37.507Z" fill="#45A17B"/>
<path d="M34.291 37.8273L34.4756 37.8578L34.3372 37.7969L34.291 37.8273Z" fill="#45A17B"/>
<path d="M34.6455 37.5032L34.584 37.5641C34.6147 37.5641 34.6301 37.5793 34.6301 37.5945C34.6455 37.5641 34.6916 37.5184 34.6455 37.5032Z" fill="#45A17B"/>
<path d="M34.5941 37.5767C34.5787 37.6071 34.5787 37.6224 34.6095 37.6376C34.6095 37.6376 34.6095 37.6071 34.5941 37.5767Z" fill="#45A17B"/>
<path d="M34.291 37.7477L34.3372 37.7325L34.3679 37.6868L34.291 37.7477Z" fill="#45A17B"/>
<path d="M34.842 36.7219L34.8113 36.6306C34.7498 36.6153 34.719 36.6153 34.7344 36.661C34.7805 36.6763 34.7959 36.7067 34.842 36.7219Z" fill="#45A17B"/>
<path d="M34.2214 36.851C34.2676 36.8358 34.2983 36.851 34.3598 36.851L34.1445 36.8053L34.2214 36.851Z" fill="#45A17B"/>
<path d="M34.2983 36.5973C34.2368 36.5821 34.1599 36.445 34.1445 36.5516C34.206 36.5669 34.2368 36.6582 34.2983 36.5973Z" fill="#45A17B"/>
<path d="M34.877 35.446V35.4765L35.2153 35.5679L34.877 35.446Z" fill="#45A17B"/>
<path d="M34.3143 34.1605C34.2066 34.2367 34.5142 34.2367 34.3912 34.2976C34.4681 34.3433 34.4988 34.2519 34.5604 34.2976C34.4835 34.2062 34.545 34.191 34.3143 34.1605Z" fill="#45A17B"/>
<path d="M34.584 34.2706C34.5993 34.2858 34.6146 34.3009 34.6298 34.3161C34.5993 34.3009 34.5993 34.2858 34.584 34.2706Z" fill="#45A17B"/>
<path d="M39.5972 22.6724L39.6894 22.6267L39.5664 22.6419L39.5972 22.6724Z" fill="#45A17B"/>
<path d="M39.2737 22.4888L39.489 22.5345L39.3044 22.4431C39.3044 22.4583 39.3198 22.4888 39.2737 22.4888Z" fill="#45A17B"/>
<path d="M35.1709 30.3557L35.217 30.3709C35.2786 30.3861 35.2786 30.3709 35.3093 30.3405L35.1709 30.3557Z" fill="#45A17B"/>
<path d="M35.6257 29.5691H35.6104L35.8103 29.6148L35.6257 29.5691Z" fill="#45A17B"/>
<path d="M35.6148 28.7976C35.5994 28.8281 35.6302 28.8738 35.6148 28.889C35.5994 28.8128 35.8609 28.8585 35.6148 28.7976Z" fill="#45A17B"/>
</svg>
