<svg width="111" height="48" viewBox="0 0 111 48" fill="none" xmlns="http://www.w3.org/2000/svg">
<path fill-rule="evenodd" clip-rule="evenodd" d="M24.1287 0.1622C24.7139 0.409969 26.5467 2.58277 27.3179 3.94357C27.6418 4.51475 28.1817 5.98644 28.5181 7.21422C29.2027 9.71429 29.7288 10.4555 31.9978 12.1179C32.7526 12.6708 33.4353 13.2304 33.515 13.3616C33.7872 13.809 33.427 14.5958 32.6472 15.2581C31.7173 16.048 31.6762 16.4565 32.446 17.251C33.1758 18.0044 33.1816 18.7703 32.4624 19.4004C31.9114 19.8828 31.9093 19.8998 32.3469 20.3171C32.8669 20.8129 32.9404 21.9864 32.4638 22.1902C31.934 22.4166 31.8298 23.0807 32.1237 24.3579C32.7669 27.1523 31.8578 27.7584 27.0866 27.7168L23.8041 27.6879L22.9428 28.5272C21.8982 29.5448 19.5514 33.02 18.8227 34.6283C18.0787 36.2701 17.6827 38.4614 17.8738 39.8793C18.1016 41.5704 19.3993 44.2964 20.8225 46.0725L22.0456 47.5985L20.3147 46.5886C18.0951 45.2934 15.557 42.5566 14.5903 40.4163C13.4162 37.8169 13.0918 36.1759 13.1935 33.3545C13.2753 31.0852 13.3635 30.6753 14.14 28.9515C14.7109 27.6843 15.6974 26.1928 17.0996 24.4778C20.5561 20.2497 21.9572 18.1714 23.0044 15.7181C25.0667 10.8868 25.4121 6.06645 24.024 1.48749C23.7828 0.691443 23.6035 0.0235216 23.6259 0.00345311C23.6483 -0.0168727 23.8745 0.0546536 24.1287 0.1622Z" fill="#4285F4"/>
<ellipse rx="3.74535" ry="3.63599" transform="matrix(-1 0 0 1 16.0004 12.7273)" fill="#4FC3F7"/>
<path d="M8.50984 2.03185C7.76908 2.03185 7.04496 2.24509 6.42904 2.64462C5.81312 3.04415 5.33307 3.61202 5.04959 4.27641C4.76612 4.9408 4.69195 5.67187 4.83646 6.37719C4.98098 7.0825 5.33769 7.73037 5.86148 8.23888C6.38528 8.74738 7.05264 9.09367 7.77916 9.23397C8.50569 9.37426 9.25875 9.30226 9.94313 9.02706C10.6275 8.75186 11.2124 8.28583 11.624 7.68789C12.0355 7.08995 12.2552 6.38697 12.2552 5.66784L10.1082 5.66784C10.1082 5.97473 10.0144 6.27473 9.83881 6.5299C9.66318 6.78507 9.41356 6.98395 9.1215 7.10139C8.82944 7.21883 8.50807 7.24956 8.19802 7.18969C7.88798 7.12982 7.60318 6.98204 7.37965 6.76503C7.15612 6.54803 7.0039 6.27155 6.94222 5.97056C6.88055 5.66956 6.9122 5.35757 7.03318 5.07404C7.15415 4.79051 7.35901 4.54818 7.62186 4.37768C7.8847 4.20718 8.19372 4.11618 8.50984 4.11618L8.50984 2.03185Z" fill="#00BFA5"/>
<path d="M10.5527 22.3131C11.0241 22.3131 11.4849 22.1774 11.8768 21.9232C12.2688 21.6689 12.5742 21.3075 12.7546 20.8848C12.935 20.462 12.9822 19.9967 12.8903 19.5479C12.7983 19.0991 12.5713 18.6868 12.238 18.3632C11.9047 18.0396 11.48 17.8192 11.0176 17.7299C10.5553 17.6407 10.0761 17.6865 9.64057 17.8616C9.20506 18.0367 8.83283 18.3333 8.57094 18.7138C8.30904 19.0943 8.16926 19.5417 8.16926 19.9993L10.5527 19.9993L10.5527 22.3131Z" fill="#4285F4"/>
<ellipse rx="2.04292" ry="1.98327" transform="matrix(-1 0 0 1 2.04284 9.75231)" fill="#39C3CA"/>
<rect width="6.80972" height="6.6109" transform="matrix(-1 0 0 1 21.108 0.497192)" fill="#1CE9B6"/>
<rect width="4.08583" height="3.96654" transform="matrix(-1 0 0 1 9.53186 11.7356)" fill="#39C3CA"/>
<path d="M46.1671 15.9773H50.6344V17.8198H44V3.9012H46.1671V15.9773Z" fill="#262626"/>
<path d="M51.7243 12.2523C51.7243 11.1442 51.9398 10.1629 52.3707 9.30841C52.8142 8.45394 53.4099 7.79306 54.1576 7.32577C54.918 6.84513 55.7544 6.60481 56.6669 6.60481C57.4906 6.60481 58.2067 6.77837 58.815 7.1255C59.436 7.45928 59.9302 7.87984 60.2977 8.38718V6.78505H62.4839V17.8198H60.2977V16.1776C59.9302 16.6983 59.4296 17.1322 58.796 17.4793C58.1623 17.8264 57.4399 18 56.6289 18C55.7291 18 54.9053 17.7597 54.1576 17.279C53.4099 16.785 52.8142 16.1041 52.3707 15.2363C51.9398 14.3551 51.7243 13.3605 51.7243 12.2523ZM60.2977 12.2924C60.2977 11.5314 60.1457 10.8705 59.8415 10.3097C59.55 9.749 59.1635 9.32176 58.6819 9.02804C58.2003 8.73431 57.6807 8.58745 57.1231 8.58745C56.5655 8.58745 56.0459 8.73431 55.5643 9.02804C55.0827 9.30841 54.6899 9.72897 54.3857 10.2897C54.0942 10.8371 53.9485 11.4913 53.9485 12.2523C53.9485 13.0134 54.0942 13.6809 54.3857 14.255C54.6899 14.8291 55.0827 15.2697 55.5643 15.5768C56.0586 15.8705 56.5782 16.0174 57.1231 16.0174C57.6807 16.0174 58.2003 15.8705 58.6819 15.5768C59.1635 15.283 59.55 14.8558 59.8415 14.2951C60.1457 13.721 60.2977 13.0534 60.2977 12.2924Z" fill="#262626"/>
<path d="M74.8161 6.78505V17.8198H72.649V16.518C72.3069 16.972 71.857 17.3324 71.2993 17.5995C70.7544 17.8531 70.1714 17.98 69.5504 17.98C68.7267 17.98 67.9853 17.7997 67.3263 17.4393C66.68 17.0788 66.1667 16.5447 65.7865 15.8371C65.419 15.1295 65.2352 14.275 65.2352 13.2737V6.78505H67.3833V12.9332C67.3833 13.9212 67.6178 14.6822 68.0867 15.2163C68.5556 15.737 69.1956 15.9973 70.0067 15.9973C70.8178 15.9973 71.4577 15.737 71.9267 15.2163C72.4082 14.6822 72.649 13.9212 72.649 12.9332V6.78505H74.8161Z" fill="#262626"/>
<path d="M82.9602 6.60481C83.7839 6.60481 84.519 6.78505 85.1653 7.14553C85.8243 7.50601 86.3376 8.04005 86.7051 8.74766C87.0726 9.45527 87.2564 10.3097 87.2564 11.3111V17.8198H85.1083V11.6515C85.1083 10.6636 84.8738 9.90921 84.4049 9.38852C83.936 8.85447 83.296 8.58745 82.4849 8.58745C81.6739 8.58745 81.0275 8.85447 80.5459 9.38852C80.077 9.90921 79.8426 10.6636 79.8426 11.6515V17.8198H77.6755V6.78505H79.8426V8.04673C80.1974 7.59279 80.6473 7.23899 81.1923 6.98531C81.7499 6.73164 82.3392 6.60481 82.9602 6.60481Z" fill="#262626"/>
<path d="M89.2983 12.2924C89.2983 11.1575 89.5137 10.1629 89.9446 9.30841C90.3882 8.44059 90.9965 7.77303 91.7696 7.30574C92.5426 6.83845 93.4297 6.60481 94.4309 6.60481C95.6982 6.60481 96.7438 6.92523 97.5675 7.56609C98.404 8.19359 98.9679 9.09479 99.2594 10.2697H96.9212C96.7311 9.7223 96.427 9.29506 96.0087 8.98798C95.5905 8.68091 95.0646 8.52737 94.4309 8.52737C93.5438 8.52737 92.8341 8.86115 92.3018 9.5287C91.7822 10.1829 91.5224 11.1041 91.5224 12.2924C91.5224 13.4806 91.7822 14.4085 92.3018 15.0761C92.8341 15.7437 93.5438 16.0774 94.4309 16.0774C95.6856 16.0774 96.5157 15.4967 96.9212 14.3351H99.2594C98.9552 15.4566 98.385 16.3511 97.5485 17.0187C96.7121 17.6729 95.6729 18 94.4309 18C93.4297 18 92.5426 17.7664 91.7696 17.2991C90.9965 16.8184 90.3882 16.1509 89.9446 15.2964C89.5137 14.4286 89.2983 13.4272 89.2983 12.2924Z" fill="#262626"/>
<path d="M106.837 6.60481C107.635 6.60481 108.345 6.78505 108.966 7.14553C109.6 7.50601 110.094 8.04005 110.449 8.74766C110.816 9.45527 111 10.3097 111 11.3111V17.8198H108.852V11.6515C108.852 10.6636 108.617 9.90921 108.149 9.38852C107.68 8.85447 107.04 8.58745 106.229 8.58745C105.417 8.58745 104.771 8.85447 104.29 9.38852C103.821 9.90921 103.586 10.6636 103.586 11.6515V17.8198H101.419V3H103.586V8.06676C103.954 7.59947 104.416 7.23899 104.974 6.98531C105.544 6.73164 106.165 6.60481 106.837 6.60481Z" fill="#262626"/>
<path d="M46.1398 38.0602H50.5506V39.8271H44V26.4789H46.1398V38.0602Z" fill="#262626"/>
<path d="M53.4287 27.8425C53.0408 27.8425 52.7155 27.7081 52.4527 27.4392C52.1899 27.1703 52.0585 26.8374 52.0585 26.4405C52.0585 26.0435 52.1899 25.7106 52.4527 25.4417C52.7155 25.1729 53.0408 25.0384 53.4287 25.0384C53.8041 25.0384 54.1232 25.1729 54.386 25.4417C54.6488 25.7106 54.7801 26.0435 54.7801 26.4405C54.7801 26.8374 54.6488 27.1703 54.386 27.4392C54.1232 27.7081 53.8041 27.8425 53.4287 27.8425ZM54.4798 29.2446V39.8271H52.3401V29.2446H54.4798Z" fill="#262626"/>
<path d="M61.6249 31.0307H59.7104V39.8271H57.5519V31.0307H56.3319V29.2446H57.5519V28.4955C57.5519 27.2791 57.8647 26.3956 58.4904 25.8451C59.1286 25.2817 60.1234 25 61.4748 25V26.8246C60.8241 26.8246 60.3674 26.9526 60.1046 27.2087C59.8418 27.452 59.7104 27.8809 59.7104 28.4955V29.2446H61.6249V31.0307Z" fill="#262626"/>
<path d="M73 34.2766C73 34.6735 72.975 35.032 72.9249 35.3521H65.0229C65.0854 36.1972 65.392 36.8758 65.9426 37.388C66.4932 37.9001 67.1689 38.1562 67.9697 38.1562C69.1209 38.1562 69.9343 37.6633 70.4098 36.6773H72.7185C72.4056 37.6504 71.8363 38.4507 71.0104 39.0781C70.1971 39.6927 69.1835 40 67.9697 40C66.9812 40 66.0927 39.7759 65.3044 39.3278C64.5286 38.8668 63.9154 38.2266 63.465 37.4072C63.027 36.5749 62.808 35.6146 62.808 34.5262C62.808 33.4379 63.0208 32.484 63.4462 31.6645C63.8842 30.8323 64.491 30.1921 65.2669 29.7439C66.0552 29.2958 66.9561 29.0717 67.9697 29.0717C68.9457 29.0717 69.8154 29.2894 70.5787 29.7247C71.342 30.1601 71.9364 30.7746 72.3618 31.5685C72.7873 32.3496 73 33.2522 73 34.2766ZM70.7664 33.5851C70.7539 32.7785 70.4723 32.1319 69.9218 31.6453C69.3712 31.1588 68.6892 30.9155 67.8759 30.9155C67.1376 30.9155 66.5057 31.1588 65.9801 31.6453C65.4546 32.1191 65.1417 32.7657 65.0416 33.5851H70.7664Z" fill="#262626"/>
</svg>
